<?xml version="1.0" encoding="UTF-8"?>
<!-- Uploaded to: SVG Repo, www.svgrepo.com, Generator: SVG Repo Mixer Tools -->
<svg width="800px" height="800px" fill="#000000" version="1.1" viewBox="0 0 100 100" xml:space="preserve" xmlns="http://www.w3.org/2000/svg">







<g id="_x34_" fill="#fff">

<path d="m72.8 80.7h-46.2c-5.9 0-10.7-4.8-10.7-10.7v-6c0-0.8 0.7-1.5 1.5-1.5h0.1c0.6 0 1.2 0.4 1.4 1 0.4 1.3 3.2 2.8 7 2.8 3.3 0 5.6-1.1 6.6-2.1 0.9-1.1 2.3-1.7 3.9-1.7h2.9c1.5 0 2.9 0.6 3.9 1.7 0.9 1.1 3.3 2.1 6.6 2.1 3.2 0 5.6-1.1 6.6-2.1 0.9-1.1 2.3-1.7 3.9-1.7h2.4c1.5 0 2.9 0.6 3.9 1.7 0.9 1.1 3.3 2.1 6.6 2.1 3.7 0 6.5-1.4 6.9-2.8 0.2-0.6 0.8-1 1.4-1h0.5c0.8 0 1.5 0.7 1.5 1.5v6c0 5.9-4.8 10.7-10.7 10.7zm-53.9-13.1v2.4c0 4.2 3.4 7.7 7.7 7.7h46.2c4.2 0 7.7-3.4 7.7-7.7v-2.8c-1.8 1.3-4.5 2-7.5 2-3.7 0-7.1-1.2-8.8-3.2-0.3-0.4-0.9-0.6-1.6-0.6h-2.4c-0.6 0-1.2 0.2-1.6 0.6-1.7 2-5.1 3.2-8.8 3.2s-7.1-1.2-8.8-3.2c-0.3-0.4-0.9-0.6-1.6-0.6h-2.9c-0.6 0-1.2 0.2-1.6 0.6-1.7 2-5.1 3.2-8.8 3.2-2.9 0.1-5.3-0.5-7.2-1.6zm61.4-10.1h-60.4c-3.9 0-7.1-3.3-7.1-7.4 0-2 0.7-3.8 2-5.2 1.4-1.4 3.1-2.2 5-2.2h41c0.5 0 1 0.3 1.3 0.7l2.1 3.5 4.6-3.9c0.3-0.2 0.6-0.4 1-0.4h10.5c3.9 0 7.1 3.3 7.1 7.4 0 2-0.7 3.8-2 5.2-1.4 1.5-3.2 2.3-5.1 2.3zm-60.4-11.9c-1.1 0-2.1 0.4-2.9 1.3-0.8 0.8-1.2 2-1.2 3.2 0 2.4 1.8 4.4 4.1 4.4h60.4c1.1 0 2.1-0.4 2.9-1.3 0.8-0.8 1.2-2 1.2-3.2 0-2.4-1.8-4.4-4.1-4.4h-9.9l-5.5 4.7c-0.3 0.3-0.8 0.4-1.2 0.3s-0.8-0.3-1-0.7l-2.7-4.3h-40.1zm44 5.1h-0.2c-0.4-0.1-0.8-0.3-1-0.7l-2.7-4.4h-39.9c-0.8 0-1.5-0.7-1.5-1.5v-6.8c0-0.8 0.7-1.5 1.5-1.5h59.3c0.8 0 1.5 0.7 1.5 1.5v6.8c0 0.8-0.7 1.5-1.5 1.5h-9l-5.5 4.7c-0.3 0.3-0.6 0.4-1 0.4zm-42.3-8.1h39.2c0.5 0 1 0.3 1.3 0.7l2.1 3.5 4.6-3.9c0.3-0.2 0.6-0.4 1-0.4h8v-3.8h-56.2v3.9zm40.3-1.3m11.1 28c-4.2 0-7.8-1.5-9.3-3.8h-4.7c-1.5 2.3-5.1 3.8-9.3 3.8s-7.8-1.5-9.3-3.8h-5.2c-1.5 2.3-5.1 3.8-9.3 3.8-4.4 0-8.1-1.6-9.4-4-2.3-0.7-3.9-2.8-3.9-5.2 0-2.5 1.8-4.7 4.2-5.3 0.2-0.1 0.4-0.1 0.6-0.1h64.6c3 0 5.4 2.4 5.4 5.4 0 2.9-2.3 5.3-5.1 5.4-1.5 2.3-5.1 3.8-9.3 3.8zm-14.9-6.8h6.5c0.6 0 1.2 0.4 1.4 1 0.4 1.3 3.2 2.8 7 2.8 3.7 0 6.5-1.4 6.9-2.8 0.2-0.6 0.8-1 1.4-1h0.7c1.3 0 2.4-1.1 2.4-2.4s-1.1-2.4-2.4-2.4h-64.2-0.2c-1.2 0.2-2.1 1.2-2.1 2.4s0.9 2.2 2.1 2.4c0.2 0 0.3 0.1 0.4 0.1 0.4 0.2 0.8 0.5 0.9 0.9 0.4 1.3 3.2 2.8 7 2.8 3.7 0 6.5-1.4 6.9-2.8 0.2-0.6 0.8-1 1.4-1h7c0.6 0 1.2 0.4 1.4 1 0.4 1.3 3.2 2.8 6.9 2.8s6.5-1.4 6.9-2.8c0.5-0.6 1-1 1.7-1zm23.9-23.6h-64.6c-0.8 0-1.5-0.7-1.5-1.5v-1.8c0-9 7.3-16.3 16.3-16.3h34.9c9 0 16.3 7.3 16.3 16.3v1.8c0.1 0.8-0.6 1.5-1.4 1.5zm-63.1-3h61.6v-0.3c0-7.3-6-13.3-13.3-13.3h-34.9c-7.3 0-13.3 6-13.3 13.3v0.3zm12.7-4.5 3.8-3.8c0.6-0.6 0.6-1.5 0-2.1s-1.5-0.6-2.1 0l-3.8 3.8c-0.6 0.6-0.6 1.5 0 2.1 0.3 0.3 0.7 0.4 1.1 0.4 0.3 0 0.7-0.2 1-0.4zm17.3 0 3.8-3.8c0.6-0.6 0.6-1.5 0-2.1s-1.5-0.6-2.1 0l-3.8 3.8c-0.6 0.6-0.6 1.5 0 2.1 0.3 0.3 0.7 0.4 1.1 0.4 0.3 0 0.7-0.2 1-0.4zm16.7 0 3.8-3.8c0.6-0.6 0.6-1.5 0-2.1s-1.5-0.6-2.1 0l-3.8 3.8c-0.6 0.6-0.6 1.5 0 2.1 0.3 0.3 0.7 0.4 1.1 0.4 0.3 0 0.7-0.2 1-0.4z" fill="#fff"/>

</g>









































</svg>
