<?xml version="1.0" encoding="UTF-8" standalone="no"?>
<svg
   width="215"
   height="41"
   viewBox="0 0 215 41"
   version="1.1"
   id="svg472"
   sodipodi:docname="lig-sqr-but.svg"
   inkscape:version="1.2.2 (732a01da63, 2022-12-09)"
   xmlns:inkscape="http://www.inkscape.org/namespaces/inkscape"
   xmlns:sodipodi="http://sodipodi.sourceforge.net/DTD/sodipodi-0.dtd"
   xmlns="http://www.w3.org/2000/svg"
   xmlns:svg="http://www.w3.org/2000/svg">
  <defs
     id="defs476" />
  <sodipodi:namedview
     id="namedview474"
     pagecolor="#ffffff"
     bordercolor="#666666"
     borderopacity="1.0"
     inkscape:showpageshadow="2"
     inkscape:pageopacity="0.0"
     inkscape:pagecheckerboard="0"
     inkscape:deskcolor="#d1d1d1"
     showgrid="false"
     inkscape:zoom="5.627907"
     inkscape:cx="100.83678"
     inkscape:cy="20.433884"
     inkscape:window-width="1920"
     inkscape:window-height="1017"
     inkscape:window-x="-8"
     inkscape:window-y="-8"
     inkscape:window-maximized="1"
     inkscape:current-layer="svg472" />
  <title
     id="title420">MS-SymbolLockup</title>
  <path
     id="rect593"
     style="fill:#ffffff;fill-opacity:1;stroke:#000000;stroke-width:0.5;stroke-opacity:1;stroke-dasharray:none"
     d="m 9.1091417,1.5310263 c -3.7224179,0.1288632 -7.0610508,3.2490942 -7.5058736,7.02797 -0.1843834,2.4853627 -0.034471,4.9881017 -0.083068,7.4802397 0.023568,5.338616 -0.04744,10.679981 0.036059,16.016867 0.2747326,3.751928 3.3889471,7.009859 7.0570785,7.368753 3.2071274,0.132951 6.4241574,0.02137 9.6351004,0.05815 62.480114,-0.0056 124.960522,0.01127 187.440442,-0.0084 3.72807,-0.02801 7.14361,-3.073505 7.67617,-6.842046 0.23948,-2.237154 0.0525,-4.500596 0.11183,-6.748248 -0.0236,-5.646446 0.0475,-11.295647 -0.0361,-16.9403645 -0.27496,-3.7518872 -3.38888,-7.0101417 -7.05708,-7.3687534 -3.20712,-0.1329823 -6.42416,-0.021407 -9.6351,-0.058182 -62.48012,0.00563 -124.960527,-0.011262 -187.4404503,0.00845 l -0.1004153,0.00281 z" />
  <g
     id="g1637"
     transform="translate(3.3689987,-0.11156988)">
    <path
       d="m 46.328002,25.193571 v -1.794 a 2.849,2.849 0 0 0 0.576,0.4 4.5,4.5 0 0 0 0.707,0.3 5.513,5.513 0 0 0 0.747,0.187 3.965,3.965 0 0 0 0.688,0.065 2.937,2.937 0 0 0 1.637,-0.365 1.2,1.2 0 0 0 0.538,-1.062 1.16,1.16 0 0 0 -0.179,-0.649 1.928,1.928 0 0 0 -0.5,-0.5 5.355,5.355 0 0 0 -0.757,-0.435 q -0.437,-0.209 -0.935,-0.436 c -0.356,-0.19 -0.687,-0.383 -1,-0.578 a 4.358,4.358 0 0 1 -0.8,-0.648 2.728,2.728 0 0 1 -0.534,-0.8 2.6,2.6 0 0 1 -0.194,-1.047 2.416,2.416 0 0 1 0.333,-1.285 2.811,2.811 0 0 1 0.879,-0.9 4.026,4.026 0 0 1 1.242,-0.528 5.922,5.922 0 0 1 1.42,-0.172 5.715,5.715 0 0 1 2.4,0.374 v 1.721 a 3.832,3.832 0 0 0 -2.3,-0.645 4.106,4.106 0 0 0 -0.773,0.074 2.348,2.348 0 0 0 -0.689,0.241 1.5,1.5 0 0 0 -0.494,0.433 1.054,1.054 0 0 0 -0.19,0.637 1.211,1.211 0 0 0 0.146,0.608 1.551,1.551 0 0 0 0.429,0.468 4.276,4.276 0 0 0 0.688,0.414 c 0.271,0.134 0.584,0.28 0.942,0.436 q 0.547,0.285 1.036,0.6 a 4.881,4.881 0 0 1 0.856,0.7 3.015,3.015 0 0 1 0.586,0.846 2.464,2.464 0 0 1 0.217,1.058 2.635,2.635 0 0 1 -0.322,1.348 2.608,2.608 0 0 1 -0.868,0.892 3.82,3.82 0 0 1 -1.257,0.5 6.988,6.988 0 0 1 -1.5,0.155 c -0.176,0 -0.392,-0.014 -0.649,-0.04 -0.257,-0.026 -0.518,-0.067 -0.787,-0.117 a 7.772,7.772 0 0 1 -0.761,-0.187 2.4,2.4 0 0 1 -0.578,-0.269 z"
       fill="#5e5e5e"
       id="path426" />
    <path
       d="m 55.645002,16.537571 a 1.02,1.02 0 0 1 -0.714,-0.272 0.89,0.89 0 0 1 -0.3,-0.688 0.916,0.916 0 0 1 0.3,-0.7 1.008,1.008 0 0 1 0.714,-0.278 1.039,1.039 0 0 1 0.732,0.278 0.909,0.909 0 0 1 0.3,0.7 0.9,0.9 0 0 1 -0.3,0.678 1.034,1.034 0 0 1 -0.732,0.282 z m 0.842,9.074 h -1.7 v -7.5 h 1.7 z"
       fill="#5e5e5e"
       id="path428" />
    <path
       d="m 65.533002,25.011571 q 0,4.131 -4.153,4.131 a 6.187,6.187 0 0 1 -2.556,-0.491 v -1.554 a 4.726,4.726 0 0 0 2.337,0.7 2.342,2.342 0 0 0 2.672,-2.628 v -0.818 h -0.029 a 2.947,2.947 0 0 1 -4.742,0.436 4.041,4.041 0 0 1 -0.838,-2.684 4.738,4.738 0 0 1 0.9,-3.04 3,3 0 0 1 2.476,-1.128 2.384,2.384 0 0 1 2.2,1.216 h 0.029 v -1.04 h 1.7 z m -1.684,-2.835 v -0.973 a 1.91,1.91 0 0 0 -0.524,-1.352 1.718,1.718 0 0 0 -1.309,-0.56 1.793,1.793 0 0 0 -1.512,0.714 3.217,3.217 0 0 0 -0.546,2 2.774,2.774 0 0 0 0.524,1.769 1.678,1.678 0 0 0 1.387,0.662 1.805,1.805 0 0 0 1.429,-0.632 2.391,2.391 0 0 0 0.551,-1.629 z"
       fill="#5e5e5e"
       id="path430" />
    <path
       d="m 74.424002,25.611571 h -1.7 v -4.227 q 0,-2.1 -1.486,-2.1 a 1.622,1.622 0 0 0 -1.282,0.582 2.162,2.162 0 0 0 -0.5,1.469 v 4.276 h -1.711 v -7.5 h 1.707 v 1.245 h 0.029 a 2.673,2.673 0 0 1 2.435,-1.421 2.265,2.265 0 0 1 1.868,0.795 3.57,3.57 0 0 1 0.644,2.3 z"
       fill="#5e5e5e"
       id="path432" />
    <path
       d="m 81.478,16.537571 a 1.02,1.02 0 0 1 -0.713998,-0.272 0.89,0.89 0 0 1 -0.3,-0.688 0.916,0.916 0 0 1 0.3,-0.7 1.008,1.008 0 0 1 0.713998,-0.278 1.039,1.039 0 0 1 0.732,0.278 0.909,0.909 0 0 1 0.3,0.7 0.9,0.9 0 0 1 -0.3,0.678 1.034,1.034 0 0 1 -0.732,0.282 z m 0.838,9.074 h -1.699998 v -7.5 H 82.316 Z"
       fill="#5e5e5e"
       id="path434" />
    <path
       d="m 91.216,25.611571 h -1.7 v -4.227 q 0,-2.1 -1.486,-2.1 a 1.622,1.622 0 0 0 -1.282,0.582 2.157,2.157 0 0 0 -0.506,1.469 v 4.276 h -1.703 v -7.5 h 1.707 v 1.245 h 0.03 a 2.673,2.673 0 0 1 2.431,-1.421 2.265,2.265 0 0 1 1.868,0.795 3.57,3.57 0 0 1 0.644,2.3 z"
       fill="#5e5e5e"
       id="path436" />
    <path
       d="m 107.5,18.111571 -2.212,7.5 h -1.78 l -1.361,-5.083 a 3.215,3.215 0 0 1 -0.1,-0.659 h -0.031 a 3.069,3.069 0 0 1 -0.131,0.644 l -1.48,5.1 h -1.744 l -2.206,-7.502 h 1.761 l 1.363,5.405 a 3.16,3.16 0 0 1 0.087,0.645 h 0.05 a 3.384,3.384 0 0 1 0.117,-0.659 l 1.515,-5.391 h 1.6 l 1.347,5.428 a 3.732,3.732 0 0 1 0.095,0.644 h 0.052 a 3.387,3.387 0 0 1 0.11,-0.644 l 1.329,-5.428 z"
       fill="#5e5e5e"
       id="path438" />
    <path
       d="m 109.616,16.537571 a 1.018,1.018 0 0 1 -0.714,-0.272 0.886,0.886 0 0 1 -0.3,-0.688 0.912,0.912 0 0 1 0.3,-0.7 1.006,1.006 0 0 1 0.714,-0.278 1.039,1.039 0 0 1 0.732,0.278 0.912,0.912 0 0 1 0.3,0.7 0.9,0.9 0 0 1 -0.3,0.678 1.034,1.034 0 0 1 -0.732,0.282 z m 0.841,9.074 h -1.7 v -7.5 h 1.7 z"
       fill="#5e5e5e"
       id="path440" />
    <path
       d="m 116.633,25.531571 a 2.955,2.955 0 0 1 -1.31,0.248 q -2.182,0 -2.183,-2.094 v -4.241 h -1.253 v -1.333 h 1.253 v -1.736 l 1.7,-0.483 v 2.219 h 1.794 v 1.333 h -1.794 v 3.75 a 1.484,1.484 0 0 0 0.241,0.952 1.006,1.006 0 0 0 0.807,0.285 1.167,1.167 0 0 0 0.746,-0.248 z"
       fill="#5e5e5e"
       id="path442" />
    <path
       d="m 124.764,25.611571 h -1.7 v -4.1 q 0,-2.226 -1.487,-2.226 a 1.556,1.556 0 0 0 -1.26,0.644 2.568,2.568 0 0 0 -0.513,1.649 v 4.033 h -1.707 v -11.1 h 1.707 v 4.849 h 0.029 a 2.685,2.685 0 0 1 2.432,-1.421 q 2.5,0 2.5,3.055 z"
       fill="#5e5e5e"
       id="path444" />
    <path
       d="m 142.423,25.611571 h -1.728 v -6.8 q 0,-0.835 0.1,-2.043 h -0.029 a 6.992,6.992 0 0 1 -0.285,0.988 l -3.134,7.855 h -1.2 l -3.143,-7.793 a 7.236,7.236 0 0 1 -0.277,-1.047 h -0.029 q 0.057,0.63 0.058,2.058 v 6.782 h -1.611 v -10.5 h 2.453 l 2.762,7 a 10.884,10.884 0 0 1 0.41,1.2 h 0.036 c 0.181,-0.551 0.327,-0.962 0.44,-1.23 l 2.811,-6.97 h 2.366 z"
       fill="#5e5e5e"
       id="path446" />
    <path
       d="m 145.674,16.537571 a 1.022,1.022 0 0 1 -0.714,-0.272 0.89,0.89 0 0 1 -0.3,-0.688 0.916,0.916 0 0 1 0.3,-0.7 1.009,1.009 0 0 1 0.714,-0.278 1.043,1.043 0 0 1 0.733,0.278 0.911,0.911 0 0 1 0.3,0.7 0.9,0.9 0 0 1 -0.3,0.678 1.038,1.038 0 0 1 -0.733,0.282 z m 0.842,9.074 h -1.7 v -7.5 h 1.7 z"
       fill="#5e5e5e"
       id="path448" />
    <path
       d="m 154.105,25.267571 a 4.2,4.2 0 0 1 -2.131,0.52 3.606,3.606 0 0 1 -2.695,-1.044 3.691,3.691 0 0 1 -1.026,-2.706 4.07,4.07 0 0 1 1.1,-2.978 3.944,3.944 0 0 1 2.948,-1.124 4.3,4.3 0 0 1 1.81,0.36 v 1.582 a 2.743,2.743 0 0 0 -1.67,-0.586 2.32,2.32 0 0 0 -1.766,0.728 2.665,2.665 0 0 0 -0.688,1.908 2.536,2.536 0 0 0 0.648,1.838 2.3,2.3 0 0 0 1.739,0.674 2.716,2.716 0 0 0 1.729,-0.652 z"
       fill="#5e5e5e"
       id="path450" />
    <path
       d="m 160.141,19.730571 a 1.4,1.4 0 0 0 -0.887,-0.242 1.513,1.513 0 0 0 -1.259,0.682 3.04,3.04 0 0 0 -0.506,1.852 v 3.589 h -1.7 v -7.5 h 1.7 v 1.545 h 0.027 a 2.606,2.606 0 0 1 0.766,-1.233 1.724,1.724 0 0 1 1.154,-0.444 1.432,1.432 0 0 1 0.7,0.14 z"
       fill="#5e5e5e"
       id="path452" />
    <path
       d="m 164.536,25.787571 a 3.719,3.719 0 0 1 -2.773,-1.051 3.8,3.8 0 0 1 -1.036,-2.787 3.7,3.7 0 0 1 3.991,-4.014 3.6,3.6 0 0 1 2.739,1.033 3.986,3.986 0 0 1 0.982,2.864 3.932,3.932 0 0 1 -1.059,2.875 3.8,3.8 0 0 1 -2.844,1.08 z m 0.08,-6.5 a 1.938,1.938 0 0 0 -1.575,0.7 2.913,2.913 0 0 0 -0.579,1.919 2.744,2.744 0 0 0 0.586,1.856 1.965,1.965 0 0 0 1.568,0.678 1.87,1.87 0 0 0 1.542,-0.666 2.956,2.956 0 0 0 0.538,-1.9 3,3 0 0 0 -0.538,-1.911 1.858,1.858 0 0 0 -1.542,-0.672 z"
       fill="#5e5e5e"
       id="path454" />
    <path
       d="m 169.698,25.377571 v -1.575 a 3.392,3.392 0 0 0 2.1,0.725 q 1.539,0 1.538,-0.908 a 0.714,0.714 0 0 0 -0.132,-0.436 1.241,1.241 0 0 0 -0.355,-0.318 2.784,2.784 0 0 0 -0.527,-0.25 q -0.3,-0.108 -0.677,-0.248 a 7.052,7.052 0 0 1 -0.832,-0.389 2.545,2.545 0 0 1 -0.615,-0.465 1.745,1.745 0 0 1 -0.37,-0.59 2.145,2.145 0 0 1 -0.125,-0.769 1.775,1.775 0 0 1 0.256,-0.955 2.223,2.223 0 0 1 0.69,-0.7 3.289,3.289 0 0 1 0.98,-0.425 4.511,4.511 0 0 1 1.136,-0.143 5.181,5.181 0 0 1 1.86,0.315 v 1.487 a 3.136,3.136 0 0 0 -1.816,-0.542 2.317,2.317 0 0 0 -0.582,0.066 1.472,1.472 0 0 0 -0.443,0.183 0.886,0.886 0 0 0 -0.286,0.282 0.669,0.669 0 0 0 -0.1,0.363 0.77,0.77 0 0 0 0.1,0.41 0.93,0.93 0 0 0 0.3,0.3 2.654,2.654 0 0 0 0.483,0.234 q 0.282,0.105 0.649,0.23 a 9.4,9.4 0 0 1 0.867,0.4 2.886,2.886 0 0 1 0.656,0.465 1.806,1.806 0 0 1 0.417,0.6 2.034,2.034 0 0 1 0.147,0.81 1.847,1.847 0 0 1 -0.264,1 2.205,2.205 0 0 1 -0.7,0.7 3.292,3.292 0 0 1 -1.015,0.413 5.222,5.222 0 0 1 -1.212,0.136 5.115,5.115 0 0 1 -2.128,-0.406 z"
       fill="#5e5e5e"
       id="path456" />
    <path
       d="m 179.959,25.787571 a 3.717,3.717 0 0 1 -2.772,-1.051 3.793,3.793 0 0 1 -1.036,-2.787 3.7,3.7 0 0 1 3.991,-4.014 3.6,3.6 0 0 1 2.739,1.033 3.986,3.986 0 0 1 0.982,2.864 3.932,3.932 0 0 1 -1.059,2.875 3.8,3.8 0 0 1 -2.845,1.08 z m 0.08,-6.5 a 1.936,1.936 0 0 0 -1.574,0.7 2.908,2.908 0 0 0 -0.579,1.919 2.739,2.739 0 0 0 0.586,1.856 1.964,1.964 0 0 0 1.567,0.678 1.868,1.868 0 0 0 1.542,-0.666 2.95,2.95 0 0 0 0.539,-1.9 2.99,2.99 0 0 0 -0.539,-1.911 1.857,1.857 0 0 0 -1.542,-0.672 z"
       fill="#5e5e5e"
       id="path458" />
    <path
       d="m 189.583,15.892571 a 1.533,1.533 0 0 0 -0.784,-0.2 q -1.237,0 -1.237,1.4 v 1.019 h 1.743 v 1.333 h -1.736 v 6.167 h -1.7 v -6.167 h -1.282 v -1.333 h 1.282 v -1.216 a 2.362,2.362 0 0 1 0.777,-1.871 2.82,2.82 0 0 1 1.94,-0.684 2.879,2.879 0 0 1 1,0.138 z"
       fill="#5e5e5e"
       id="path460" />
    <path
       d="m 194.746,25.531571 a 2.955,2.955 0 0 1 -1.31,0.248 q -2.182,0 -2.183,-2.094 v -4.241 H 190 v -1.333 h 1.253 v -1.736 l 1.7,-0.483 v 2.219 h 1.793 v 1.333 h -1.793 v 3.75 a 1.484,1.484 0 0 0 0.241,0.952 1,1 0 0 0 0.806,0.285 1.165,1.165 0 0 0 0.746,-0.248 z"
       fill="#5e5e5e"
       id="path462" />
    <rect
       x="13.516003"
       y="11.111569"
       width="9"
       height="9"
       fill="#f25022"
       id="rect464" />
    <rect
       x="13.516003"
       y="21.11157"
       width="9"
       height="9"
       fill="#00a4ef"
       id="rect466" />
    <rect
       x="23.516003"
       y="11.111569"
       width="9"
       height="9"
       fill="#7fba00"
       id="rect468" />
    <rect
       x="23.516003"
       y="21.11157"
       width="9"
       height="9"
       fill="#ffb900"
       id="rect470" />
  </g>
</svg>
