<?xml version="1.0" encoding="UTF-8"?>
<svg xmlns="http://www.w3.org/2000/svg" xmlns:xlink="http://www.w3.org/1999/xlink" id="svg" version="1.1" width="400" height="402.77777777777777" viewBox="0, 0, 400,402.77777777777777" preserveAspectRatio="none">
  <g id="svgg">
    <path id="path0" d="M178.968 2.029 C 127.684 32.854,109.236 71.736,125.696 114.309 L 126.856 117.308 122.853 114.295 C 88.459 88.412,49.838 93.512,4.861 129.876 C -0.886 134.523,-0.663 133.412,2.345 142.398 C 16.791 185.560,42.385 217.583,69.725 226.703 L 72.585 227.657 68.138 230.667 C 40.653 249.272,30.050 281.709,36.330 327.976 C 38.294 342.453,37.099 340.808,47.112 342.813 C 89.602 351.324,129.027 346.363,151.193 329.718 C 153.195 328.214,154.892 326.984,154.964 326.984 C 155.035 326.984,155.573 328.457,156.159 330.258 C 164.146 354.793,190.716 380.561,226.926 398.890 C 237.116 404.048,235.167 404.574,245.983 393.750 C 278.223 361.486,289.068 331.188,279.393 300.411 C 277.982 295.919,277.851 296.138,281.078 297.586 C 295.913 304.242,316.114 305.024,336.706 299.739 C 355.260 294.977,378.507 284.033,395.675 271.978 L 400.085 268.881 399.839 267.080 C 397.965 253.342,388.806 228.155,381.020 215.332 C 367.735 193.450,351.438 181.995,326.692 177.146 C 325.919 176.994,326.373 176.422,330.205 172.720 C 351.636 152.014,363.214 106.455,357.686 64.581 L 357.437 62.694 353.024 61.320 C 306.643 46.880,272.263 51.143,249.191 74.195 L 245.407 77.976 243.719 72.817 C 236.152 49.687,213.246 21.508,186.350 2.245 C 182.566 -0.465,183.091 -0.449,178.968 2.029 M189.087 17.278 C 214.690 38.192,232.429 63.510,236.541 85.004 L 237.363 89.299 235.598 92.368 C 229.376 103.181,220.238 128.572,220.238 135.048 C 220.238 135.632,220.032 135.759,219.345 135.599 C 218.854 135.485,216.577 134.922,214.286 134.348 C 211.994 133.774,209.589 133.172,208.941 133.010 L 207.762 132.715 204.179 112.183 L 200.595 91.652 200.353 98.108 C 200.219 101.658,200.085 109.761,200.055 116.112 C 199.994 128.939,199.759 132.540,198.983 132.540 C 198.325 132.540,198.600 134.054,194.241 106.349 C 192.164 93.145,190.385 82.163,190.288 81.944 C 190.192 81.726,190.132 93.145,190.156 107.320 L 190.199 133.093 188.056 133.576 C 186.877 133.842,185.837 133.984,185.746 133.893 C 185.654 133.801,183.757 121.361,181.530 106.248 C 179.304 91.135,177.380 78.413,177.256 77.976 C 177.028 77.176,177.184 96.072,177.623 122.443 L 177.861 136.752 176.155 137.422 C 175.199 137.797,174.352 137.933,174.229 137.730 C 174.107 137.531,171.954 121.969,169.444 103.148 C 164.069 62.843,164.321 62.630,165.458 106.541 C 165.905 123.787,166.263 139.058,166.254 140.476 L 166.237 143.056 163.773 144.934 C 162.418 145.967,160.624 147.395,159.786 148.108 L 158.262 149.403 157.008 147.857 C 154.632 144.928,148.978 136.896,146.526 132.967 C 117.498 86.459,126.853 49.061,175.729 16.219 L 182.212 11.863 183.665 12.950 C 184.465 13.547,186.905 15.495,189.087 17.278 M321.032 64.246 C 328.837 65.405,335.111 66.751,343.329 69.029 L 347.968 70.315 348.237 72.466 C 348.716 76.302,348.149 100.164,347.437 106.151 C 340.726 162.525,312.721 187.362,264.940 179.316 C 256.656 177.921,256.121 178.790,274.501 163.808 C 282.960 156.913,290.327 150.888,290.873 150.419 L 291.865 149.567 290.153 150.400 C 289.211 150.858,281.181 155.159,272.309 159.957 L 256.177 168.681 255.500 167.784 C 254.599 166.589,252.743 168.212,275.418 150.369 C 294.623 135.256,297.335 133.031,294.345 134.844 C 293.126 135.584,253.164 158.074,251.310 159.064 C 250.520 159.486,250.306 159.357,249.043 157.703 L 247.648 155.876 270.352 138.408 C 282.839 128.801,293.234 120.753,293.452 120.524 C 293.967 119.984,294.243 119.827,266.753 135.677 C 253.815 143.137,242.971 149.340,242.656 149.461 C 242.104 149.672,239.749 148.126,239.704 147.522 C 239.692 147.359,252.540 137.582,268.254 125.794 C 283.968 114.006,296.825 104.277,296.825 104.176 C 296.825 104.074,295.084 105.037,292.956 106.317 C 282.234 112.763,233.834 141.420,233.117 141.747 C 232.231 142.151,229.365 140.807,229.365 139.989 C 229.365 139.059,231.531 130.022,232.999 124.825 C 246.288 77.791,275.741 57.523,321.032 64.246 M89.365 109.499 C 107.755 113.447,124.842 126.014,140.929 147.421 C 145.490 153.491,149.686 159.925,149.463 160.507 C 149.310 160.905,144.437 159.822,128.905 155.937 C 117.708 153.136,108.496 150.896,108.433 150.958 C 108.370 151.021,114.617 153.988,122.314 157.551 C 130.012 161.114,138.309 164.965,140.754 166.109 L 145.198 168.188 144.345 170.207 C 143.681 171.778,143.338 172.176,142.795 172.004 C 140.647 171.322,95.055 159.178,94.968 159.265 C 94.911 159.322,105.172 163.928,117.769 169.501 L 140.675 179.633 140.546 181.182 C 140.476 182.033,140.375 182.773,140.323 182.826 C 140.270 182.878,127.830 179.455,112.678 175.218 C 97.526 170.982,85.086 167.559,85.033 167.612 C 84.981 167.665,97.032 172.907,111.814 179.262 C 136.818 190.011,138.699 190.887,138.816 191.836 C 138.984 193.203,142.128 194.012,104.959 183.117 C 86.683 177.759,71.660 173.446,71.574 173.532 C 71.489 173.617,86.198 179.812,104.261 187.297 C 122.324 194.783,137.247 201.034,137.422 201.189 C 137.842 201.561,131.979 205.553,125.906 209.032 C 84.765 232.594,48.842 217.091,22.470 164.392 C 18.525 156.507,11.508 139.484,11.508 137.796 C 11.508 137.624,13.253 136.121,15.387 134.454 C 42.265 113.459,67.755 104.860,89.365 109.499 M209.325 156.939 C 243.796 167.071,251.465 218.037,221.429 237.374 C 195.434 254.109,161.892 231.776,161.906 197.741 C 161.915 176.210,175.203 159.487,195.238 155.793 C 198.031 155.278,205.833 155.912,209.325 156.939 M324.206 187.142 C 356.297 191.796,378.711 218.244,388.663 263.198 C 389.360 266.343,360.791 281.386,342.857 287.317 C 305.393 299.706,277.883 292.708,260.122 266.270 C 258.059 263.199,251.615 250.658,250.997 248.512 C 250.668 247.368,248.977 247.290,270.661 249.420 C 280.745 250.411,289.156 251.168,289.353 251.102 C 289.550 251.036,281.267 248.504,270.947 245.476 C 260.626 242.447,252.052 239.896,251.892 239.807 C 251.732 239.717,252.082 238.894,252.669 237.977 C 253.256 237.060,253.751 236.273,253.769 236.227 C 253.797 236.158,287.901 240.025,292.659 240.637 C 295.712 241.029,292.744 240.129,275.000 235.279 C 254.471 229.668,256.873 230.634,257.790 228.350 C 258.788 225.866,256.799 225.816,281.627 228.946 C 293.842 230.486,304.089 231.734,304.398 231.720 C 304.707 231.706,295.228 229.115,283.333 225.962 C 271.438 222.809,261.500 220.154,261.248 220.062 C 260.154 219.663,261.876 215.095,263.040 215.309 C 265.496 215.759,315.624 222.603,315.725 222.502 C 315.787 222.441,304.551 219.551,290.756 216.082 C 276.961 212.612,265.110 209.623,264.420 209.441 L 263.166 209.109 263.230 202.574 L 263.294 196.039 268.651 194.273 C 277.773 191.266,279.139 190.972,285.196 190.710 C 292.146 190.410,299.154 189.250,304.706 187.482 C 309.499 185.955,315.323 185.854,324.206 187.142 M142.737 222.054 C 142.814 222.289,135.819 228.880,127.193 236.700 C 118.566 244.520,111.508 250.978,111.508 251.052 C 111.508 251.126,113.785 249.789,116.567 248.081 C 146.560 229.673,146.773 229.556,146.819 231.392 C 146.824 231.565,115.366 259.356,108.757 265.017 C 107.406 266.174,138.913 246.432,150.266 239.008 C 153.011 237.213,149.305 240.513,128.754 258.161 C 108.113 275.887,105.122 278.545,107.837 276.751 C 139.623 255.754,156.459 245.215,157.177 245.864 C 157.595 246.242,157.937 246.686,157.937 246.850 C 157.937 247.014,145.526 257.535,130.357 270.230 C 115.188 282.924,102.778 293.387,102.778 293.481 C 102.778 293.575,116.612 284.429,133.520 273.157 L 164.262 252.663 166.214 254.009 C 168.593 255.649,168.642 255.906,168.647 266.782 C 168.663 300.007,155.718 320.233,127.760 330.672 C 109.157 337.617,79.145 338.658,51.433 333.318 C 46.723 332.410,47.290 332.952,46.610 328.712 C 42.171 301.028,45.534 274.458,55.542 258.135 C 64.625 243.319,82.774 230.743,97.027 229.387 C 102.481 228.868,109.631 227.142,115.855 224.840 C 120.326 223.187,121.093 223.032,127.679 222.444 C 138.815 221.451,142.509 221.355,142.737 222.054 M239.471 259.226 C 283.723 300.241,283.356 342.731,238.365 387.259 L 234.198 391.383 228.218 388.158 C 193.358 369.357,170.491 345.925,164.508 322.873 C 163.206 317.858,163.082 318.542,166.108 314.025 C 173.533 302.941,177.524 290.062,178.542 273.897 L 178.924 267.834 180.831 265.469 C 182.224 263.740,182.952 263.143,183.532 263.251 C 184.171 263.370,190.914 265.143,191.130 265.249 C 191.162 265.265,193.090 274.385,195.414 285.516 C 197.738 296.647,199.718 305.933,199.815 306.151 C 199.911 306.369,199.882 297.485,199.750 286.409 C 199.548 269.512,199.596 266.270,200.052 266.273 C 200.455 266.275,201.813 272.685,205.325 291.173 C 210.397 317.879,210.636 318.930,210.425 313.605 C 209.914 300.689,208.765 266.102,208.845 266.022 C 209.319 265.548,213.006 265.469,213.177 265.929 C 213.287 266.226,215.675 279.206,218.483 294.775 C 221.291 310.344,223.650 322.899,223.725 322.675 C 223.861 322.265,221.609 270.133,221.260 265.628 L 221.071 263.200 222.709 262.557 C 223.610 262.203,224.382 261.956,224.426 262.008 C 224.469 262.060,227.160 277.977,230.407 297.379 C 233.653 316.781,236.363 332.043,236.427 331.296 C 236.515 330.284,234.155 287.520,232.460 259.411 C 232.377 258.039,234.262 256.051,235.727 255.965 C 235.843 255.958,237.528 257.426,239.471 259.226 " stroke="none" fill="#251d24" fill-rule="evenodd"></path>
  </g>
</svg>
