<?xml version="1.0" encoding="UTF-8"?>
<svg xmlns="http://www.w3.org/2000/svg" xmlns:xlink="http://www.w3.org/1999/xlink" id="svg" version="1.1" width="400" height="400" viewBox="0, 0, 400,400" preserveAspectRatio="none">
  <g id="svgg">
    <path id="path0" d="M176.639 0.774 C 175.340 1.202,174.170 1.697,174.039 1.876 C 173.907 2.054,173.170 2.544,172.400 2.964 C 170.890 3.787,170.670 3.960,168.100 6.335 C 167.165 7.199,166.400 8.097,166.400 8.331 C 166.400 8.564,166.028 9.015,165.573 9.334 C 165.118 9.653,164.387 10.582,163.950 11.398 C 163.512 12.215,162.804 13.258,162.377 13.717 C 161.950 14.176,161.600 14.774,161.600 15.047 C 161.600 15.320,161.362 15.781,161.071 16.072 C 160.780 16.363,160.216 17.455,159.817 18.500 C 159.418 19.545,158.955 20.400,158.789 20.400 C 158.623 20.400,158.374 20.850,158.236 21.400 C 157.911 22.693,157.534 22.660,155.933 21.198 C 155.209 20.537,154.298 19.895,153.909 19.771 C 153.519 19.647,153.200 19.383,153.200 19.183 C 153.200 18.983,152.390 18.451,151.400 18.000 C 150.410 17.549,149.600 17.023,149.600 16.830 C 149.600 16.638,148.700 16.157,147.600 15.761 C 146.500 15.366,145.600 14.907,145.600 14.741 C 145.600 14.576,144.565 14.122,143.300 13.731 C 142.035 13.341,140.901 12.885,140.781 12.718 C 139.812 11.376,127.522 11.620,126.133 13.010 C 125.809 13.334,125.283 13.600,124.966 13.600 C 121.564 13.600,114.290 22.744,112.716 29.000 C 112.440 30.100,112.091 31.091,111.941 31.203 C 111.600 31.456,110.400 37.693,110.400 39.211 C 110.400 39.828,110.179 40.407,109.908 40.497 C 109.267 40.711,109.336 53.712,109.979 53.926 C 110.211 54.004,110.400 54.665,110.400 55.397 C 110.400 57.446,111.645 66.575,111.955 66.800 C 112.107 66.910,112.650 69.207,113.162 71.905 C 113.675 74.603,114.224 76.891,114.384 76.990 C 114.543 77.088,115.000 78.571,115.400 80.284 C 115.799 81.998,116.318 83.525,116.551 83.678 C 116.785 83.831,116.848 84.085,116.691 84.242 C 116.534 84.400,116.089 84.257,115.702 83.925 C 115.316 83.593,114.685 83.210,114.300 83.073 C 113.915 82.937,113.600 82.668,113.600 82.476 C 113.600 82.283,112.970 81.787,112.200 81.372 C 111.430 80.957,110.800 80.487,110.800 80.328 C 110.800 80.168,110.125 79.720,109.300 79.332 C 108.475 78.944,107.451 78.305,107.025 77.913 C 106.598 77.521,106.047 77.200,105.800 77.200 C 105.553 77.200,105.002 76.883,104.575 76.495 C 104.149 76.107,103.035 75.450,102.100 75.034 C 101.165 74.618,100.400 74.165,100.400 74.027 C 100.400 73.889,99.505 73.429,98.411 73.004 C 97.316 72.580,96.343 72.028,96.247 71.778 C 96.151 71.529,95.246 71.093,94.236 70.810 C 93.226 70.527,92.400 70.161,92.400 69.997 C 92.400 69.832,91.275 69.282,89.900 68.774 C 88.525 68.266,87.310 67.732,87.200 67.587 C 87.090 67.442,85.920 66.992,84.600 66.587 C 83.280 66.181,82.108 65.717,81.995 65.556 C 81.714 65.151,73.764 64.000,71.249 64.000 C 70.122 64.000,69.200 63.820,69.200 63.600 C 69.200 63.365,67.800 63.200,65.800 63.200 C 63.800 63.200,62.400 63.365,62.400 63.600 C 62.400 63.820,61.635 64.003,60.700 64.007 C 58.663 64.015,53.547 65.052,53.227 65.522 C 53.102 65.705,52.242 66.153,51.316 66.518 C 48.194 67.747,45.031 70.841,42.962 74.689 C 40.465 79.334,40.040 92.124,42.220 97.000 C 42.515 97.660,43.031 99.278,43.366 100.596 C 43.700 101.913,44.160 103.053,44.387 103.129 C 45.577 103.526,44.755 104.800,43.300 104.816 C 40.603 104.844,29.721 107.300,29.200 107.998 C 29.090 108.145,28.055 108.602,26.900 109.012 C 25.745 109.422,24.800 109.882,24.800 110.033 C 24.800 110.185,24.170 110.608,23.400 110.973 C 22.630 111.339,22.000 111.791,22.000 111.979 C 22.000 112.167,21.381 112.686,20.624 113.133 C 19.867 113.579,18.744 114.722,18.128 115.672 C 17.512 116.623,16.916 117.490,16.804 117.600 C 16.407 117.989,15.200 120.835,15.200 121.380 C 15.200 121.684,14.975 122.008,14.700 122.100 C 14.041 122.320,13.980 133.886,14.636 134.315 C 14.876 134.472,15.398 135.815,15.795 137.300 C 16.193 138.785,16.639 140.000,16.786 140.000 C 16.933 140.000,17.477 141.035,17.996 142.300 C 18.515 143.565,19.063 144.690,19.214 144.800 C 19.365 144.910,19.788 145.585,20.154 146.300 C 20.521 147.015,20.952 147.600,21.113 147.600 C 21.273 147.600,21.635 148.121,21.917 148.757 C 22.199 149.394,22.828 150.377,23.315 150.942 C 23.802 151.507,24.560 152.452,25.000 153.042 C 26.248 154.717,29.073 157.600,29.467 157.600 C 29.662 157.600,30.298 158.095,30.881 158.700 C 32.246 160.118,33.674 161.289,36.400 163.229 C 37.610 164.090,38.885 165.066,39.234 165.397 C 39.582 165.729,40.032 166.000,40.234 166.000 C 40.435 166.001,41.117 166.445,41.748 166.988 C 42.379 167.531,43.414 168.205,44.048 168.485 C 44.682 168.766,45.200 169.119,45.200 169.270 C 45.200 169.420,46.055 169.961,47.100 170.472 C 48.145 170.982,49.136 171.611,49.303 171.870 C 49.470 172.128,50.235 172.547,51.003 172.801 C 51.771 173.055,52.400 173.413,52.400 173.598 C 52.400 173.783,53.210 174.243,54.200 174.621 C 55.190 174.999,56.000 175.440,56.000 175.600 C 56.000 175.760,56.810 176.201,57.800 176.579 C 59.915 177.386,60.130 177.998,58.300 178.004 C 56.359 178.011,46.748 179.550,46.240 179.936 C 45.998 180.120,44.225 180.593,42.300 180.986 C 40.375 181.380,38.800 181.826,38.800 181.978 C 38.800 182.130,37.450 182.572,35.800 182.961 C 34.150 183.350,32.800 183.791,32.800 183.942 C 32.800 184.092,31.270 184.638,29.400 185.154 C 27.530 185.670,26.000 186.226,26.000 186.391 C 26.000 186.556,25.010 187.002,23.800 187.382 C 22.590 187.763,21.600 188.202,21.600 188.357 C 21.600 188.512,20.953 188.873,20.163 189.159 C 19.373 189.445,18.351 190.111,17.891 190.639 C 17.432 191.168,16.825 191.600,16.542 191.600 C 16.259 191.600,15.835 191.960,15.600 192.400 C 15.365 192.840,14.972 193.200,14.727 193.200 C 13.047 193.200,3.408 203.311,2.620 205.900 C 2.469 206.395,2.203 206.800,2.028 206.800 C -0.232 206.800,-0.448 223.817,1.787 225.800 C 2.034 226.020,2.492 226.825,2.804 227.589 C 3.115 228.352,4.637 230.211,6.185 231.720 C 9.682 235.127,9.886 235.298,11.574 236.236 C 12.329 236.656,13.274 237.315,13.674 237.700 C 14.073 238.085,14.661 238.400,14.980 238.400 C 15.299 238.400,15.704 238.630,15.880 238.911 C 16.056 239.193,17.010 239.775,18.000 240.204 C 18.990 240.634,20.038 241.214,20.329 241.493 C 20.619 241.772,21.204 242.000,21.629 242.000 C 22.053 242.000,22.400 242.102,22.400 242.226 C 22.400 242.762,21.414 244.242,20.737 244.723 C 20.331 245.010,20.000 245.511,20.000 245.835 C 20.000 246.160,19.730 246.529,19.400 246.655 C 19.070 246.782,18.438 247.703,17.996 248.701 C 17.555 249.700,16.953 250.715,16.658 250.958 C 16.364 251.201,15.881 252.030,15.584 252.800 C 15.288 253.570,14.891 254.307,14.701 254.437 C 14.512 254.567,14.079 255.737,13.740 257.037 C 13.401 258.337,12.967 259.497,12.775 259.615 C 11.573 260.359,11.540 272.746,12.738 273.587 C 12.905 273.704,13.362 274.655,13.754 275.700 C 14.146 276.745,14.592 277.600,14.747 277.600 C 14.901 277.600,15.349 278.145,15.743 278.811 C 16.653 280.352,18.048 281.747,19.589 282.657 C 20.255 283.051,20.800 283.499,20.800 283.653 C 20.800 283.808,21.610 284.243,22.600 284.621 C 23.590 284.999,24.400 285.434,24.400 285.587 C 24.400 285.740,25.705 286.294,27.300 286.819 C 28.895 287.343,30.290 287.893,30.400 288.040 C 30.510 288.188,32.490 288.633,34.800 289.030 C 37.110 289.428,39.129 289.943,39.286 290.176 C 39.704 290.797,55.302 290.693,55.511 290.068 C 55.597 289.810,56.276 289.600,57.021 289.600 C 59.054 289.600,66.907 288.434,67.644 288.023 C 67.998 287.825,70.338 287.259,72.844 286.764 C 75.350 286.270,77.490 285.744,77.600 285.595 C 77.710 285.447,79.195 285.001,80.900 284.603 C 82.605 284.206,84.000 283.727,84.000 283.540 C 84.000 283.353,84.175 283.200,84.388 283.200 C 84.767 283.200,83.064 285.979,82.432 286.391 C 82.256 286.506,81.812 287.185,81.446 287.900 C 81.079 288.615,80.649 289.202,80.490 289.205 C 80.330 289.207,79.856 289.927,79.436 290.805 C 79.015 291.682,78.532 292.400,78.363 292.400 C 78.193 292.400,77.931 292.805,77.781 293.300 C 77.630 293.795,77.069 294.785,76.533 295.500 C 75.997 296.215,75.296 297.430,74.974 298.200 C 74.652 298.970,74.251 299.600,74.083 299.600 C 73.914 299.600,73.427 300.500,73.000 301.600 C 72.573 302.700,72.108 303.600,71.966 303.600 C 71.825 303.600,71.386 304.455,70.991 305.500 C 70.596 306.545,70.120 307.502,69.932 307.626 C 69.745 307.751,69.216 308.921,68.757 310.226 C 68.298 311.532,67.784 312.690,67.614 312.800 C 67.445 312.910,66.994 314.080,66.613 315.400 C 66.232 316.720,65.772 317.892,65.591 318.005 C 65.144 318.282,64.000 326.157,64.000 328.951 C 64.000 330.188,63.820 331.200,63.600 331.200 C 63.367 331.200,63.200 332.533,63.200 334.400 C 63.200 336.267,63.367 337.600,63.600 337.600 C 63.820 337.600,64.000 338.419,64.000 339.421 C 64.000 341.576,65.124 346.800,65.588 346.800 C 65.765 346.800,66.021 347.385,66.156 348.100 C 66.290 348.815,66.850 349.923,67.400 350.562 C 67.950 351.201,68.400 351.846,68.400 351.996 C 68.400 352.495,71.327 355.200,71.867 355.200 C 72.160 355.200,72.400 355.375,72.400 355.590 C 72.400 355.804,72.985 356.279,73.700 356.646 C 74.415 357.012,75.090 357.442,75.200 357.602 C 76.547 359.557,97.055 359.572,98.400 357.618 C 98.510 357.458,99.815 357.002,101.300 356.605 C 102.785 356.207,104.000 355.728,104.000 355.541 C 104.000 353.572,104.737 356.134,105.136 359.486 C 105.416 361.843,105.784 363.958,105.955 364.186 C 106.126 364.414,106.595 366.085,106.998 367.900 C 107.401 369.715,107.863 371.200,108.025 371.200 C 108.187 371.200,108.643 372.100,109.039 373.200 C 109.434 374.300,109.882 375.200,110.033 375.200 C 110.185 375.200,110.608 375.830,110.973 376.600 C 111.339 377.370,111.809 378.000,112.019 378.000 C 112.228 378.000,112.400 378.233,112.400 378.517 C 112.400 379.115,115.637 382.400,116.226 382.400 C 116.444 382.400,116.895 382.719,117.229 383.109 C 117.563 383.499,118.638 384.076,119.618 384.392 C 120.598 384.708,121.529 385.154,121.686 385.383 C 122.078 385.955,134.330 385.948,134.715 385.375 C 134.872 385.142,136.215 384.627,137.700 384.231 C 139.185 383.835,140.400 383.373,140.400 383.204 C 140.400 383.036,141.480 382.494,142.800 382.000 C 144.120 381.506,145.200 380.939,145.200 380.739 C 145.200 380.539,145.515 380.262,145.900 380.124 C 146.285 379.986,147.434 379.272,148.454 378.537 C 149.473 377.802,150.465 377.200,150.657 377.200 C 150.850 377.200,151.232 376.840,151.507 376.400 C 151.782 375.960,152.204 375.600,152.445 375.600 C 153.119 375.600,160.196 368.109,161.891 365.600 C 162.263 365.050,162.804 364.358,163.093 364.062 C 163.382 363.766,163.889 363.001,164.220 362.362 C 164.550 361.723,164.975 361.200,165.165 361.200 C 165.354 361.200,165.808 360.570,166.173 359.800 C 166.539 359.030,166.965 358.400,167.121 358.400 C 167.277 358.400,167.646 357.856,167.940 357.191 C 168.234 356.526,168.729 355.728,169.039 355.418 C 169.670 354.787,171.154 352.269,172.408 349.700 C 172.864 348.765,173.369 348.000,173.531 348.000 C 173.692 348.000,174.173 347.100,174.600 346.000 C 175.027 344.900,175.503 344.000,175.657 344.000 C 175.812 344.000,176.146 343.370,176.400 342.600 C 177.285 339.918,177.780 340.959,178.723 347.486 C 179.223 350.944,179.770 353.869,179.938 353.986 C 180.106 354.104,180.567 355.730,180.962 357.600 C 181.357 359.470,181.805 361.090,181.957 361.200 C 182.109 361.310,182.556 362.795,182.951 364.500 C 183.345 366.205,183.789 367.600,183.937 367.600 C 184.205 367.600,184.732 369.105,185.580 372.300 C 185.828 373.235,186.165 374.000,186.328 374.000 C 186.492 374.000,186.867 374.820,187.163 375.822 C 187.459 376.824,187.907 377.859,188.158 378.122 C 188.409 378.385,188.953 379.365,189.368 380.300 C 189.782 381.235,190.279 382.000,190.471 382.000 C 190.663 382.000,190.993 382.455,191.204 383.010 C 191.415 383.566,191.861 384.125,192.194 384.253 C 192.527 384.381,192.800 384.654,192.800 384.859 C 192.800 385.544,194.350 387.465,198.284 391.658 C 200.265 393.768,204.714 397.200,205.469 397.200 C 205.739 397.200,206.104 397.444,206.280 397.742 C 208.043 400.731,224.103 400.571,227.364 397.533 C 227.797 397.130,228.319 396.800,228.525 396.800 C 229.732 396.800,237.845 387.188,238.569 384.900 C 238.726 384.405,238.982 384.000,239.139 384.000 C 239.296 384.000,239.773 383.100,240.200 382.000 C 240.627 380.900,241.099 380.000,241.249 380.000 C 241.399 380.000,241.713 379.450,241.947 378.779 C 242.364 377.584,244.000 377.617,244.000 378.821 C 244.000 379.036,244.630 379.513,245.400 379.881 C 246.170 380.248,246.800 380.705,246.800 380.897 C 246.800 381.088,247.610 381.603,248.600 382.041 C 249.590 382.479,250.400 382.997,250.400 383.192 C 250.400 383.387,250.805 383.672,251.300 383.826 C 251.795 383.979,252.650 384.419,253.200 384.804 C 253.750 385.188,255.280 385.835,256.600 386.241 C 257.920 386.646,259.094 387.108,259.209 387.266 C 260.238 388.680,274.000 388.568,274.000 387.145 C 274.000 386.955,274.287 386.800,274.638 386.800 C 275.436 386.800,277.692 385.569,278.120 384.900 C 278.296 384.625,278.632 384.400,278.867 384.400 C 279.387 384.400,282.400 381.349,282.400 380.822 C 282.400 380.615,282.715 380.210,283.100 379.923 C 283.485 379.635,284.158 378.680,284.596 377.800 C 285.034 376.920,285.525 376.102,285.687 375.982 C 286.032 375.727,287.600 370.946,287.600 370.148 C 287.600 369.847,287.745 369.600,287.922 369.600 C 288.249 369.600,289.600 363.235,289.600 361.699 C 289.600 361.241,289.825 360.792,290.100 360.700 C 290.731 360.489,290.746 344.868,290.115 344.459 C 289.895 344.317,289.595 343.030,289.448 341.600 C 289.032 337.547,288.298 333.020,288.021 332.800 C 287.883 332.690,287.351 330.395,286.839 327.700 C 286.327 325.005,285.794 322.800,285.654 322.799 C 285.514 322.799,285.060 321.359,284.646 319.599 C 284.231 317.840,283.706 316.400,283.479 316.400 C 283.252 316.400,283.180 316.286,283.319 316.148 C 283.654 315.812,286.400 317.129,286.400 317.625 C 286.400 317.838,287.030 318.313,287.800 318.681 C 288.570 319.048,289.200 319.486,289.200 319.655 C 289.200 319.824,289.869 320.280,290.687 320.668 C 291.504 321.056,292.494 321.694,292.887 322.087 C 293.279 322.479,293.836 322.800,294.125 322.800 C 294.413 322.800,295.002 323.129,295.434 323.531 C 295.865 323.933,296.979 324.598,297.909 325.008 C 298.839 325.418,299.600 325.859,299.600 325.987 C 299.600 326.116,300.408 326.576,301.396 327.010 C 302.384 327.445,303.194 327.917,303.196 328.060 C 303.198 328.203,304.100 328.643,305.200 329.039 C 306.300 329.434,307.200 329.888,307.200 330.046 C 307.200 330.205,308.370 330.724,309.800 331.200 C 311.230 331.676,312.400 332.191,312.400 332.345 C 312.400 332.499,313.255 332.867,314.300 333.163 C 315.345 333.459,316.623 333.964,317.140 334.285 C 318.095 334.880,324.568 335.964,327.300 335.987 C 328.125 335.994,328.800 336.180,328.800 336.400 C 328.800 336.647,330.867 336.800,334.200 336.800 C 337.533 336.800,339.600 336.647,339.600 336.400 C 339.600 336.180,340.059 336.000,340.621 336.000 C 342.011 336.000,347.352 334.771,347.600 334.394 C 347.710 334.227,348.475 333.809,349.300 333.465 C 350.125 333.122,350.800 332.652,350.800 332.420 C 350.800 332.189,351.025 332.000,351.300 332.000 C 352.132 331.999,355.809 328.212,356.588 326.553 C 356.990 325.699,357.447 324.910,357.605 324.800 C 359.538 323.453,359.589 303.432,357.663 302.005 C 357.511 301.892,357.154 300.900,356.870 299.800 C 356.586 298.700,356.108 297.305,355.808 296.700 C 355.169 295.413,354.883 295.522,360.722 294.824 C 362.769 294.580,364.749 294.210,365.122 294.003 C 365.495 293.795,366.970 293.343,368.400 292.997 C 369.830 292.652,371.060 292.196,371.133 291.984 C 371.207 291.773,371.516 291.600,371.820 291.600 C 372.636 291.600,375.350 290.278,375.720 289.700 C 375.896 289.425,376.282 289.200,376.577 289.200 C 377.314 289.200,382.800 284.049,382.800 283.357 C 382.800 283.051,382.965 282.800,383.167 282.800 C 383.369 282.800,383.854 281.945,384.246 280.900 C 384.638 279.855,385.148 278.871,385.379 278.714 C 386.023 278.277,385.947 265.516,385.300 265.300 C 385.025 265.208,384.800 264.899,384.800 264.613 C 384.800 263.903,383.500 259.849,383.192 259.600 C 383.056 259.490,382.520 258.500,382.000 257.400 C 381.480 256.300,380.933 255.310,380.783 255.200 C 380.634 255.090,380.212 254.415,379.846 253.700 C 379.479 252.985,379.048 252.400,378.887 252.400 C 378.727 252.400,378.365 251.881,378.085 251.246 C 377.804 250.611,377.265 249.725,376.887 249.276 C 376.509 248.828,375.750 247.870,375.200 247.147 C 374.208 245.844,371.706 243.378,369.400 241.429 C 368.740 240.872,367.834 240.097,367.386 239.708 C 365.411 237.991,362.088 235.600,361.677 235.600 C 361.430 235.600,361.035 235.240,360.800 234.800 C 360.565 234.360,360.153 234.000,359.886 234.000 C 359.619 233.999,358.883 233.555,358.252 233.012 C 357.621 232.469,356.586 231.795,355.952 231.515 C 355.318 231.234,354.800 230.885,354.800 230.738 C 354.800 230.591,353.945 230.059,352.900 229.554 C 351.855 229.050,350.651 228.314,350.225 227.918 C 349.798 227.523,349.226 227.200,348.953 227.200 C 348.680 227.200,348.219 226.974,347.929 226.697 C 347.638 226.421,346.637 225.836,345.705 225.397 C 344.772 224.959,344.007 224.479,344.005 224.331 C 344.002 224.183,343.371 223.854,342.602 223.601 C 341.018 223.078,341.469 221.999,343.271 222.001 C 344.735 222.003,354.578 220.310,354.800 220.019 C 354.910 219.874,356.530 219.434,358.400 219.040 C 360.270 218.646,361.980 218.177,362.200 217.997 C 362.420 217.818,363.770 217.369,365.199 216.999 C 366.628 216.629,367.888 216.202,367.999 216.050 C 368.110 215.898,369.595 215.343,371.300 214.817 C 373.005 214.290,374.400 213.719,374.400 213.548 C 374.400 213.376,375.025 213.119,375.788 212.976 C 376.552 212.833,377.998 212.194,379.002 211.558 C 380.006 210.921,380.993 210.400,381.194 210.400 C 381.395 210.400,381.704 210.154,381.880 209.854 C 382.056 209.554,382.785 209.009,383.500 208.644 C 384.215 208.278,384.800 207.833,384.800 207.654 C 384.800 207.475,385.229 207.133,385.753 206.894 C 386.765 206.433,387.646 205.677,391.796 201.712 C 393.228 200.343,394.400 199.048,394.400 198.834 C 394.400 198.620,394.718 198.210,395.108 197.923 C 395.497 197.635,396.262 196.545,396.807 195.500 C 397.352 194.455,397.926 193.600,398.082 193.600 C 398.920 193.600,400.000 187.930,399.995 183.557 C 399.988 176.157,398.850 173.361,393.800 168.328 C 390.377 164.916,390.144 164.719,388.426 163.764 C 387.671 163.344,386.726 162.685,386.326 162.300 C 385.927 161.915,385.343 161.600,385.029 161.600 C 384.714 161.600,384.210 161.353,383.909 161.052 C 383.153 160.295,380.970 159.200,380.220 159.200 C 379.879 159.200,379.600 159.040,379.600 158.843 C 379.600 158.647,379.151 158.374,378.601 158.236 C 377.496 157.959,377.812 156.804,379.300 155.682 C 379.685 155.392,380.000 154.904,380.000 154.597 C 380.000 154.291,380.239 153.896,380.531 153.720 C 380.823 153.544,381.498 152.590,382.031 151.600 C 382.564 150.610,383.114 149.710,383.254 149.600 C 383.766 149.196,385.858 144.947,386.404 143.200 C 386.713 142.210,387.085 141.310,387.229 141.200 C 388.631 140.133,388.603 126.000,387.199 126.000 C 387.039 126.000,386.595 125.179,386.212 124.176 C 385.829 123.173,385.129 121.930,384.658 121.414 C 384.186 120.898,383.602 120.234,383.360 119.938 C 383.118 119.642,382.250 118.860,381.431 118.200 C 380.612 117.540,379.577 116.693,379.130 116.317 C 378.683 115.942,377.706 115.433,376.959 115.186 C 376.212 114.940,375.600 114.597,375.600 114.425 C 375.600 114.110,370.606 112.400,369.689 112.400 C 369.420 112.400,369.200 112.245,369.200 112.055 C 369.200 111.866,367.265 111.401,364.900 111.023 C 362.535 110.644,360.240 110.135,359.800 109.890 C 358.757 109.310,346.268 109.397,346.071 109.986 C 345.995 110.214,345.373 110.400,344.689 110.400 C 342.811 110.400,333.829 111.668,333.600 111.965 C 333.490 112.108,331.156 112.632,328.413 113.130 C 325.670 113.628,323.330 114.167,323.213 114.329 C 323.096 114.491,321.650 114.963,320.000 115.378 C 318.350 115.794,316.875 116.323,316.722 116.555 C 316.569 116.787,316.326 116.860,316.183 116.716 C 315.844 116.377,317.196 113.952,318.100 113.277 C 318.485 112.990,318.800 112.555,318.800 112.311 C 318.800 112.067,319.074 111.582,319.410 111.234 C 320.244 110.367,321.832 107.899,322.857 105.877 C 323.325 104.955,323.856 104.104,324.038 103.986 C 324.220 103.868,324.648 103.103,324.990 102.286 C 325.331 101.469,325.770 100.800,325.965 100.800 C 326.160 100.800,326.643 99.900,327.039 98.800 C 327.434 97.700,327.878 96.800,328.025 96.800 C 328.171 96.800,328.618 95.945,329.017 94.900 C 329.416 93.855,329.950 92.793,330.204 92.538 C 330.459 92.284,330.983 91.069,331.370 89.838 C 331.758 88.607,332.209 87.600,332.374 87.600 C 332.539 87.600,332.900 86.835,333.178 85.900 C 333.455 84.965,334.021 83.450,334.436 82.533 C 334.873 81.566,335.396 78.922,335.682 76.233 C 335.952 73.685,336.315 71.600,336.487 71.600 C 336.659 71.600,336.800 69.080,336.800 66.000 C 336.800 62.920,336.661 60.400,336.490 60.400 C 336.320 60.400,335.967 59.057,335.706 57.416 C 335.237 54.471,333.129 49.200,332.419 49.200 C 332.218 49.200,331.948 48.866,331.818 48.458 C 331.507 47.476,328.811 44.800,328.133 44.800 C 327.840 44.800,327.600 44.611,327.600 44.380 C 327.600 44.148,326.925 43.678,326.100 43.335 C 325.275 42.991,324.508 42.565,324.396 42.387 C 323.190 40.475,305.068 40.490,302.600 42.404 C 302.380 42.574,301.030 43.010,299.600 43.373 C 298.170 43.735,296.940 44.204,296.867 44.416 C 296.611 45.152,295.614 44.794,295.432 43.900 C 295.331 43.405,295.048 41.295,294.804 39.211 C 294.559 37.127,294.214 35.327,294.037 35.211 C 293.860 35.095,293.585 34.280,293.425 33.400 C 293.007 31.104,292.253 28.800,291.918 28.800 C 291.760 28.800,291.445 28.108,291.217 27.263 C 290.989 26.418,290.442 25.310,290.002 24.802 C 289.561 24.293,289.200 23.637,289.200 23.342 C 289.200 23.048,288.840 22.582,288.400 22.307 C 287.960 22.032,287.600 21.604,287.600 21.355 C 287.600 20.964,286.608 20.003,283.063 16.959 C 282.658 16.611,281.488 16.044,280.463 15.699 C 279.438 15.355,278.472 14.876,278.315 14.636 C 277.940 14.064,266.486 14.036,266.085 14.606 C 265.928 14.830,264.541 15.340,263.002 15.741 C 261.463 16.143,260.113 16.617,260.002 16.796 C 259.891 16.976,258.810 17.588,257.600 18.158 C 255.187 19.293,252.713 20.729,252.400 21.175 C 252.290 21.332,251.570 21.807,250.800 22.230 C 250.030 22.654,249.165 23.315,248.877 23.700 C 248.590 24.085,248.089 24.400,247.765 24.400 C 247.440 24.400,247.066 24.684,246.933 25.031 C 246.800 25.377,246.261 25.825,245.735 26.025 C 245.210 26.224,244.665 26.706,244.526 27.094 C 244.386 27.482,243.491 28.562,242.536 29.493 C 241.581 30.425,240.800 31.357,240.800 31.564 C 240.800 31.772,240.350 32.296,239.800 32.729 C 239.250 33.161,238.800 33.644,238.800 33.802 C 238.800 33.960,238.110 34.924,237.267 35.944 C 236.424 36.965,235.620 38.115,235.480 38.500 C 235.340 38.885,235.039 39.200,234.813 39.200 C 234.586 39.200,234.400 39.401,234.400 39.646 C 234.400 39.892,233.770 40.951,233.000 42.000 C 232.230 43.049,231.600 44.099,231.600 44.334 C 231.600 44.568,231.353 44.904,231.052 45.080 C 230.751 45.256,230.100 46.199,229.606 47.175 C 229.112 48.151,228.458 49.199,228.154 49.503 C 227.849 49.808,227.600 50.280,227.600 50.553 C 227.600 50.826,227.277 51.398,226.881 51.825 C 226.486 52.251,225.840 53.409,225.445 54.399 C 225.050 55.388,224.596 56.288,224.436 56.399 C 224.275 56.509,223.851 57.320,223.492 58.200 C 223.009 59.388,222.836 59.568,222.821 58.900 C 222.809 58.405,222.620 58.000,222.400 58.000 C 222.180 58.000,222.000 57.483,222.000 56.850 C 222.000 55.149,220.367 45.833,220.028 45.600 C 219.868 45.490,219.436 43.881,219.068 42.023 C 218.700 40.166,218.237 38.546,218.039 38.423 C 217.841 38.301,217.455 37.062,217.182 35.671 C 216.908 34.280,216.484 32.930,216.238 32.671 C 215.993 32.412,215.375 30.762,214.866 29.005 C 214.356 27.247,213.801 25.717,213.633 25.605 C 213.464 25.492,212.996 24.500,212.592 23.400 C 212.188 22.300,211.529 20.922,211.128 20.338 C 210.728 19.754,210.400 19.086,210.400 18.852 C 210.400 18.619,210.040 18.235,209.600 18.000 C 209.160 17.765,208.800 17.351,208.800 17.082 C 208.800 16.812,208.173 15.873,207.408 14.996 C 206.642 14.118,206.012 13.297,206.008 13.172 C 205.997 12.857,201.666 8.184,199.901 6.582 C 198.417 5.235,194.923 2.800,194.475 2.800 C 194.245 2.800,193.805 2.547,193.496 2.239 C 191.453 0.196,181.123 -0.702,176.639 0.774 M187.221 13.464 C 191.711 15.656,199.044 24.334,201.531 30.400 C 212.615 57.430,214.136 86.821,205.692 110.806 C 204.389 114.507,204.544 114.545,202.019 109.907 C 199.724 105.691,198.049 101.619,194.735 92.200 C 193.187 87.800,191.758 83.840,191.558 83.400 C 191.359 82.960,190.595 80.530,189.859 78.000 C 186.883 67.761,185.889 75.377,187.850 93.400 C 189.109 104.968,192.470 119.166,195.269 124.737 C 197.161 128.503,197.162 128.473,195.153 128.323 C 193.533 128.202,193.494 128.162,192.824 126.000 C 191.633 122.159,189.987 118.386,187.699 114.252 C 184.395 108.285,183.532 106.204,178.727 92.622 C 173.413 77.603,172.102 73.674,171.442 70.800 C 170.693 67.536,169.716 67.576,169.537 70.878 C 168.649 87.269,174.218 117.348,180.044 127.630 C 180.931 129.195,181.599 130.534,181.528 130.606 C 180.510 131.624,179.250 131.152,178.659 129.532 C 178.312 128.579,177.373 126.000,176.572 123.800 C 175.771 121.600,173.906 117.370,172.427 114.400 C 170.789 111.110,168.369 105.093,166.233 99.000 C 164.305 93.500,162.401 88.100,162.002 87.000 C 157.803 75.427,153.286 61.975,152.634 59.100 C 152.497 58.495,152.118 58.000,151.792 58.000 C 150.747 58.000,151.279 75.160,152.592 83.800 C 155.581 103.472,160.885 121.928,165.751 129.595 C 167.498 132.346,167.358 132.476,164.719 130.548 C 142.097 114.021,126.605 85.493,122.826 53.400 C 121.243 39.958,125.573 26.204,131.832 24.793 C 138.117 23.375,148.074 29.890,160.273 43.400 C 163.947 47.469,163.852 47.467,164.807 43.515 C 170.374 20.474,178.705 9.305,187.221 13.464 M275.994 27.921 C 280.842 31.471,283.566 42.994,283.012 57.600 C 282.866 61.450,282.656 64.915,282.546 65.300 C 282.234 66.392,282.781 66.183,287.648 63.354 C 307.958 51.549,320.663 50.267,323.248 59.760 C 324.308 63.654,323.594 74.069,321.932 78.938 C 313.471 103.737,288.661 131.574,266.266 141.396 L 263.932 142.420 264.202 141.110 C 264.593 139.210,266.697 133.048,268.065 129.800 C 270.863 123.152,278.951 106.563,280.633 104.022 C 281.616 102.536,281.723 101.200,280.858 101.200 C 280.182 101.200,272.589 108.953,268.975 113.333 C 260.173 124.002,250.802 139.074,249.582 144.523 C 249.018 147.045,248.587 147.277,247.205 145.805 L 246.270 144.810 248.279 140.505 C 250.682 135.355,250.705 135.294,252.826 128.200 C 254.481 122.664,255.792 119.705,265.541 99.506 C 267.530 95.385,269.905 90.732,270.819 89.167 C 273.983 83.750,271.400 84.825,265.381 91.430 C 252.089 106.017,238.248 127.507,236.961 135.554 C 236.661 137.428,236.342 137.762,235.196 137.399 C 234.058 137.038,234.179 136.418,236.221 132.134 C 238.525 127.302,240.122 123.282,241.669 118.426 C 242.339 116.322,243.790 112.710,244.894 110.400 C 245.997 108.090,247.760 104.400,248.810 102.200 C 257.046 84.954,264.642 69.493,265.653 67.917 C 266.826 66.090,266.891 65.200,265.853 65.200 C 264.846 65.200,254.199 77.149,248.568 84.600 C 238.294 98.194,228.035 116.307,226.215 124.066 C 225.240 128.220,225.183 128.400,224.826 128.400 C 223.442 128.400,222.948 106.429,224.147 98.200 C 227.183 77.376,238.798 52.729,252.731 37.543 C 259.614 30.041,271.932 24.946,275.994 27.921 M72.620 76.828 C 88.009 78.969,113.872 96.044,128.616 113.800 C 133.879 120.138,143.404 136.012,141.932 135.993 C 139.951 135.968,131.950 133.210,126.000 130.502 C 122.069 128.713,106.252 120.884,104.326 119.774 C 102.598 118.778,101.200 118.670,101.200 119.531 C 101.200 120.175,110.910 129.334,115.400 132.926 C 125.090 140.677,138.051 148.620,143.914 150.401 C 147.142 151.382,147.128 151.364,145.844 152.933 L 144.917 154.067 141.358 152.296 C 137.554 150.403,134.611 149.313,127.019 146.989 C 124.213 146.130,119.006 143.987,114.419 141.803 C 97.924 133.951,90.795 130.421,88.615 129.027 C 86.442 127.637,85.600 127.498,85.600 128.531 C 85.600 129.118,92.591 136.036,97.000 139.812 C 101.788 143.913,108.349 148.681,114.400 152.458 C 126.841 160.224,130.691 162.206,135.300 163.221 C 137.664 163.741,137.982 164.124,137.079 165.359 C 136.589 166.030,136.412 166.000,133.979 164.818 C 129.318 162.553,124.038 160.406,119.126 158.775 C 114.338 157.186,113.250 156.708,101.200 150.892 C 97.790 149.247,93.200 147.045,91.000 146.000 C 75.439 138.607,69.203 135.503,67.250 134.175 C 66.489 133.658,65.716 133.328,65.533 133.441 C 62.935 135.047,86.605 154.319,102.600 163.622 C 116.035 171.436,118.877 172.771,125.600 174.427 C 129.324 175.344,129.368 175.369,127.800 175.649 C 99.900 180.629,69.540 172.100,42.800 151.770 C 32.906 144.249,26.032 133.413,27.002 126.869 C 27.997 120.150,41.040 116.295,59.221 117.346 C 62.739 117.550,65.723 117.610,65.852 117.481 C 65.981 117.352,64.650 114.761,62.894 111.723 C 51.121 91.362,50.345 78.378,60.800 76.682 C 62.930 76.337,69.686 76.420,72.620 76.828 M359.648 122.997 C 368.028 124.490,373.870 127.474,375.175 130.926 C 377.367 136.729,371.006 147.297,358.400 158.794 C 355.650 161.302,353.347 163.478,353.282 163.630 C 353.218 163.781,354.478 164.225,356.082 164.615 C 381.079 170.695,391.924 179.456,385.824 188.643 C 373.978 206.484,329.000 216.429,297.600 208.151 C 292.433 206.788,286.400 204.796,286.400 204.452 C 286.400 202.817,305.999 194.839,321.600 190.123 C 324.130 189.358,326.425 188.663,326.700 188.579 C 326.975 188.494,327.200 188.164,327.200 187.844 C 327.200 185.895,306.479 187.157,294.409 189.843 C 280.863 192.856,276.737 194.126,273.635 196.235 L 272.200 197.211 271.895 195.752 C 271.597 194.325,272.025 193.200,272.866 193.200 C 274.042 193.200,281.764 189.921,286.376 187.464 C 294.251 183.268,319.173 174.043,330.326 171.196 C 337.355 169.401,317.877 169.179,306.284 170.922 C 292.683 172.966,277.244 177.179,272.182 180.228 C 269.776 181.677,269.023 181.618,269.266 180.000 C 269.377 179.261,270.123 178.850,273.600 177.610 C 279.679 175.442,281.360 174.726,287.072 171.868 C 289.892 170.456,295.620 168.124,299.800 166.685 C 303.980 165.246,311.540 162.594,316.600 160.790 C 327.071 157.059,339.174 153.019,341.100 152.611 C 344.581 151.875,342.468 151.200,336.700 151.205 C 315.208 151.223,283.492 158.053,271.542 165.235 C 267.725 167.529,267.689 167.539,268.618 166.100 C 274.289 157.308,287.637 145.199,299.000 138.538 C 317.653 127.604,345.481 120.473,359.648 122.997 M211.200 147.929 C 249.101 156.042,266.035 200.986,242.868 231.979 C 219.422 263.344,170.901 259.505,152.881 224.859 C 136.261 192.906,155.741 153.221,190.800 147.608 C 192.450 147.344,194.070 147.064,194.400 146.985 C 196.260 146.542,207.731 147.187,211.200 147.929 M83.620 189.223 C 95.800 190.181,113.600 194.084,113.600 195.796 C 113.600 196.031,111.845 197.146,109.700 198.274 C 105.056 200.716,101.477 202.189,90.600 206.137 C 86.357 207.677,75.970 211.059,74.500 211.380 C 73.550 211.587,73.200 211.884,73.200 212.480 C 73.200 213.610,87.507 213.342,96.400 212.044 C 107.211 210.467,119.724 207.350,124.382 205.074 C 126.262 204.155,127.935 203.343,128.100 203.269 C 128.265 203.194,128.400 203.930,128.400 204.903 C 128.400 206.641,128.369 206.682,126.700 207.169 C 123.216 208.184,117.963 210.436,113.945 212.638 C 108.452 215.648,105.522 216.962,100.000 218.896 C 97.470 219.782,92.340 221.582,88.600 222.897 C 82.608 225.003,72.439 228.344,69.604 229.138 C 69.056 229.291,68.548 229.728,68.475 230.108 C 68.202 231.524,83.211 230.906,95.660 228.989 C 108.048 227.082,123.033 222.928,127.919 220.048 C 130.442 218.560,130.638 218.537,130.940 219.693 C 131.258 220.907,131.287 220.890,125.400 223.004 C 122.540 224.031,117.770 226.087,114.800 227.573 C 111.830 229.059,108.140 230.728,106.600 231.282 C 100.988 233.302,96.763 234.795,84.800 238.984 C 78.090 241.334,70.312 244.059,67.517 245.039 C 64.721 246.018,61.436 247.020,60.217 247.265 C 58.481 247.614,58.000 247.872,58.000 248.455 C 58.000 249.142,58.383 249.199,62.900 249.187 C 73.384 249.158,89.234 247.149,100.800 244.384 C 116.827 240.552,124.345 237.932,129.900 234.241 C 132.596 232.450,132.543 232.799,129.505 236.863 C 112.900 259.069,82.418 274.819,50.671 277.595 C 41.027 278.438,29.138 275.161,25.905 270.768 C 22.062 265.546,26.791 256.200,39.681 243.544 C 43.633 239.664,46.708 236.391,46.514 236.271 C 46.320 236.151,44.010 235.509,41.381 234.844 C 23.732 230.382,12.400 223.278,12.400 216.677 C 12.400 213.244,17.255 207.136,23.734 202.417 C 33.032 195.645,56.862 189.534,76.620 188.856 C 77.511 188.825,80.661 188.990,83.620 189.223 M298.711 223.817 C 319.920 226.041,342.511 235.961,360.600 250.995 C 368.447 257.517,374.165 268.133,373.045 274.101 C 371.902 280.192,357.684 283.972,339.869 282.921 C 336.828 282.741,334.279 282.654,334.207 282.726 C 334.135 282.799,335.440 285.230,337.107 288.129 C 352.085 314.166,349.955 325.176,330.248 323.583 C 311.849 322.095,282.890 302.500,267.710 281.268 C 263.803 275.804,258.000 265.633,258.000 264.250 C 258.000 262.831,271.676 268.266,286.000 275.378 C 290.510 277.617,295.050 279.947,296.088 280.555 C 297.941 281.641,298.800 281.666,298.800 280.633 C 298.800 279.899,289.738 271.191,285.199 267.564 C 274.841 259.285,260.732 250.758,255.428 249.571 C 252.882 249.001,252.878 248.995,254.236 247.451 L 255.247 246.301 259.123 248.108 C 263.310 250.059,265.255 250.769,272.518 252.991 C 277.374 254.477,281.568 256.306,295.400 262.968 C 304.980 267.583,309.973 270.121,312.047 271.430 C 318.348 275.407,311.868 267.599,302.200 259.563 C 289.714 249.185,270.737 237.779,264.544 236.930 C 262.513 236.652,262.192 236.336,262.796 235.208 C 263.394 234.090,263.390 234.089,269.738 236.964 C 272.852 238.375,277.850 240.351,280.845 241.356 C 283.839 242.361,289.689 244.827,293.845 246.836 C 298.000 248.846,303.020 251.251,305.000 252.183 C 315.800 257.262,328.588 263.541,331.329 265.111 C 342.615 271.576,324.677 254.557,308.600 243.547 C 294.986 234.223,281.966 227.422,274.657 225.817 C 270.547 224.914,271.070 224.541,277.412 223.852 C 284.442 223.089,291.649 223.077,298.711 223.817 M152.896 254.300 L 153.942 255.400 152.003 259.445 C 150.937 261.669,149.488 265.359,148.784 267.645 C 145.477 278.381,145.713 277.811,137.608 294.600 C 133.142 303.851,130.337 309.400,128.877 311.873 C 127.819 313.664,127.733 314.012,128.241 314.434 C 128.993 315.058,133.441 310.668,140.638 302.199 C 150.271 290.864,161.740 271.860,163.242 264.746 C 163.783 262.180,164.203 261.972,165.927 263.415 C 165.997 263.473,164.949 265.924,163.599 268.861 C 162.248 271.797,160.180 276.990,159.003 280.400 C 157.826 283.810,155.389 289.660,153.589 293.400 C 151.788 297.140,148.464 304.070,146.203 308.800 C 138.950 323.971,136.089 329.747,134.676 332.068 C 133.728 333.628,133.426 334.466,133.710 334.750 C 134.381 335.421,135.228 334.721,139.926 329.609 C 155.623 312.531,171.389 287.467,174.372 274.851 C 175.087 271.828,175.600 270.411,175.600 271.459 C 175.600 271.674,175.873 273.909,176.206 276.425 C 179.963 304.780,169.346 337.231,148.320 361.660 C 143.013 367.827,133.467 373.200,127.817 373.200 C 120.327 373.200,116.270 360.420,117.373 340.300 C 117.759 333.259,118.258 333.516,111.671 337.356 C 87.309 351.558,75.765 349.935,76.531 332.416 C 76.900 323.982,77.963 320.479,83.329 310.024 C 92.479 292.196,104.817 277.704,120.000 266.949 C 124.968 263.430,135.392 257.658,135.886 258.153 C 137.167 259.433,126.253 284.870,119.420 296.529 C 116.520 301.478,121.324 298.153,127.925 290.643 C 135.364 282.178,140.080 275.597,146.442 264.800 C 149.522 259.575,149.684 259.206,150.793 254.900 C 151.308 252.900,151.510 252.842,152.896 254.300 M236.747 270.593 C 259.420 287.846,274.780 317.563,277.583 349.597 C 278.335 358.188,275.954 368.347,272.098 373.000 C 266.753 379.450,254.831 373.418,239.706 356.610 L 236.475 353.019 235.873 355.210 C 231.225 372.131,228.564 378.284,223.511 383.800 C 214.325 393.827,201.460 382.066,194.185 356.990 C 187.375 333.522,187.332 312.033,194.051 290.800 C 194.712 288.710,195.393 286.857,195.564 286.683 C 196.622 285.601,201.900 297.248,206.583 311.000 C 207.407 313.420,208.246 315.760,208.447 316.200 C 208.844 317.070,210.106 321.233,211.089 324.919 C 211.552 326.655,211.870 327.206,212.354 327.111 C 214.255 326.739,212.784 305.111,210.016 292.737 C 207.246 280.359,206.036 276.549,203.895 273.477 C 202.956 272.129,203.036 272.018,205.018 271.895 C 206.412 271.809,206.597 271.915,206.950 273.000 C 208.337 277.261,210.734 282.813,212.821 286.600 C 215.852 292.101,217.066 295.036,221.176 306.800 C 222.982 311.970,224.792 317.100,225.197 318.200 C 226.192 320.897,228.247 327.338,228.898 329.800 C 230.444 335.648,231.331 327.634,230.402 316.200 C 229.103 300.193,223.964 278.514,219.980 272.232 C 218.634 270.111,218.674 269.200,220.113 269.200 C 220.915 269.200,221.187 269.595,221.972 271.900 C 223.781 277.206,224.900 279.884,227.779 285.800 C 229.444 289.222,232.019 295.581,233.771 300.600 C 235.461 305.440,238.716 314.710,241.006 321.200 C 245.110 332.833,246.842 338.053,247.510 340.800 C 249.154 347.556,249.517 333.086,248.022 320.400 C 245.630 300.095,238.767 275.546,233.821 269.600 C 232.019 267.434,233.061 267.788,236.747 270.593 " stroke="none" fill="#251d24" fill-rule="evenodd"></path>
  </g>
</svg>
