<?xml version="1.0" encoding="UTF-8"?>
<svg xmlns="http://www.w3.org/2000/svg" xmlns:xlink="http://www.w3.org/1999/xlink" id="svg" version="1.1" width="400" height="401.35021097046416" viewBox="0, 0, 400,401.35021097046416" preserveAspectRatio="none">
  <g id="svgg">
    <path id="path0" d="M167.520 1.010 C 162.767 3.406,158.960 10.591,157.148 20.591 C 156.828 22.354,156.503 24.002,156.425 24.252 C 156.334 24.542,155.293 23.776,153.567 22.152 C 142.629 11.863,131.930 17.052,130.786 33.199 C 130.454 37.875,130.561 37.743,128.513 36.021 C 113.401 23.310,101.266 29.676,103.556 49.114 C 103.938 52.362,104.129 52.108,101.934 51.274 C 95.082 48.671,90.178 51.571,89.851 58.420 L 89.707 61.424 88.313 60.559 C 61.915 44.172,47.353 54.566,59.764 80.937 L 61.396 84.406 59.643 84.214 C 58.679 84.108,57.283 83.950,56.540 83.862 C 43.155 82.282,38.482 93.953,47.071 107.511 L 48.568 109.873 42.934 110.086 C 25.069 110.758,21.433 121.097,33.996 135.501 L 35.760 137.524 33.998 137.973 C 26.424 139.904,24.271 145.610,28.727 151.938 L 29.349 152.821 25.729 153.221 C -5.098 156.633,-9.108 173.232,17.553 187.066 L 20.422 188.555 17.570 190.227 C 3.782 198.311,6.801 209.685,24.564 216.580 C 25.265 216.852,25.092 217.034,22.538 218.710 C 6.387 229.311,9.896 243.317,29.439 246.248 L 31.001 246.482 29.522 248.389 C 25.375 253.737,26.486 259.449,32.126 261.782 L 33.635 262.406 30.742 265.018 C 7.383 286.104,15.287 301.984,46.443 296.566 C 47.819 296.327,48.945 296.190,48.945 296.262 C 48.945 296.335,48.544 297.186,48.053 298.155 C 43.535 307.068,44.619 314.451,50.898 317.534 C 53.472 318.798,61.789 318.896,66.328 317.717 C 69.590 316.869,69.387 316.629,68.134 319.849 C 61.203 337.659,70.434 346.543,88.120 339.084 C 89.677 338.427,90.974 337.890,91.004 337.890 C 91.034 337.890,91.125 339.295,91.205 341.013 C 91.488 347.047,94.786 350.210,100.044 349.489 L 101.538 349.284 101.048 351.604 C 94.533 382.440,108.831 391.079,131.001 369.704 C 134.756 366.084,135.021 365.892,135.026 366.796 C 135.035 368.866,136.391 374.208,137.499 376.540 C 141.989 385.996,150.148 385.999,159.526 376.548 L 163.609 372.433 164.516 375.668 C 169.505 393.474,182.348 395.138,191.682 379.188 L 193.491 376.097 194.891 378.143 C 198.185 382.957,203.581 384.154,207.064 380.844 L 208.052 379.904 210.140 384.129 C 221.003 406.111,234.865 407.579,241.307 387.431 C 242.329 384.233,244.045 375.892,244.056 374.070 C 244.067 372.144,244.520 372.266,247.104 374.892 C 259.796 387.791,272.052 382.095,272.066 363.291 C 272.068 361.137,271.935 361.140,274.513 363.236 C 289.350 375.298,300.742 369.502,299.117 350.717 C 298.758 346.577,298.672 346.828,300.227 347.478 C 305.988 349.885,312.574 347.329,312.574 342.686 C 312.574 341.542,312.952 341.618,316.748 343.522 C 341.858 356.117,352.240 344.862,339.493 318.862 C 337.160 314.104,336.952 313.529,337.632 313.717 C 357.502 319.232,366.224 307.846,355.188 290.798 L 353.875 288.770 357.536 288.895 C 376.603 289.548,381.616 278.290,368.802 263.597 L 366.952 261.476 369.324 260.724 C 375.177 258.869,377.589 254.428,375.383 249.571 L 374.748 248.171 376.657 247.937 C 405.636 244.390,408.306 227.753,382.074 214.186 L 378.055 212.107 380.564 211.004 C 398.087 203.304,397.962 190.544,380.293 183.256 L 377.282 182.014 378.768 181.082 C 396.153 170.183,393.488 155.600,373.586 152.729 C 371.669 152.452,371.659 152.400,373.165 150.512 C 377.181 145.478,376.233 139.849,370.954 137.376 L 369.288 136.596 372.592 133.192 C 391.203 114.019,383.555 100.511,356.315 104.446 C 351.864 105.089,352.120 105.360,353.931 101.924 C 362.403 85.853,354.406 76.693,335.933 81.308 C 333.724 81.860,333.491 81.868,333.684 81.384 C 341.638 61.431,333.457 52.175,314.613 59.804 C 312.857 60.515,311.414 61.097,311.407 61.098 C 311.399 61.098,311.443 60.117,311.505 58.918 C 311.868 51.889,307.353 48.030,300.806 49.773 L 298.996 50.254 299.213 49.178 C 305.130 19.862,291.133 10.567,270.713 30.252 L 267.760 33.099 267.357 30.343 C 264.762 12.597,252.611 10.299,240.284 25.224 L 239.105 26.650 238.189 23.367 C 233.075 5.051,220.635 3.611,210.676 20.182 C 209.174 22.680,209.006 22.849,208.697 22.173 C 205.358 14.872,197.458 14.314,192.946 21.060 C 192.463 21.782,192.068 22.193,192.068 21.974 C 192.068 21.147,187.871 13.200,185.722 9.958 C 179.906 1.183,173.463 -1.984,167.520 1.010 M174.380 8.048 C 178.484 11.039,182.956 18.176,186.813 27.888 L 188.437 31.978 187.386 36.327 C 185.436 44.396,183.640 57.185,183.124 66.667 C 182.761 73.355,182.835 73.321,180.619 67.807 C 175.926 56.129,169.764 43.840,164.814 36.287 L 162.601 32.911 163.005 29.367 C 164.838 13.255,169.510 4.499,174.380 8.048 M227.255 17.131 C 229.483 19.422,231.536 24.942,232.750 31.907 L 233.340 35.291 231.388 38.658 C 228.307 43.971,222.826 55.328,220.249 61.740 L 217.890 67.607 217.641 64.268 C 216.938 54.836,215.378 44.151,213.613 36.684 L 212.590 32.355 213.670 29.933 C 218.515 19.067,224.057 13.844,227.255 17.131 M257.098 23.112 C 263.264 27.431,261.516 56.496,253.333 85.738 C 249.288 100.194,248.446 102.234,243.301 110.042 C 238.374 117.521,234.075 124.707,230.810 130.926 C 229.676 133.086,228.707 134.906,228.658 134.971 C 228.609 135.036,227.001 134.531,225.086 133.850 C 223.170 133.169,220.236 132.255,218.565 131.819 C 216.100 131.175,215.534 130.909,215.561 130.407 C 215.579 130.067,215.918 127.359,216.314 124.388 C 217.516 115.372,218.076 107.654,218.274 97.384 L 218.463 87.595 220.933 80.169 C 232.054 46.725,250.119 18.224,257.098 23.112 M201.423 24.388 C 205.289 28.598,208.698 43.639,210.662 65.148 C 212.050 80.346,211.241 110.172,209.017 125.738 L 208.439 129.789 203.207 129.694 C 200.329 129.642,196.788 129.726,195.338 129.881 C 192.179 130.218,192.590 130.811,191.748 124.705 C 186.811 88.906,190.308 38.936,198.688 25.539 C 200.007 23.430,200.394 23.267,201.423 24.388 M145.674 25.167 C 156.030 31.370,170.031 56.523,180.144 87.089 L 182.322 93.671 182.638 100.928 C 183.094 111.408,183.994 121.315,185.132 128.386 C 185.601 131.298,185.565 131.646,184.794 131.646 C 184.116 131.646,178.228 133.542,175.099 134.769 C 173.657 135.334,172.429 135.736,172.371 135.662 C 172.312 135.588,171.264 133.611,170.041 131.269 C 165.867 123.273,158.497 111.446,152.082 102.450 C 149.203 98.413,148.650 97.074,145.661 86.920 C 138.000 60.889,135.464 36.251,139.483 26.908 C 140.848 23.735,142.505 23.269,145.674 25.167 M291.282 27.727 C 294.276 30.516,293.996 41.710,290.616 54.397 C 290.352 55.385,289.565 56.231,286.635 58.675 C 280.191 64.050,270.511 74.119,263.158 83.095 C 261.839 84.704,260.735 85.995,260.704 85.964 C 260.673 85.933,261.240 83.570,261.964 80.713 C 265.086 68.397,267.679 52.445,267.679 45.563 L 267.679 43.602 271.951 39.168 C 281.092 29.680,288.605 25.233,291.282 27.727 M118.251 37.775 C 121.142 39.243,124.539 41.847,127.979 45.232 L 130.895 48.101 131.102 50.970 C 131.547 57.171,133.600 68.643,135.892 77.744 C 136.543 80.330,137.031 82.488,136.977 82.540 C 136.922 82.592,135.435 80.948,133.671 78.887 C 129.112 73.559,119.803 64.104,115.648 60.582 L 112.112 57.584 111.583 54.699 C 109.970 45.919,110.292 39.244,112.431 37.105 C 113.412 36.124,115.465 36.361,118.251 37.775 M304.292 57.330 C 306.751 68.526,279.285 113.947,253.090 142.002 L 247.991 147.464 245.599 145.510 C 243.004 143.390,238.658 140.360,236.374 139.079 L 234.942 138.275 237.312 133.746 C 254.616 100.675,291.615 57.666,303.855 56.395 C 303.980 56.382,304.176 56.803,304.292 57.330 M101.324 58.943 C 116.589 66.558,146.952 103.238,163.668 134.256 C 166.532 139.570,166.479 138.985,164.217 140.354 C 161.666 141.898,157.165 145.269,155.166 147.134 L 153.496 148.692 149.798 144.810 C 123.651 117.364,96.878 74.089,96.878 59.275 C 96.878 57.010,97.376 56.973,101.324 58.943 M71.718 60.831 C 75.090 61.730,83.650 65.992,88.727 69.300 L 92.559 71.797 94.216 75.814 C 97.403 83.539,103.272 94.513,109.055 103.562 C 110.526 105.864,111.730 107.800,111.730 107.864 C 111.730 107.929,109.869 106.802,107.595 105.360 C 96.208 98.141,81.260 90.549,73.306 87.943 C 69.180 86.592,61.259 68.757,62.283 63.122 C 62.905 59.694,65.287 59.116,71.718 60.831 M327.931 64.619 C 330.757 65.800,329.781 72.815,325.566 81.616 L 323.741 85.425 321.786 86.301 C 313.188 90.152,305.148 94.431,297.222 99.376 C 294.813 100.880,292.728 102.159,292.589 102.220 C 292.450 102.280,293.318 100.728,294.516 98.770 C 299.598 90.470,303.162 83.697,306.525 75.952 L 308.795 70.723 312.119 68.950 C 319.395 65.067,325.199 63.478,327.931 64.619 M348.902 88.071 C 354.485 91.476,341.444 110.846,321.857 128.243 C 306.217 142.134,297.559 148.222,288.945 151.384 C 281.325 154.182,273.283 157.564,266.359 160.884 C 263.497 162.256,261.130 163.340,261.098 163.293 C 257.836 158.469,256.556 156.703,254.918 154.768 L 252.917 152.405 256.347 148.847 C 262.947 142.000,272.476 130.646,278.759 122.142 C 281.366 118.613,282.550 117.632,291.814 111.324 C 316.791 94.316,342.182 83.974,348.902 88.071 M61.530 91.834 C 73.447 94.262,92.086 103.327,110.294 115.550 C 116.906 119.989,123.612 124.908,124.527 125.991 C 124.881 126.409,126.987 129.030,129.207 131.814 C 134.848 138.889,139.202 143.890,144.262 149.106 L 148.609 153.587 147.719 154.684 C 146.120 156.655,142.216 162.163,141.418 163.575 L 140.637 164.957 134.875 162.167 C 125.949 157.844,115.848 153.780,104.202 149.823 L 99.880 148.354 93.062 143.251 C 69.401 125.538,52.095 106.638,49.883 96.096 C 48.890 91.362,52.583 90.011,61.530 91.834 M372.442 111.754 C 374.747 112.549,375.812 113.846,375.613 115.614 C 375.159 119.635,369.704 126.791,362.395 132.952 L 359.662 135.256 354.093 135.646 C 344.565 136.314,332.299 138.431,320.914 141.373 C 317.128 142.352,316.067 142.529,316.526 142.106 C 316.858 141.799,319.104 139.890,321.515 137.863 C 329.900 130.813,337.298 123.558,344.135 115.679 L 345.823 113.734 350.717 112.738 C 359.184 111.015,369.014 110.570,372.442 111.754 M50.669 117.669 L 54.817 118.207 61.079 124.646 C 66.989 130.721,73.284 136.585,78.374 140.756 C 81.171 143.048,81.275 142.997,76.252 141.804 C 67.337 139.686,57.487 138.031,50.014 137.395 L 45.852 137.041 43.770 135.196 C 37.626 129.752,33.081 122.663,34.068 120.064 C 35.053 117.474,41.736 116.510,50.669 117.669 M363.520 142.802 C 369.390 143.538,369.601 144.186,365.292 148.251 C 351.674 161.098,302.142 180.139,271.055 184.477 L 269.536 184.689 268.602 181.094 C 268.088 179.117,266.976 175.750,266.130 173.612 C 265.284 171.474,264.652 169.666,264.724 169.594 C 264.796 169.522,267.199 168.334,270.065 166.954 C 300.721 152.194,345.705 140.568,363.520 142.802 M54.580 144.961 C 78.013 147.977,109.732 157.711,132.761 168.954 C 136.504 170.781,137.376 171.337,137.188 171.775 C 136.249 173.968,133.986 180.904,133.486 183.122 C 132.686 186.671,133.075 186.515,127.547 185.505 C 92.191 179.043,49.110 161.982,36.204 149.330 C 33.366 146.549,33.133 145.743,34.988 145.131 C 38.241 144.057,46.970 143.981,54.580 144.961 M186.693 157.611 C 189.006 159.925,187.418 163.713,184.135 163.713 C 181.906 163.713,180.591 162.398,180.591 160.169 C 180.591 157.940,181.906 156.624,184.135 156.624 C 185.421 156.624,185.885 156.803,186.693 157.611 M369.671 159.307 C 377.718 160.688,383.460 163.382,383.460 165.778 C 383.460 168.616,378.108 173.389,369.926 177.847 L 367.363 179.244 363.681 178.419 C 356.747 176.867,348.261 175.732,335.112 174.600 L 332.164 174.346 337.643 172.021 C 346.165 168.406,357.219 162.777,361.683 159.780 C 363.685 158.436,364.362 158.396,369.671 159.307 M42.299 162.570 C 49.700 167.064,62.523 173.175,72.396 176.912 L 75.425 178.059 71.552 178.293 C 58.261 179.097,43.835 181.285,33.886 184.005 L 30.134 185.030 25.979 183.144 C 14.808 178.072,7.089 172.047,7.089 168.399 C 7.089 164.101,20.337 159.982,35.042 159.708 L 37.510 159.662 42.299 162.570 M158.559 170.345 C 163.284 173.873,160.437 181.290,154.688 180.428 C 149.599 179.664,148.342 172.571,152.860 170.113 C 154.433 169.257,157.256 169.372,158.559 170.345 M339.916 182.102 C 368.667 184.735,389.302 192.079,385.984 198.496 C 381.690 206.800,348.629 214.008,314.841 214.008 L 307.393 214.008 301.322 212.298 C 291.412 209.506,279.897 206.911,272.236 205.742 L 270.886 205.536 270.886 198.618 C 270.886 191.973,270.913 191.695,271.561 191.559 C 271.932 191.481,274.439 191.027,277.131 190.550 C 286.024 188.973,301.997 184.887,310.717 181.958 C 313.231 181.114,330.031 181.197,339.916 182.102 M100.892 186.480 C 110.693 189.272,123.645 192.230,129.155 192.935 C 131.705 193.261,131.582 192.899,131.704 200.410 L 131.814 207.226 129.451 207.612 C 119.180 209.292,105.491 212.659,92.844 216.617 L 88.980 217.826 79.511 217.608 C 42.329 216.751,11.517 208.126,16.833 200.063 C 20.926 193.855,41.385 187.933,65.992 185.833 C 74.149 185.136,74.663 185.116,85.871 185.043 L 95.624 184.979 100.892 186.480 M182.042 187.125 C 191.577 191.790,189.596 206.284,179.154 208.254 C 165.448 210.841,160.350 190.792,173.612 186.457 C 175.873 185.718,179.802 186.029,182.042 187.125 M274.793 213.342 C 311.932 219.924,361.104 240.126,368.347 251.777 C 371.905 257.501,342.328 254.722,314.439 246.713 C 295.430 241.254,264.838 229.066,265.441 227.191 C 265.534 226.903,266.286 224.768,267.113 222.447 C 267.940 220.127,268.898 216.975,269.242 215.443 C 269.965 212.222,269.491 212.402,274.793 213.342 M133.867 217.384 C 134.777 220.798,136.533 225.834,137.422 227.581 C 137.772 228.270,138.059 228.926,138.059 229.040 C 138.059 229.153,135.439 230.507,132.236 232.048 C 103.307 245.975,64.140 256.570,43.207 256.130 C 34.233 255.942,33.139 255.445,35.402 252.581 C 44.550 241.009,89.468 222.486,125.263 215.525 C 133.346 213.954,132.929 213.863,133.867 217.384 M370.230 216.572 C 383.432 222.033,392.911 228.978,392.911 233.190 C 392.911 236.714,384.887 239.856,372.548 241.163 L 368.218 241.621 365.628 239.760 C 358.530 234.660,345.982 228.280,332.152 222.741 C 328.595 221.316,327.550 220.778,328.328 220.770 C 335.953 220.695,355.651 218.127,363.307 216.210 C 367.333 215.201,366.854 215.176,370.230 216.572 M41.016 220.895 C 46.858 222.101,53.608 223.042,60.759 223.648 C 64.194 223.939,67.741 224.281,68.642 224.409 L 70.281 224.641 65.098 226.822 C 58.334 229.669,47.793 234.935,42.722 238.002 L 38.693 240.438 34.621 239.842 C 22.508 238.067,17.474 234.816,20.195 230.526 C 22.443 226.981,33.745 219.436,36.118 219.896 C 36.582 219.985,38.786 220.435,41.016 220.895 M159.688 222.421 C 162.202 224.935,159.802 229.344,156.301 228.644 C 152.162 227.816,152.896 221.435,157.131 221.435 C 158.417 221.435,158.881 221.613,159.688 222.421 M202.132 226.248 C 210.081 231.509,203.222 243.898,194.585 239.876 C 188.628 237.102,188.535 228.991,194.424 225.788 C 196.288 224.774,200.263 225.011,202.132 226.248 M274.262 239.750 C 280.930 242.694,289.156 245.884,297.059 248.590 C 314.493 254.559,350.748 290.136,352.909 303.395 C 355.029 316.403,313.658 300.264,281.013 275.348 C 279.311 274.048,277.278 271.838,273.743 267.442 C 267.355 259.496,263.422 254.990,258.248 249.689 C 255.145 246.510,254.118 245.254,254.358 244.931 C 254.537 244.690,255.758 243.064,257.071 241.318 C 258.384 239.572,260.034 237.201,260.737 236.050 L 262.017 233.956 265.270 235.586 C 267.059 236.483,271.105 238.356,274.262 239.750 M143.608 238.642 C 144.711 240.298,146.534 242.744,147.659 244.078 L 149.705 246.504 145.955 250.425 C 138.793 257.916,132.566 265.299,125.305 274.911 C 120.553 281.200,113.790 286.363,97.890 295.839 C 76.217 308.755,54.828 315.274,52.622 309.637 C 49.227 300.963,74.607 272.827,105.358 251.173 C 106.240 250.552,110.126 248.862,114.303 247.285 C 123.273 243.896,129.928 241.072,136.203 237.990 C 142.006 235.140,141.229 235.071,143.608 238.642 M253.612 254.937 C 279.308 282.201,305.284 324.136,305.606 338.875 C 305.664 341.569,305.192 341.799,302.315 340.482 C 287.087 333.511,256.370 296.798,239.114 264.946 C 236.104 259.389,235.974 260.207,240.338 257.270 C 242.287 255.959,245.021 253.899,246.414 252.694 C 249.552 249.977,248.683 249.706,253.612 254.937 M159.831 255.503 C 161.502 256.759,163.963 258.437,165.300 259.232 L 167.730 260.677 165.826 264.262 C 148.769 296.385,117.216 334.408,101.736 341.495 C 98.818 342.830,98.383 342.598,98.463 339.747 C 98.883 324.769,126.022 281.235,151.300 254.991 L 154.675 251.487 155.734 252.353 C 156.317 252.830,158.160 254.247,159.831 255.503 M333.165 258.554 C 341.181 260.185,348.133 261.211,353.101 261.495 L 356.829 261.709 360.182 265.025 C 367.171 271.936,370.153 277.690,367.855 279.831 C 365.928 281.626,358.689 282.227,351.283 281.207 L 347.967 280.750 339.637 272.410 C 335.056 267.823,329.333 262.426,326.920 260.416 C 324.506 258.406,322.318 256.569,322.058 256.333 C 321.742 256.048,322.418 256.124,324.083 256.560 C 325.458 256.920,329.544 257.817,333.165 258.554 M86.723 256.326 C 86.646 256.394,85.139 257.637,83.376 259.087 C 74.780 266.156,63.649 277.026,57.946 283.919 L 54.983 287.500 50.867 288.396 C 36.619 291.498,25.853 291.020,24.519 287.227 C 23.305 283.775,31.176 273.485,41.067 265.592 L 43.822 263.394 48.493 263.197 C 56.705 262.852,69.093 260.753,80.615 257.753 C 86.405 256.245,86.964 256.115,86.723 256.326 M232.753 268.017 C 237.589 276.984,245.071 288.905,250.971 297.046 C 253.540 300.590,254.081 302.000,257.704 314.599 C 266.941 346.712,267.494 377.575,258.781 374.699 C 249.032 371.481,233.621 344.973,222.861 312.911 L 220.312 305.316 220.040 298.734 C 219.617 288.484,218.327 274.726,217.218 268.624 L 217.016 267.511 220.829 266.393 C 222.926 265.778,225.857 264.783,227.342 264.181 C 230.557 262.879,229.626 262.220,232.753 268.017 M181.026 266.211 C 183.029 266.831,185.267 267.434,186.000 267.551 C 187.140 267.733,187.310 267.868,187.175 268.481 C 185.900 274.243,184.563 290.126,184.109 304.918 L 183.882 312.283 181.771 318.589 C 170.177 353.211,151.497 382.156,145.139 375.349 C 138.571 368.318,142.046 334.408,152.644 302.118 L 154.690 295.881 158.830 289.629 C 163.913 281.951,168.934 273.569,171.820 267.941 L 173.996 263.700 175.690 264.392 C 176.622 264.773,179.023 265.591,181.026 266.211 M210.705 272.914 C 215.691 307.798,212.617 357.146,204.512 372.354 C 202.472 376.181,201.745 376.112,199.619 371.894 C 191.318 355.425,188.670 308.013,193.961 270.605 L 194.192 268.974 198.446 269.176 C 200.786 269.287,204.143 269.244,205.907 269.080 C 207.671 268.916,209.342 268.801,209.620 268.824 C 210.004 268.857,210.266 269.846,210.705 272.914 M306.160 300.158 C 311.929 303.372,315.656 305.236,321.181 307.672 C 326.560 310.042,325.924 309.490,328.768 314.248 C 339.336 331.922,340.753 342.352,332.469 341.486 C 327.447 340.961,311.561 333.675,311.561 331.897 C 311.561 328.282,301.526 307.882,293.630 295.442 C 292.167 293.138,290.970 291.199,290.970 291.133 C 290.970 291.067,293.363 292.499,296.287 294.316 C 299.211 296.133,303.654 298.762,306.160 300.158 M109.846 297.300 C 104.804 304.952,96.777 320.391,94.495 326.823 C 93.173 330.549,76.386 336.302,73.948 333.864 C 71.962 331.878,73.175 325.448,77.106 317.131 L 78.860 313.417 81.877 312.121 C 88.575 309.243,104.259 300.652,109.030 297.248 C 110.533 296.174,110.585 296.178,109.846 297.300 M141.406 315.190 C 138.746 324.429,135.841 340.778,135.047 350.976 L 134.751 354.779 132.776 357.205 C 127.354 363.868,119.306 370.959,114.609 373.216 C 108.630 376.087,106.811 374.014,106.863 364.388 C 106.903 356.996,109.160 345.491,110.794 344.348 C 117.719 339.503,128.403 328.978,137.995 317.553 C 140.138 315.000,141.929 312.911,141.977 312.911 C 142.024 312.911,141.767 313.937,141.406 315.190 M269.543 320.675 C 273.791 325.595,285.078 336.930,288.303 339.514 L 290.529 341.300 291.134 344.574 C 292.600 352.503,292.117 360.230,290.055 361.852 C 287.771 363.649,281.503 360.345,274.572 353.691 L 271.827 351.055 271.595 348.273 C 271.028 341.473,268.797 329.112,266.566 320.404 C 265.933 317.934,265.524 316.036,265.657 316.185 C 265.790 316.334,267.539 318.354,269.543 320.675 M221.787 330.549 C 225.964 341.018,230.928 351.255,235.607 359.045 L 237.872 362.816 237.584 366.640 C 236.354 382.954,232.490 394.262,228.143 394.262 C 224.375 394.262,217.826 385.248,213.514 374.128 L 212.579 371.716 213.449 369.065 C 216.492 359.783,219.737 338.715,219.745 328.186 C 219.747 325.407,219.726 325.382,221.787 330.549 M185.254 337.215 C 185.971 346.308,187.443 355.923,189.222 363.120 L 190.077 366.578 188.729 369.455 C 185.141 377.110,180.282 383.122,177.683 383.122 C 174.714 383.122,171.003 375.174,169.763 366.161 L 169.380 363.376 171.640 359.494 C 175.411 353.015,183.300 336.105,184.172 332.630 C 184.572 331.039,184.865 332.282,185.254 337.215 " stroke="none" fill="#241d24" fill-rule="evenodd"></path>
  </g>
</svg>
