<?xml version="1.0" encoding="UTF-8"?>
<svg xmlns="http://www.w3.org/2000/svg" xmlns:xlink="http://www.w3.org/1999/xlink" id="svg" version="1.1" width="400" height="385.79610538373424" viewBox="0, 0, 400,385.79610538373424" preserveAspectRatio="none">
  <g id="svgg">
    <path id="path0" d="M187.289 0.981 C 185.926 1.489,184.710 2.042,184.587 2.209 C 184.464 2.377,183.668 2.756,182.819 3.053 C 181.969 3.349,179.666 4.347,177.700 5.271 C 175.735 6.194,173.954 6.950,173.743 6.950 C 173.532 6.950,173.359 7.112,173.359 7.310 C 173.359 7.508,172.968 7.779,172.490 7.911 C 171.202 8.270,168.561 9.401,168.340 9.690 C 168.234 9.828,167.191 10.338,166.023 10.823 C 164.855 11.308,163.726 11.907,163.514 12.155 C 163.301 12.402,162.172 13.078,161.004 13.657 C 157.878 15.207,156.328 16.102,155.228 16.992 C 152.731 19.013,150.587 20.450,149.211 21.025 C 148.386 21.369,147.617 21.786,147.504 21.950 C 147.390 22.114,146.298 22.649,145.077 23.138 C 143.856 23.628,142.857 24.181,142.857 24.369 C 142.857 24.557,142.644 24.710,142.383 24.710 C 141.767 24.710,136.546 26.689,136.293 27.017 C 136.187 27.156,135.014 27.670,133.687 28.160 C 132.360 28.651,131.274 29.178,131.274 29.333 C 131.274 29.487,130.232 30.028,128.958 30.534 C 127.683 31.040,126.641 31.583,126.641 31.740 C 126.641 31.898,126.131 32.290,125.507 32.613 C 123.859 33.465,121.801 35.511,121.028 37.066 C 120.658 37.809,120.250 38.504,120.120 38.610 C 119.646 38.998,118.533 41.255,118.533 41.827 C 118.533 42.151,118.313 42.645,118.043 42.926 C 117.774 43.207,117.234 44.218,116.843 45.174 C 116.452 46.129,115.819 47.606,115.436 48.456 C 115.053 49.305,114.349 51.477,113.872 53.282 C 113.395 55.087,112.848 56.667,112.657 56.794 C 112.466 56.920,111.934 59.092,111.475 61.620 C 111.017 64.148,110.528 66.303,110.389 66.409 C 109.868 66.807,109.213 74.820,109.202 80.929 C 109.196 84.410,109.156 87.259,109.112 87.259 C 109.069 87.259,107.566 86.815,105.772 86.273 C 93.152 82.458,83.682 82.512,65.058 86.503 C 61.873 87.185,59.180 87.861,59.073 88.005 C 58.967 88.149,57.322 88.656,55.417 89.132 C 53.512 89.608,51.862 90.125,51.749 90.282 C 51.637 90.439,50.241 90.990,48.649 91.506 C 47.056 92.022,45.666 92.561,45.560 92.704 C 45.454 92.847,44.237 93.437,42.857 94.015 C 41.477 94.594,40.261 95.178,40.154 95.314 C 40.048 95.449,39.093 95.994,38.031 96.525 C 36.969 97.056,36.041 97.625,35.968 97.790 C 35.896 97.955,35.179 98.426,34.375 98.836 C 33.571 99.246,32.811 99.849,32.685 100.177 C 32.560 100.504,32.206 100.772,31.900 100.772 C 31.593 100.772,30.936 101.250,30.440 101.834 C 29.943 102.418,29.059 103.204,28.475 103.580 C 27.891 103.957,27.413 104.401,27.413 104.567 C 27.413 104.734,26.631 105.710,25.674 106.737 C 23.885 108.658,22.677 110.482,21.186 113.514 C 18.767 118.432,17.375 121.506,17.375 121.926 C 17.375 122.183,17.224 122.394,17.040 122.394 C 16.856 122.394,16.312 123.480,15.830 124.807 C 15.349 126.134,14.815 127.310,14.645 127.421 C 14.234 127.687,12.741 131.188,12.741 131.885 C 12.741 132.186,12.591 132.432,12.407 132.432 C 12.044 132.432,10.425 136.079,10.425 136.896 C 10.425 137.172,10.191 137.630,9.906 137.915 C 9.621 138.200,9.025 139.385,8.582 140.549 C 8.139 141.712,7.417 143.394,6.977 144.286 C 6.537 145.179,6.178 146.098,6.178 146.329 C 6.178 146.560,5.816 147.457,5.375 148.323 C 4.933 149.188,4.140 151.218,3.613 152.834 C 3.086 154.449,2.510 155.949,2.333 156.167 C -0.403 159.547,-0.432 182.665,2.295 186.293 C 2.455 186.506,3.065 188.243,3.650 190.154 C 4.236 192.066,4.829 193.716,4.968 193.822 C 5.106 193.929,5.642 195.058,6.159 196.332 C 6.675 197.606,7.325 198.878,7.603 199.159 C 7.881 199.439,8.108 199.895,8.108 200.171 C 8.108 200.570,10.639 204.367,12.240 206.371 C 12.409 206.583,12.957 208.755,13.457 211.197 C 13.957 213.639,14.483 215.724,14.627 215.830 C 14.770 215.936,15.298 217.761,15.799 219.884 C 16.301 222.008,16.828 223.832,16.971 223.938 C 17.114 224.044,17.697 225.782,18.267 227.799 C 18.838 229.816,19.478 231.525,19.691 231.596 C 19.903 231.667,20.077 231.956,20.077 232.240 C 20.077 232.860,21.560 236.388,21.939 236.672 C 22.087 236.782,22.554 237.532,22.977 238.339 C 23.399 239.145,24.148 240.069,24.640 240.392 C 25.132 240.714,25.839 241.271,26.211 241.628 C 27.283 242.658,29.275 244.015,29.714 244.015 C 29.935 244.015,30.116 244.186,30.116 244.394 C 30.116 244.602,30.811 245.127,31.660 245.560 C 32.510 245.993,33.205 246.486,33.205 246.655 C 33.205 246.824,34.247 247.461,35.521 248.069 C 36.795 248.678,37.838 249.295,37.838 249.439 C 37.838 249.584,38.623 250.002,39.582 250.368 C 40.542 250.735,41.541 251.241,41.802 251.493 C 42.064 251.745,43.364 252.378,44.691 252.899 C 46.018 253.421,47.104 253.981,47.104 254.144 C 47.104 254.307,47.365 254.440,47.683 254.440 C 48.694 254.440,48.157 255.581,46.106 257.794 C 45.593 258.347,45.174 259.025,45.174 259.301 C 45.174 259.576,44.870 260.029,44.498 260.306 C 44.126 260.584,43.577 261.286,43.278 261.866 C 42.979 262.446,42.416 263.262,42.028 263.678 C 41.640 264.095,40.955 265.141,40.506 266.004 C 40.056 266.866,39.533 267.667,39.343 267.785 C 39.153 267.902,38.534 268.987,37.967 270.196 C 37.401 271.405,36.795 272.489,36.621 272.606 C 36.217 272.877,34.749 277.124,34.749 278.021 C 34.749 278.394,34.532 278.773,34.266 278.861 C 33.619 279.077,33.583 286.776,34.228 287.176 C 34.473 287.328,35.059 289.276,35.531 291.506 C 36.003 293.736,36.537 295.746,36.718 295.974 C 36.899 296.202,37.501 298.982,38.056 302.152 C 38.611 305.321,39.254 308.309,39.486 308.790 C 40.158 310.191,40.088 318.482,39.400 318.908 C 38.954 319.183,38.928 319.439,39.273 320.149 C 39.512 320.640,39.813 322.519,39.942 324.324 C 40.250 328.638,41.176 333.738,41.682 333.907 C 41.904 333.981,42.085 334.340,42.085 334.706 C 42.085 335.554,43.660 340.284,44.028 340.541 C 44.180 340.647,44.707 341.689,45.199 342.857 C 46.167 345.158,46.197 345.196,50.191 349.311 C 51.679 350.843,52.896 352.244,52.896 352.424 C 52.896 352.603,53.205 353.087,53.582 353.499 C 53.959 353.910,54.689 354.855,55.204 355.598 C 55.719 356.342,56.236 357.037,56.352 357.143 C 56.468 357.249,57.251 358.190,58.090 359.234 C 59.954 361.552,65.570 367.201,68.103 369.305 C 69.125 370.154,70.405 371.225,70.947 371.684 C 71.489 372.143,72.383 372.751,72.935 373.035 C 73.487 373.319,74.061 373.723,74.211 373.934 C 74.542 374.398,77.543 376.132,79.923 377.235 C 80.878 377.678,82.529 378.445,83.591 378.939 C 84.653 379.433,86.390 380.061,87.452 380.334 C 88.514 380.607,89.469 380.954,89.575 381.104 C 89.804 381.428,97.479 383.398,98.513 383.398 C 98.906 383.398,99.228 383.549,99.228 383.734 C 99.228 384.183,107.891 385.257,113.900 385.553 C 120.319 385.869,134.011 384.737,134.749 383.828 C 134.855 383.698,136.853 383.112,139.189 382.526 C 141.525 381.941,143.494 381.289,143.565 381.078 C 143.636 380.868,143.918 380.695,144.192 380.695 C 144.785 380.695,148.373 379.153,148.649 378.780 C 148.755 378.636,149.710 378.104,150.772 377.597 C 151.834 377.091,153.040 376.365,153.451 375.983 C 153.863 375.602,154.386 375.290,154.615 375.290 C 154.843 375.290,155.933 374.681,157.036 373.938 C 158.140 373.195,159.205 372.587,159.404 372.587 C 159.602 372.587,160.174 372.156,160.674 371.628 C 161.174 371.101,161.775 370.667,162.009 370.663 C 162.244 370.659,162.867 370.265,163.395 369.788 C 164.796 368.520,166.710 367.181,167.121 367.181 C 167.318 367.181,167.763 366.747,168.111 366.216 C 168.459 365.685,168.947 365.251,169.196 365.251 C 169.445 365.251,170.179 364.720,170.828 364.072 C 171.477 363.423,173.354 361.627,175.000 360.081 C 176.646 358.535,177.992 357.079,177.992 356.846 C 177.992 356.614,178.514 356.052,179.151 355.598 C 179.788 355.145,180.316 354.568,180.325 354.317 C 180.334 354.066,180.929 353.196,181.647 352.383 L 182.952 350.905 183.429 351.796 C 183.691 352.286,184.139 352.920,184.424 353.205 C 184.709 353.490,184.942 353.946,184.942 354.218 C 184.942 354.491,185.333 355.139,185.811 355.659 C 186.289 356.180,187.083 357.421,187.575 358.418 C 188.068 359.416,188.603 360.232,188.765 360.232 C 188.927 360.232,189.300 360.709,189.595 361.293 C 190.137 362.368,192.135 365.131,194.100 367.524 C 194.691 368.243,195.608 369.363,196.139 370.011 C 197.617 371.817,201.200 375.348,202.864 376.641 C 203.684 377.278,204.649 378.073,205.007 378.408 C 205.769 379.121,208.918 380.695,209.581 380.695 C 209.833 380.695,210.039 380.841,210.039 381.020 C 210.039 381.476,212.266 382.066,216.988 382.862 C 219.218 383.238,221.129 383.662,221.236 383.804 C 221.476 384.126,228.805 385.174,234.850 385.749 C 245.683 386.780,267.271 385.513,268.340 383.783 C 268.600 383.363,271.337 382.453,274.228 381.826 C 275.449 381.561,276.448 381.220,276.448 381.068 C 276.448 380.916,277.013 380.682,277.703 380.548 C 279.553 380.189,283.175 379.045,283.398 378.749 C 283.504 378.608,284.764 378.106,286.197 377.632 C 287.630 377.158,288.803 376.644,288.803 376.488 C 288.803 376.332,289.934 375.805,291.316 375.317 C 292.698 374.830,294.233 374.113,294.727 373.724 C 295.220 373.336,296.348 372.729,297.233 372.375 C 298.118 372.021,298.842 371.619,298.842 371.483 C 298.842 371.346,299.667 370.802,300.676 370.273 C 301.684 369.745,302.846 369.007,303.258 368.633 C 303.670 368.259,304.175 367.954,304.381 367.954 C 304.587 367.954,305.677 367.259,306.802 366.409 C 307.927 365.560,309.020 364.865,309.231 364.865 C 309.442 364.865,309.753 364.639,309.923 364.363 C 310.093 364.087,310.815 363.454,311.528 362.956 C 314.058 361.189,323.747 351.745,329.151 345.778 C 334.629 339.729,345.211 329.344,345.897 329.344 C 347.105 329.344,349.106 326.599,349.867 323.898 C 350.310 322.328,350.795 320.956,350.945 320.849 C 351.095 320.743,351.524 319.353,351.899 317.761 C 352.274 316.168,352.812 314.387,353.095 313.803 C 353.378 313.219,354.079 310.700,354.653 308.204 C 355.228 305.709,355.840 303.488,356.013 303.268 C 356.186 303.048,356.719 300.702,357.197 298.055 C 357.675 295.409,358.179 293.156,358.318 293.050 C 360.138 291.651,360.170 266.795,358.352 266.795 C 358.201 266.795,357.657 265.840,357.143 264.672 C 356.629 263.504,356.091 262.548,355.949 262.548 C 355.807 262.548,355.207 261.593,354.616 260.425 C 354.025 259.257,353.424 258.301,353.279 258.301 C 353.135 258.301,352.615 257.519,352.124 256.564 C 351.632 255.608,351.096 254.826,350.932 254.826 C 350.768 254.826,350.243 254.044,349.766 253.089 C 349.288 252.133,348.762 251.351,348.596 251.351 C 348.431 251.351,347.837 250.569,347.277 249.614 C 346.717 248.658,346.114 247.876,345.938 247.876 C 345.689 247.876,344.402 245.765,344.402 245.357 C 344.402 245.310,345.097 245.161,345.946 245.025 C 346.795 244.890,347.490 244.607,347.490 244.397 C 347.490 244.187,347.758 244.015,348.085 244.015 C 348.925 244.015,353.821 242.415,354.054 242.064 C 354.160 241.905,355.240 241.335,356.455 240.798 C 357.669 240.261,359.048 239.462,359.520 239.023 C 359.991 238.584,360.556 238.224,360.774 238.224 C 360.991 238.224,361.523 237.886,361.956 237.474 C 362.388 237.061,363.740 235.792,364.961 234.653 C 366.182 233.514,367.181 232.438,367.181 232.262 C 367.181 232.086,367.579 231.574,368.064 231.124 C 368.549 230.674,369.260 229.308,369.644 228.087 C 370.028 226.867,370.484 225.869,370.658 225.869 C 370.831 225.869,371.378 224.739,371.873 223.359 C 372.368 221.979,372.905 220.849,373.066 220.849 C 373.227 220.849,373.359 220.679,373.359 220.472 C 373.359 220.071,375.053 216.325,377.814 210.618 C 378.739 208.707,379.611 206.665,379.751 206.081 C 379.892 205.497,380.135 205.019,380.293 205.019 C 380.450 205.019,381.072 203.847,381.675 202.413 C 382.278 200.980,382.890 199.720,383.036 199.614 C 383.182 199.508,383.707 198.465,384.203 197.297 C 384.699 196.129,385.309 194.964,385.558 194.709 C 385.807 194.453,386.325 193.367,386.711 192.295 C 387.096 191.224,387.525 190.347,387.663 190.347 C 387.802 190.347,388.408 189.175,389.011 187.741 C 389.614 186.308,390.226 185.048,390.372 184.942 C 390.517 184.836,391.040 183.793,391.534 182.625 C 392.027 181.458,392.536 180.415,392.666 180.309 C 394.101 179.133,396.090 173.950,396.740 169.691 C 397.129 167.143,397.562 164.971,397.702 164.865 C 398.381 164.349,399.998 144.749,399.999 137.010 C 400.001 128.321,398.812 119.606,397.438 118.232 C 397.148 117.943,396.911 117.535,396.911 117.326 C 396.911 116.855,395.357 113.392,395.027 113.127 C 394.895 113.021,394.551 112.476,394.263 111.917 C 393.975 111.357,393.153 110.228,392.437 109.407 C 391.721 108.586,391.131 107.718,391.127 107.477 C 391.123 107.236,390.685 106.754,390.154 106.406 C 389.624 106.058,389.189 105.549,389.189 105.274 C 389.189 105.000,388.625 104.243,387.934 103.592 C 387.244 102.942,385.029 100.624,383.012 98.442 C 380.994 96.259,378.110 93.154,376.603 91.542 C 373.750 88.490,371.787 86.298,370.223 84.416 C 369.718 83.808,368.827 82.784,368.243 82.139 C 367.659 81.494,367.181 80.860,367.181 80.730 C 367.181 80.600,366.738 80.016,366.196 79.432 C 365.011 78.153,361.776 73.477,361.776 73.042 C 361.776 72.872,361.472 72.396,361.100 71.984 C 360.729 71.572,360.039 70.445,359.567 69.478 C 358.706 67.713,356.864 66.409,355.231 66.409 C 354.832 66.409,354.447 66.255,354.376 66.066 C 353.529 63.808,303.990 63.727,302.317 65.980 C 302.210 66.124,299.957 66.634,297.310 67.114 C 294.662 67.594,292.403 68.116,292.290 68.273 C 292.177 68.429,290.795 68.861,289.219 69.232 C 285.927 70.006,286.022 70.067,285.317 66.744 C 285.053 65.498,284.708 64.479,284.551 64.479 C 284.395 64.479,284.157 63.914,284.023 63.224 C 283.663 61.369,282.519 57.751,282.223 57.529 C 282.081 57.423,281.578 56.076,281.105 54.537 C 280.632 52.997,280.129 51.737,279.987 51.736 C 279.846 51.736,279.295 50.402,278.764 48.772 C 278.234 47.143,277.600 45.610,277.356 45.366 C 277.113 45.122,276.514 43.980,276.025 42.828 C 275.537 41.676,275.027 40.647,274.892 40.541 C 274.757 40.434,274.176 39.392,273.601 38.224 C 272.462 35.908,270.342 32.354,269.917 32.046 C 269.770 31.940,269.232 31.158,268.722 30.309 C 268.211 29.459,267.602 28.591,267.369 28.378 C 267.135 28.166,266.445 27.312,265.836 26.480 C 264.203 24.253,258.688 18.769,257.239 17.933 C 256.549 17.534,255.985 17.075,255.985 16.913 C 255.985 16.751,255.257 16.247,254.368 15.793 C 253.479 15.340,252.525 14.743,252.249 14.467 C 251.974 14.191,250.833 13.664,249.716 13.296 C 248.598 12.928,247.590 12.485,247.475 12.310 C 247.166 11.841,242.500 10.947,237.452 10.391 C 235.010 10.121,232.925 9.789,232.819 9.651 C 232.712 9.514,229.715 8.990,226.158 8.488 C 222.601 7.985,219.691 7.433,219.691 7.262 C 219.691 7.090,219.362 6.950,218.961 6.950 C 217.838 6.950,210.331 5.431,209.459 5.027 C 209.035 4.831,206.776 4.205,204.440 3.636 C 202.104 3.068,200.106 2.483,200.000 2.337 C 198.561 0.353,191.108 -0.443,187.289 0.981 M200.301 14.921 C 208.854 17.493,224.495 20.642,236.357 22.182 C 246.647 23.517,252.943 28.085,260.527 39.717 C 265.934 48.009,273.596 66.626,274.894 74.623 C 277.723 92.059,268.014 116.119,247.266 143.087 C 237.646 155.592,220.855 174.020,219.541 173.515 C 218.861 173.254,218.707 172.378,219.278 172.024 C 219.899 171.641,222.829 163.706,224.060 159.073 L 225.240 154.633 225.175 143.822 C 225.083 128.502,224.006 118.330,221.401 108.167 C 219.172 99.470,217.316 95.057,216.466 96.433 C 216.366 96.595,216.522 98.723,216.813 101.163 C 218.213 112.916,217.035 132.729,214.117 146.525 C 212.967 151.963,212.176 161.845,212.544 166.171 L 212.803 169.214 211.711 168.972 C 211.109 168.838,209.427 168.615,207.971 168.475 L 205.324 168.221 205.540 167.026 C 205.659 166.368,206.130 163.832,206.586 161.390 C 209.114 147.859,206.812 115.937,201.866 95.946 C 199.504 86.396,194.781 72.973,193.783 72.973 C 193.042 72.973,193.109 74.026,194.167 79.027 C 198.003 97.156,198.845 120.223,196.481 142.471 C 195.958 147.390,195.631 153.537,195.536 160.201 C 195.351 173.175,195.080 173.574,190.849 167.085 C 174.701 142.317,154.191 118.841,135.907 104.196 C 132.569 101.522,123.595 95.188,122.742 94.904 C 121.920 94.630,121.093 87.785,121.095 81.274 C 121.100 69.656,123.679 58.880,129.277 47.098 C 131.422 42.583,132.316 41.923,142.085 37.649 C 151.436 33.559,155.282 31.677,157.875 29.923 C 159.445 28.861,161.964 27.164,163.473 26.151 C 165.595 24.726,179.503 17.591,184.363 15.434 C 184.788 15.245,186.686 14.403,188.582 13.563 L 192.028 12.034 193.987 12.823 C 195.064 13.257,197.906 14.201,200.301 14.921 M344.595 76.633 C 350.622 77.427,350.030 77.085,352.817 81.385 C 356.974 87.796,361.399 93.055,372.329 104.574 C 382.841 115.652,386.685 121.267,387.728 127.075 C 388.888 133.525,388.047 149.713,385.846 163.320 L 384.815 169.691 381.469 176.062 C 376.736 185.071,370.732 197.374,363.853 212.162 C 356.007 229.029,352.407 232.068,337.066 234.778 L 334.556 235.221 331.081 231.864 C 318.759 219.957,305.443 211.319,291.892 206.443 C 282.520 203.071,263.309 196.839,251.158 193.229 C 247.124 192.030,243.738 190.966,243.635 190.865 C 243.532 190.764,245.356 190.796,247.689 190.937 C 256.386 191.462,276.424 186.987,290.541 181.368 C 303.446 176.231,315.199 168.336,304.505 171.987 C 293.170 175.858,277.324 178.259,260.007 178.730 C 254.044 178.892,248.962 179.150,248.714 179.304 C 248.465 179.457,248.263 179.410,248.263 179.199 C 248.263 178.989,248.653 178.697,249.131 178.551 C 258.030 175.831,282.087 158.282,297.243 143.455 C 305.064 135.804,316.602 121.713,316.602 119.813 C 316.602 118.819,315.581 119.333,313.692 121.278 C 300.826 134.527,279.884 149.529,260.678 159.255 C 252.639 163.327,248.885 165.486,242.389 169.774 C 239.568 171.637,237.092 173.233,236.887 173.320 C 236.683 173.407,238.602 171.149,241.153 168.303 C 269.072 137.142,284.161 110.045,286.561 86.757 L 286.991 82.586 288.380 82.000 C 300.268 76.979,327.497 74.380,344.595 76.633 M99.262 96.863 C 123.425 104.013,152.371 130.650,179.302 170.521 C 182.006 174.524,184.586 178.274,185.037 178.855 C 186.505 180.747,185.437 180.440,182.053 177.997 C 174.207 172.333,164.788 169.017,145.946 165.285 C 134.844 163.086,113.900 162.462,113.900 164.331 C 113.900 164.915,114.175 164.991,119.305 165.831 C 131.127 167.767,146.458 173.052,160.811 180.141 C 168.062 183.723,172.877 185.536,179.826 187.304 L 183.398 188.212 183.398 189.985 C 183.398 191.330,183.186 191.956,182.518 192.583 L 181.639 193.410 179.526 192.431 C 167.147 186.695,157.379 184.689,137.259 183.750 C 114.025 182.666,96.122 184.312,79.633 189.048 C 75.073 190.358,77.264 191.030,83.784 190.322 C 99.350 188.630,125.850 190.812,147.104 195.537 C 155.432 197.388,169.798 199.614,173.416 199.614 C 174.022 199.614,174.517 199.755,174.517 199.928 C 174.517 200.358,158.834 215.451,153.066 220.573 C 148.900 224.272,131.848 231.508,125.130 232.428 C 118.759 233.300,107.006 238.664,96.718 245.395 C 85.596 252.671,59.779 248.962,41.246 237.423 C 31.337 231.254,30.473 229.692,25.078 208.191 C 24.042 204.059,22.922 200.309,22.591 199.857 C 22.259 199.405,21.323 198.197,20.511 197.173 C 16.040 191.540,11.583 177.872,11.583 169.793 C 11.583 163.855,16.683 150.680,28.362 126.448 C 30.000 123.050,31.768 119.366,32.291 118.262 C 37.166 107.977,55.368 99.526,80.695 95.789 C 85.955 95.012,94.721 95.520,99.262 96.863 M228.021 186.779 C 227.650 187.151,226.642 186.268,226.650 185.576 C 226.658 184.776,226.682 184.780,227.395 185.709 C 227.801 186.236,228.082 186.718,228.021 186.779 M239.394 201.769 C 262.268 208.338,287.974 216.847,295.041 220.188 C 314.473 229.375,336.946 251.489,347.113 271.429 C 349.661 276.427,347.550 290.733,341.130 311.969 C 338.827 319.588,339.000 319.251,336.240 321.496 C 333.410 323.797,326.794 330.486,320.457 337.452 C 303.925 355.624,290.312 364.711,271.823 369.916 C 269.598 370.542,266.438 371.571,264.801 372.202 C 257.759 374.918,246.642 375.449,233.012 373.722 C 227.682 373.046,216.092 370.670,214.463 369.919 C 208.599 367.217,200.279 357.132,192.815 343.678 L 190.807 340.060 194.777 334.219 C 209.011 313.279,215.366 298.367,221.782 270.849 C 225.342 255.581,226.305 238.957,224.079 231.178 C 223.621 229.576,224.724 230.685,225.423 232.529 C 225.846 233.644,226.618 235.512,227.139 236.680 C 232.544 248.787,238.662 269.037,240.554 281.081 C 241.553 287.438,241.609 287.645,242.340 287.645 C 242.908 287.645,242.947 286.721,242.756 277.896 C 242.430 262.909,240.257 249.831,235.220 232.551 C 233.557 226.847,233.695 226.488,235.880 230.835 C 239.704 238.438,248.108 251.813,254.273 260.106 L 257.480 264.420 256.334 268.405 C 255.703 270.596,254.888 274.722,254.524 277.573 L 253.861 282.756 252.703 283.126 C 244.913 285.617,246.178 296.889,254.424 298.452 C 263.181 300.113,268.205 289.976,261.349 284.480 L 259.758 283.205 260.019 279.923 C 260.370 275.506,261.546 270.104,262.105 270.342 C 262.263 270.409,263.767 272.027,265.447 273.938 C 267.128 275.849,268.605 277.500,268.731 277.606 C 268.856 277.712,269.706 278.620,270.619 279.623 L 272.280 281.446 271.278 284.348 C 270.161 287.581,269.112 293.036,269.112 295.606 C 269.112 297.146,268.983 297.369,267.577 298.256 C 262.446 301.496,264.295 308.862,270.413 309.551 C 276.416 310.228,279.851 303.619,275.702 299.375 L 274.552 298.198 274.888 294.937 C 275.228 291.644,276.275 286.921,276.783 286.394 C 276.934 286.237,278.450 287.366,280.152 288.904 C 281.853 290.441,284.143 292.481,285.240 293.436 L 287.235 295.174 286.314 298.538 C 285.807 300.388,285.273 303.023,285.126 304.394 C 284.906 306.442,284.662 307.074,283.747 307.950 C 279.921 311.616,284.823 317.572,289.744 315.237 C 292.282 314.032,292.980 311.201,291.423 308.430 C 290.575 306.920,290.573 306.879,291.193 303.234 C 291.960 298.726,291.884 298.800,294.118 300.383 C 295.123 301.096,296.953 302.374,298.184 303.222 C 300.966 305.140,300.839 304.885,300.203 307.297 C 299.910 308.410,299.545 310.480,299.394 311.897 C 299.240 313.329,298.884 314.647,298.592 314.863 C 297.592 315.602,297.310 317.590,298.008 318.987 C 299.996 322.969,306.293 321.561,305.630 317.282 C 305.507 316.484,305.297 315.106,305.166 314.220 C 304.944 312.735,305.593 308.494,306.042 308.494 C 306.149 308.494,308.108 309.537,310.394 310.811 C 315.582 313.702,316.988 313.779,316.988 311.173 C 316.988 310.309,316.495 309.830,313.900 308.178 C 312.201 307.097,310.811 306.053,310.811 305.859 C 310.811 305.031,315.689 304.778,318.285 305.472 C 320.402 306.038,322.166 305.421,322.991 303.826 C 325.034 299.876,320.972 296.081,317.179 298.394 C 316.541 298.783,314.869 299.220,313.463 299.364 C 312.057 299.508,309.637 299.959,308.084 300.367 C 306.331 300.827,305.032 300.982,304.657 300.776 C 303.542 300.161,299.849 296.161,300.134 295.876 C 300.874 295.136,305.254 295.286,306.585 296.097 C 309.853 298.089,313.515 296.076,313.512 292.289 C 313.508 287.674,309.068 285.465,305.666 288.385 C 304.664 289.246,303.771 289.533,300.772 289.956 C 294.366 290.861,295.210 291.221,290.363 285.521 L 286.095 280.502 287.739 280.001 C 291.670 278.804,295.959 278.913,297.479 280.247 C 298.236 280.912,299.330 281.560,299.911 281.687 C 300.491 281.814,301.169 281.980,301.419 282.055 C 304.119 282.874,307.722 279.228,307.722 275.676 C 307.722 269.079,299.284 266.493,296.339 272.187 C 295.826 273.180,295.598 273.255,292.395 273.483 C 290.526 273.616,287.622 274.077,285.942 274.507 C 284.262 274.938,282.682 275.290,282.429 275.290 C 282.177 275.290,280.187 272.910,278.006 270.002 C 273.468 263.949,273.446 264.165,278.603 264.120 L 281.724 264.093 282.967 265.639 C 288.491 272.513,298.725 267.233,296.902 258.450 C 295.219 250.341,284.402 249.279,281.627 256.950 C 281.225 258.062,281.093 258.117,278.346 258.339 C 276.771 258.467,274.257 258.703,272.758 258.865 L 270.033 259.158 264.612 251.104 C 257.581 240.658,247.053 224.079,245.199 220.531 C 244.635 219.452,244.635 219.452,249.979 222.688 C 260.563 229.098,269.049 235.376,276.576 242.366 C 282.457 247.826,281.374 244.637,273.990 234.749 C 266.822 225.151,246.132 206.915,236.877 202.038 C 233.093 200.045,233.311 200.022,239.394 201.769 M186.013 211.829 C 180.654 218.775,178.388 222.082,174.143 229.151 C 162.341 248.802,146.508 267.898,131.757 280.274 C 129.837 281.884,129.187 283.012,130.178 283.012 C 130.824 283.012,138.434 278.386,142.254 275.671 C 154.206 267.176,164.849 257.115,177.984 241.892 C 187.891 230.410,190.673 226.363,194.999 217.141 C 196.284 214.402,197.479 211.902,197.656 211.583 C 198.022 210.923,198.306 210.925,202.405 211.608 L 205.389 212.105 203.551 214.064 C 198.245 219.718,193.574 226.726,189.118 235.714 C 182.203 249.663,173.645 262.200,164.011 272.492 C 155.725 281.343,168.950 273.156,179.974 262.610 C 187.730 255.189,199.290 241.254,203.098 234.733 C 205.696 230.286,209.266 220.042,209.266 217.039 C 209.266 215.386,210.001 215.918,210.390 217.852 C 213.355 232.612,214.335 244.350,213.325 252.989 C 211.695 266.918,203.560 296.273,198.852 305.212 C 191.993 318.236,177.480 340.000,172.977 344.015 C 172.858 344.122,172.015 345.164,171.104 346.332 C 162.491 357.373,145.493 368.603,132.059 372.129 L 126.834 373.501 117.568 373.515 C 93.057 373.552,75.032 364.186,62.282 344.788 C 61.514 343.620,60.174 342.136,59.304 341.490 C 57.189 339.919,55.110 336.471,53.726 332.239 C 51.910 326.684,51.650 324.703,51.576 315.836 C 51.499 306.672,50.700 301.740,47.139 288.462 C 45.455 282.182,45.464 282.015,47.738 277.499 C 50.650 271.715,60.633 258.143,61.737 258.467 C 75.032 262.370,94.076 260.634,103.668 254.644 C 114.013 248.184,124.042 243.629,127.920 243.629 C 133.020 243.629,155.942 233.649,160.489 229.449 C 163.737 226.448,172.896 217.822,176.639 214.238 C 178.551 212.407,181.853 209.245,183.977 207.212 L 187.838 203.516 189.139 204.803 L 190.440 206.090 186.013 211.829 M234.117 209.556 C 234.624 210.352,236.952 214.218,239.290 218.147 C 257.761 249.191,273.855 272.312,290.189 291.270 C 297.917 300.239,279.249 283.546,269.728 272.973 C 254.838 256.439,240.268 233.643,231.694 213.467 C 229.859 209.147,229.833 208.969,230.985 208.506 C 232.551 207.876,233.180 208.087,234.117 209.556 " stroke="none" fill="#251d25" fill-rule="evenodd"></path>
  </g>
</svg>
