<?xml version="1.0" encoding="UTF-8"?>
<svg xmlns="http://www.w3.org/2000/svg" xmlns:xlink="http://www.w3.org/1999/xlink" id="svg" version="1.1" width="400" height="330.4488475535787" viewBox="0, 0, 400,330.4488475535787" preserveAspectRatio="none">
  <g id="svgg">
    <path id="path0" d="M95.636 0.292 C 95.269 0.721,93.167 4.412,93.167 4.627 C 93.167 4.728,92.943 5.172,92.671 5.614 C 91.827 6.978,89.553 11.153,88.556 13.167 C 88.034 14.221,86.621 17.071,85.415 19.500 C 84.210 21.929,82.976 24.517,82.674 25.250 C 82.373 25.983,81.987 26.888,81.817 27.260 C 79.617 32.083,77.143 37.907,76.761 39.164 C 76.506 40.002,75.419 42.899,75.164 43.417 C 74.598 44.569,71.498 53.739,71.248 55.000 C 71.184 55.321,70.797 56.746,70.388 58.167 C 66.426 71.907,65.544 82.567,67.513 92.900 C 67.689 93.825,67.833 94.641,67.833 94.711 C 67.833 94.782,67.169 94.070,66.357 93.128 C 63.855 90.228,53.695 81.341,52.870 81.332 C 52.804 81.331,51.962 80.764,51.000 80.072 C 48.435 78.228,44.835 75.833,44.628 75.833 C 44.529 75.833,44.210 75.651,43.918 75.429 C 43.049 74.766,36.325 70.754,35.320 70.299 C 34.809 70.068,33.684 69.467,32.820 68.964 C 31.133 67.981,27.026 65.883,22.333 63.606 C 17.193 61.112,15.454 60.314,13.750 59.672 C 12.833 59.327,11.596 58.813,11.000 58.531 C 9.364 57.757,4.954 56.001,4.644 56.000 C 4.177 56.000,3.219 57.235,2.945 58.190 C -0.340 69.665,-1.055 87.647,1.268 100.333 C 1.994 104.294,4.018 111.403,5.102 113.797 C 5.321 114.281,5.500 114.796,5.500 114.943 C 5.500 115.709,8.910 122.563,10.317 124.624 C 10.693 125.174,11.000 125.704,11.000 125.803 C 11.000 126.011,13.130 129.208,13.699 129.853 C 13.910 130.094,14.683 131.068,15.417 132.020 C 16.776 133.782,22.081 139.304,23.371 140.299 C 23.763 140.601,24.721 141.339,25.500 141.940 C 26.279 142.541,27.142 143.221,27.417 143.453 C 28.163 144.081,31.040 145.960,31.558 146.157 L 32.009 146.329 31.630 147.039 C 30.731 148.721,31.134 151.762,32.783 155.750 L 33.128 156.583 31.439 156.601 C 26.451 156.651,25.049 160.288,27.895 165.791 L 28.151 166.286 26.450 166.379 C 21.606 166.644,19.140 169.665,20.956 173.113 C 21.140 173.463,21.491 174.125,21.734 174.583 C 21.977 175.042,22.439 175.734,22.760 176.121 L 23.343 176.825 22.755 177.071 C 20.695 177.931,19.937 179.571,20.648 181.628 C 21.000 182.648,21.269 182.482,18.583 182.901 C 13.093 183.757,10.498 185.595,10.441 188.667 C 10.400 190.902,12.548 193.852,14.966 194.881 C 16.507 195.537,17.561 196.405,17.024 196.576 C 16.468 196.752,14.511 198.772,14.172 199.520 C 13.007 202.088,14.336 204.585,17.782 206.302 L 19.314 207.066 18.532 207.599 C 13.136 211.280,13.981 216.437,20.250 218.083 C 21.707 218.466,21.629 218.359,21.130 219.291 C 20.224 220.986,20.386 222.267,21.669 223.550 L 22.470 224.351 20.526 226.394 C 17.291 229.796,16.322 232.059,17.019 234.583 C 17.761 237.270,22.867 238.674,27.885 237.572 C 28.325 237.475,28.368 237.499,28.256 237.773 C 25.811 243.727,29.111 247.068,35.781 245.394 C 36.166 245.297,36.186 245.318,36.018 245.633 C 35.307 246.961,34.983 250.156,35.412 251.595 C 36.255 254.422,39.725 255.336,43.537 253.734 C 44.740 253.228,44.667 253.207,44.667 254.053 C 44.667 255.831,46.060 257.325,47.722 257.331 C 48.510 257.333,48.525 257.343,48.435 257.792 C 48.028 259.839,47.939 260.699,47.931 262.667 C 47.899 270.669,52.920 271.778,60.019 265.336 C 61.110 264.346,61.333 264.205,61.333 264.505 C 61.333 265.054,61.829 266.657,62.271 267.536 C 64.027 271.028,67.648 271.147,70.859 267.817 L 72.137 266.492 72.508 267.621 C 74.468 273.580,79.316 274.417,82.684 269.378 C 83.161 268.666,83.581 268.048,83.618 268.004 C 83.656 267.960,83.926 268.199,84.218 268.535 C 85.292 269.769,87.171 270.248,88.333 269.583 C 88.833 269.297,89.167 269.268,89.167 269.511 C 89.167 270.042,91.591 273.753,92.742 274.982 C 94.428 276.784,96.902 277.375,98.715 276.410 C 99.623 275.926,99.763 275.961,99.923 276.710 C 100.703 280.370,105.215 289.082,108.510 293.287 C 109.100 294.041,109.866 295.054,110.211 295.537 C 111.123 296.816,117.116 302.833,119.220 304.583 C 122.454 307.272,123.402 308.009,124.368 308.583 C 124.892 308.894,125.696 309.445,126.155 309.808 C 127.034 310.503,132.430 313.923,132.947 314.113 C 133.114 314.175,134.337 314.825,135.667 315.559 C 138.044 316.873,143.355 319.500,143.631 319.500 C 143.709 319.500,144.817 319.956,146.095 320.513 C 149.119 321.832,156.326 324.561,157.500 324.832 C 158.004 324.948,158.680 325.138,159.002 325.254 C 164.898 327.384,177.523 330.333,180.744 330.333 L 182.643 330.333 182.819 329.458 C 183.668 325.248,184.655 316.690,185.188 308.917 C 185.420 305.530,185.483 293.347,185.289 289.149 L 185.162 286.381 185.956 286.087 C 190.389 284.452,194.459 280.572,197.194 275.376 C 197.569 274.665,197.887 274.068,197.902 274.049 C 197.917 274.030,198.227 274.121,198.590 274.250 C 199.722 274.654,201.928 274.569,202.975 274.082 C 203.868 273.666,204.167 273.664,204.167 274.071 C 204.167 274.409,207.408 280.835,207.942 281.557 C 213.702 289.338,221.112 290.732,225.032 284.773 C 226.504 282.536,226.945 281.611,228.083 278.375 C 228.131 278.239,228.658 278.491,229.620 279.112 C 241.265 286.631,249.297 277.084,244.522 261.399 L 244.212 260.382 245.155 259.949 C 246.266 259.439,246.966 258.639,247.704 257.039 C 247.988 256.422,248.230 255.902,248.241 255.884 C 248.252 255.866,249.271 256.261,250.505 256.764 C 255.786 258.911,260.044 259.489,264.167 258.617 C 271.057 257.160,273.078 251.111,269.189 243.583 C 268.415 242.085,268.379 241.978,268.856 242.583 C 269.280 243.121,272.117 245.857,273.750 247.302 C 274.703 248.145,275.382 248.621,279.000 250.980 C 280.797 252.152,284.266 253.961,285.852 254.553 C 286.438 254.771,288.006 255.368,289.338 255.879 C 293.811 257.594,301.717 259.631,305.309 259.993 C 306.101 260.073,308.250 260.330,310.083 260.564 C 315.059 261.200,328.166 262.031,328.631 261.740 C 328.864 261.594,323.992 245.541,322.640 242.000 C 321.928 240.137,319.544 235.283,318.476 233.525 C 318.123 232.942,317.833 232.412,317.833 232.345 C 317.833 231.402,311.575 223.958,308.821 221.625 L 308.083 221.000 309.000 221.358 C 309.504 221.555,310.254 221.809,310.667 221.922 C 311.079 222.034,311.902 222.331,312.494 222.581 C 313.842 223.148,320.371 225.333,320.719 225.333 C 321.278 225.333,321.740 228.251,321.505 230.297 C 320.700 237.310,323.694 243.044,328.162 243.044 C 334.170 243.044,335.633 236.198,331.181 228.917 C 330.733 228.183,330.378 227.570,330.393 227.554 C 330.408 227.538,331.582 227.701,333.002 227.916 C 334.422 228.131,336.008 228.355,336.526 228.414 L 337.469 228.520 337.771 229.718 C 337.974 230.526,338.049 231.297,338.001 232.083 C 337.595 238.733,339.251 243.081,342.477 243.834 C 349.125 245.385,351.089 238.298,346.084 230.819 C 344.965 229.148,344.817 229.269,347.692 229.514 C 351.264 229.819,351.422 230.024,351.678 234.667 C 352.029 241.036,354.560 244.648,358.546 244.471 C 364.264 244.216,364.803 237.386,359.600 231.097 L 358.923 230.278 360.236 230.389 C 360.959 230.450,361.871 230.500,362.264 230.500 L 362.978 230.500 363.801 231.875 C 364.694 233.365,364.924 233.968,365.090 235.250 C 365.980 242.101,370.479 246.213,374.833 244.154 C 378.867 242.247,378.310 237.206,373.521 232.292 L 371.938 230.667 373.635 230.639 C 374.569 230.624,375.457 230.605,375.608 230.597 C 376.373 230.559,378.061 233.792,378.337 235.825 C 379.007 240.761,381.871 244.404,385.083 244.407 C 390.811 244.412,390.807 237.258,385.075 232.259 L 383.823 231.167 384.464 231.167 C 385.599 231.167,387.038 231.515,388.579 232.163 C 392.242 233.704,397.184 233.654,398.863 232.059 C 400.127 230.858,400.485 227.675,399.503 226.365 C 397.605 223.835,391.880 223.266,387.033 225.126 C 386.889 225.181,387.163 224.756,387.641 224.182 C 391.412 219.650,390.389 214.675,385.685 214.668 C 382.674 214.664,379.502 218.139,378.363 222.688 C 377.761 225.093,375.764 227.556,374.523 227.424 C 374.098 227.379,373.315 227.297,372.784 227.241 L 371.817 227.141 373.200 226.097 C 379.214 221.561,380.497 215.365,375.854 213.284 C 372.078 211.592,367.513 215.314,365.936 221.370 C 365.625 222.565,365.146 223.497,364.145 224.856 C 362.969 226.452,363.254 226.368,360.239 225.997 C 358.778 225.817,357.558 225.669,357.526 225.668 C 357.495 225.667,357.880 225.332,358.381 224.924 C 365.395 219.210,365.720 210.537,358.917 210.605 C 355.413 210.640,352.539 214.433,351.748 220.068 C 351.520 221.698,350.754 223.970,350.276 224.439 C 350.132 224.579,349.530 224.541,347.917 224.289 L 345.750 223.952 347.347 222.351 C 352.182 217.503,353.005 210.624,348.963 208.836 C 344.386 206.813,340.449 210.950,340.003 218.250 C 339.779 221.935,339.573 222.586,338.681 222.431 C 338.352 222.373,337.391 222.220,336.546 222.089 C 334.735 221.809,332.502 221.292,332.501 221.152 C 332.500 221.098,332.669 220.976,332.875 220.882 C 333.584 220.558,336.252 218.221,337.361 216.951 C 341.471 212.249,340.002 206.439,334.698 206.421 C 333.407 206.417,333.339 206.400,333.696 206.167 C 334.335 205.750,337.974 202.691,339.148 201.584 C 339.754 201.012,341.150 199.716,342.250 198.703 C 343.350 197.690,344.664 196.424,345.169 195.889 C 345.674 195.354,346.706 194.368,347.461 193.697 C 348.216 193.027,348.833 192.374,348.833 192.246 C 348.833 191.990,347.518 191.185,344.744 189.745 C 343.739 189.223,341.829 188.212,340.500 187.498 C 335.084 184.591,324.949 180.386,320.319 179.125 C 302.916 174.385,290.011 175.453,278.417 182.592 C 277.408 183.213,276.133 183.977,275.583 184.289 C 275.033 184.602,274.396 185.025,274.167 185.230 C 273.938 185.435,273.482 185.798,273.154 186.038 L 272.558 186.473 273.198 185.251 C 277.771 176.525,274.115 171.011,263.250 170.247 C 261.333 170.112,254.430 171.349,253.845 171.933 C 253.806 171.972,253.595 171.652,253.377 171.222 C 252.536 169.562,250.721 168.000,249.634 168.000 C 249.224 168.000,249.241 167.906,249.980 166.045 C 250.335 165.149,250.948 163.442,251.342 162.250 L 252.058 160.083 252.067 156.083 C 252.080 149.729,251.130 147.509,247.689 145.855 L 246.083 145.084 244.000 145.099 C 241.624 145.116,239.128 145.749,236.638 146.965 L 235.360 147.590 235.253 146.877 C 234.548 142.177,231.441 137.472,228.457 136.586 C 224.917 135.535,221.771 136.784,216.455 141.351 C 215.568 142.113,214.419 143.646,213.637 145.113 C 213.352 145.647,212.953 146.308,212.750 146.583 C 212.547 146.858,212.167 147.471,211.905 147.945 C 211.536 148.616,211.372 148.777,211.169 148.668 C 210.047 148.067,207.490 148.158,206.141 148.847 C 205.796 149.023,205.481 149.167,205.441 149.167 C 205.401 149.167,205.181 148.698,204.951 148.125 C 204.721 147.552,203.880 145.751,203.083 144.123 L 201.633 141.163 199.358 138.873 C 196.736 136.234,196.260 135.879,194.244 135.057 C 188.816 132.844,184.257 135.790,181.751 143.127 L 181.224 144.671 180.762 144.275 C 177.098 141.126,170.999 140.135,167.823 142.173 C 164.843 144.085,162.856 150.794,163.756 155.902 C 164.217 158.519,164.887 161.673,165.105 162.250 C 165.140 162.342,164.836 162.553,164.430 162.720 C 163.209 163.221,161.777 165.025,161.267 166.705 C 161.189 166.963,161.035 166.931,159.798 166.398 C 154.423 164.083,150.603 163.426,146.056 164.034 L 144.362 164.261 144.578 163.839 C 147.649 157.815,144.620 153.832,138.103 155.325 C 137.068 155.562,137.076 155.578,137.505 154.224 C 139.410 148.217,136.095 144.922,130.199 146.963 C 129.346 147.258,128.623 147.500,128.594 147.500 C 128.564 147.500,128.508 147.057,128.469 146.515 C 128.326 144.547,127.004 143.414,124.984 143.528 C 124.318 143.565,124.019 143.524,124.066 143.401 C 124.623 141.956,124.584 136.951,124.003 135.437 C 122.681 131.992,118.409 131.381,115.163 134.174 C 114.844 134.448,114.283 134.873,113.917 135.118 C 113.550 135.364,112.969 135.828,112.625 136.149 C 112.281 136.471,112.000 136.649,112.000 136.545 C 112.000 136.442,112.346 136.070,112.769 135.720 C 114.286 134.464,119.568 129.074,121.300 127.016 C 122.271 125.861,123.422 124.521,123.857 124.038 C 124.292 123.555,125.221 122.318,125.921 121.288 C 126.620 120.259,127.567 118.892,128.024 118.250 C 131.126 113.897,135.885 104.369,136.994 100.291 C 137.174 99.627,137.515 98.483,137.752 97.750 C 142.027 84.477,141.940 68.675,137.510 54.167 C 137.245 53.296,136.861 52.021,136.657 51.333 C 135.325 46.828,130.649 37.084,127.574 32.406 C 126.908 31.392,126.150 30.170,125.890 29.689 C 124.911 27.881,118.740 19.805,116.258 17.083 C 115.673 16.442,114.594 15.242,113.862 14.417 C 112.253 12.605,106.500 6.947,105.165 5.862 C 104.637 5.434,103.513 4.483,102.666 3.750 C 98.442 0.093,96.586 -0.820,95.636 0.292 M98.231 6.917 C 98.870 10.710,99.386 17.320,99.654 25.167 C 99.926 33.112,99.998 37.958,99.836 37.500 C 99.755 37.271,99.117 34.871,98.418 32.167 C 96.493 24.724,95.238 20.233,94.151 16.898 C 93.609 15.238,93.167 13.797,93.167 13.696 C 93.167 13.560,97.057 6.205,97.620 5.277 C 97.802 4.977,97.988 5.479,98.231 6.917 M99.802 6.872 C 103.202 9.703,109.167 15.371,109.167 15.771 C 109.167 15.888,108.750 17.394,108.240 19.117 C 107.731 20.840,106.415 25.813,105.317 30.167 C 104.219 34.521,103.261 38.230,103.189 38.409 C 103.107 38.610,102.980 37.688,102.854 35.992 C 101.871 22.658,99.989 10.393,98.246 5.958 C 98.056 5.476,98.287 5.612,99.802 6.872 M92.249 17.292 C 91.782 25.319,94.636 36.060,99.016 42.761 L 100.003 44.272 99.960 51.928 L 99.917 59.583 99.391 58.500 C 96.308 52.141,93.233 44.999,91.031 39.083 C 89.263 34.333,86.667 27.054,86.667 26.847 C 86.667 26.621,92.181 15.333,92.292 15.333 C 92.331 15.333,92.311 16.215,92.249 17.292 M114.142 21.167 C 116.755 24.233,118.167 26.089,118.167 26.457 C 118.167 27.486,112.012 44.250,109.370 50.417 C 107.210 55.460,106.682 56.639,104.787 60.657 L 104.045 62.231 103.939 59.074 C 103.880 57.337,103.756 53.554,103.662 50.667 C 103.569 47.779,103.456 45.200,103.412 44.935 C 103.350 44.559,103.536 44.132,104.267 42.973 C 108.156 36.809,110.493 28.695,110.785 20.340 L 110.886 17.429 111.626 18.256 C 112.033 18.711,113.165 20.021,114.142 21.167 M120.636 29.542 C 122.018 31.490,124.203 34.882,125.147 36.543 L 125.693 37.503 125.324 38.626 C 123.164 45.211,120.061 53.153,116.841 60.333 C 115.654 62.982,111.487 71.110,109.920 73.833 C 107.532 77.985,105.800 80.907,104.939 82.240 L 104.083 83.563 104.040 73.920 L 103.997 64.277 105.214 63.013 C 112.827 55.112,118.172 42.520,119.034 30.458 C 119.144 28.923,119.250 27.667,119.270 27.667 C 119.290 27.667,119.905 28.510,120.636 29.542 M85.500 30.530 C 85.500 39.171,91.989 54.060,99.042 61.601 L 100.000 62.626 100.000 72.096 C 100.000 77.852,99.940 81.505,99.847 81.408 C 98.776 80.300,91.811 66.828,88.909 60.250 C 85.451 52.413,81.053 40.599,81.217 39.590 C 81.335 38.865,85.219 29.846,85.372 29.941 C 85.443 29.984,85.500 30.249,85.500 30.530 M128.307 42.375 C 129.577 44.952,131.243 48.785,131.850 50.524 L 132.231 51.615 131.675 53.182 C 126.257 68.450,119.862 81.412,111.537 94.000 C 109.714 96.756,104.603 103.958,103.849 104.833 L 103.347 105.417 103.344 104.500 C 103.342 103.996,103.450 100.808,103.584 97.417 C 103.718 94.025,103.828 89.882,103.830 88.209 L 103.833 85.168 105.525 83.542 C 116.431 73.063,125.143 55.628,126.761 41.042 C 126.918 39.621,126.974 39.669,128.307 42.375 M81.227 50.534 C 84.461 62.802,90.655 74.168,98.539 82.301 L 100.043 83.851 99.938 84.616 C 99.880 85.036,99.833 88.932,99.833 93.273 C 99.833 97.615,99.777 101.162,99.708 101.156 C 99.640 101.150,98.758 100.085,97.750 98.790 C 87.827 86.040,81.007 74.640,75.507 61.602 L 74.460 59.121 74.829 57.769 C 75.567 55.059,78.420 46.610,79.506 43.917 C 79.694 43.450,79.738 43.577,80.166 45.833 C 80.418 47.163,80.896 49.278,81.227 50.534 M134.088 57.417 C 134.930 60.538,135.727 64.548,136.095 67.511 L 136.397 69.938 135.588 72.011 C 129.361 87.975,119.486 105.180,109.473 117.511 C 108.771 118.376,107.594 119.833,106.858 120.750 C 104.892 123.198,102.314 126.242,102.155 126.303 C 102.079 126.332,102.051 126.107,102.092 125.803 C 102.186 125.098,102.582 118.668,102.922 112.333 L 103.185 107.417 104.051 106.677 C 117.744 94.982,129.266 74.873,132.927 56.283 C 133.280 54.489,133.306 54.515,134.088 57.417 M8.761 62.146 C 9.855 62.592,11.482 63.277,12.376 63.667 L 14.003 64.375 14.274 65.313 C 14.972 67.727,19.023 77.730,20.447 80.555 C 21.273 82.194,20.677 81.566,17.750 77.714 C 12.096 70.274,6.500 62.179,6.500 61.441 C 6.500 61.246,6.752 61.325,8.761 62.146 M7.406 64.167 C 9.287 68.606,13.146 75.378,17.682 82.198 C 19.542 84.996,19.555 85.038,18.233 83.998 C 13.302 80.122,8.036 76.270,5.687 74.821 L 4.491 74.083 4.590 73.000 C 4.845 70.232,6.249 61.660,6.414 61.868 C 6.435 61.895,6.881 62.929,7.406 64.167 M75.325 69.000 C 79.699 81.953,88.096 94.063,98.542 102.483 L 99.833 103.524 99.828 114.554 L 99.823 125.583 99.453 125.154 C 97.240 122.581,91.450 114.343,87.631 108.333 C 84.540 103.468,81.346 97.729,78.496 91.917 C 74.891 84.564,71.167 75.887,71.167 74.842 C 71.167 73.698,72.689 65.764,73.358 63.417 L 73.549 62.750 74.029 64.667 C 74.293 65.721,74.876 67.671,75.325 69.000 M19.500 66.932 C 20.829 67.559,22.664 68.450,23.577 68.911 L 25.237 69.750 26.382 73.333 C 27.012 75.304,27.899 78.079,28.354 79.500 C 29.894 84.307,33.432 97.123,33.266 97.289 C 33.220 97.336,27.793 90.625,25.807 88.064 C 25.728 87.962,25.590 87.111,25.501 86.173 C 24.822 79.049,21.205 70.856,16.606 66.027 L 15.917 65.303 16.500 65.547 C 16.821 65.682,18.171 66.305,19.500 66.932 M32.333 73.508 C 36.126 75.558,35.653 75.028,36.808 78.535 C 40.581 89.999,42.867 98.981,44.660 109.387 L 45.114 112.025 44.661 111.554 C 44.412 111.295,42.223 108.606,39.798 105.578 L 35.389 100.072 35.541 98.744 C 36.427 90.998,33.582 79.721,28.891 72.387 C 28.168 71.258,28.176 71.244,29.208 71.811 C 29.690 72.076,31.096 72.840,32.333 73.508 M136.615 78.000 C 136.223 97.207,128.515 114.186,113.294 129.373 L 110.331 132.330 109.578 131.755 C 107.512 130.178,105.255 130.643,102.375 133.242 C 101.703 133.848,101.501 133.960,101.503 133.724 C 101.505 133.555,101.616 132.104,101.750 130.500 C 101.884 128.896,101.995 127.396,101.997 127.166 C 101.999 126.828,102.353 126.495,103.875 125.397 C 120.331 113.525,132.549 94.016,136.429 73.417 C 136.664 72.172,136.711 73.334,136.615 78.000 M6.014 78.666 C 10.300 83.655,16.190 87.784,21.423 89.468 C 22.907 89.946,22.922 89.957,23.750 91.079 C 24.208 91.701,26.086 94.244,27.923 96.730 C 29.760 99.216,31.324 101.350,31.398 101.470 C 31.635 101.853,20.815 96.013,16.389 93.368 C 11.944 90.712,4.862 86.415,4.433 86.114 L 3.948 85.774 4.061 81.365 C 4.184 76.572,4.214 76.381,4.734 77.100 C 4.926 77.365,5.502 78.070,6.014 78.666 M41.235 78.695 C 43.245 79.923,46.834 82.293,48.938 83.780 L 50.458 84.856 51.310 88.303 C 53.385 96.709,54.539 103.705,55.244 112.167 C 55.472 114.909,55.910 125.320,55.800 125.416 C 55.594 125.597,46.752 114.152,46.771 113.729 C 46.783 113.465,46.883 112.013,46.994 110.500 C 47.725 100.565,45.263 89.179,40.305 79.556 C 39.770 78.517,39.381 77.667,39.442 77.667 C 39.503 77.667,40.310 78.129,41.235 78.695 M71.567 83.833 C 76.393 100.597,87.408 117.264,99.380 125.918 L 99.843 126.253 99.796 128.698 L 99.750 131.144 98.996 130.197 C 96.521 127.087,92.822 127.990,90.192 132.347 L 89.633 133.273 88.358 131.995 C 86.991 130.624,86.019 129.036,82.658 122.678 C 76.464 110.963,72.192 98.177,71.099 88.083 C 70.847 85.753,70.594 80.768,70.744 81.083 C 70.788 81.175,71.158 82.412,71.567 83.833 M56.667 89.736 C 61.476 93.786,61.185 93.346,62.563 98.667 C 65.432 109.750,67.085 119.104,68.082 129.899 C 68.387 133.198,68.461 132.986,67.256 132.261 C 65.420 131.155,63.628 131.128,62.170 132.183 L 61.500 132.669 59.417 130.054 C 57.259 127.346,57.227 127.285,57.495 126.350 C 60.463 116.001,59.111 99.943,54.351 89.013 C 53.974 88.149,53.667 87.412,53.667 87.374 C 53.667 87.274,54.855 88.209,56.667 89.736 M7.403 91.250 C 14.030 97.796,23.923 102.746,31.822 103.470 L 33.060 103.583 35.822 107.094 C 37.341 109.025,39.577 111.819,40.792 113.302 C 42.006 114.786,43.000 116.043,43.000 116.095 C 43.000 116.300,34.986 113.126,31.500 111.540 C 31.087 111.352,29.962 110.850,29.000 110.424 C 24.310 108.348,15.934 103.861,9.000 99.710 C 4.693 97.131,5.096 97.575,4.772 95.051 C 4.439 92.461,4.167 89.516,4.167 88.503 L 4.167 87.756 4.941 88.670 C 5.367 89.172,6.475 90.333,7.403 91.250 M66.791 100.623 C 69.849 105.099,72.760 111.260,74.898 117.783 C 75.755 120.398,77.000 124.689,77.000 125.030 C 77.000 125.107,76.606 125.123,76.125 125.067 C 74.502 124.876,73.004 125.608,71.950 127.105 L 71.417 127.863 71.298 124.973 C 70.931 116.055,68.472 104.763,65.750 99.500 C 65.279 98.588,65.746 99.092,66.791 100.623 M10.702 104.547 C 19.791 111.620,31.850 116.595,41.500 117.252 C 44.464 117.454,44.032 117.209,46.286 119.965 C 47.389 121.313,49.836 124.213,51.724 126.408 C 53.611 128.604,55.125 130.431,55.088 130.468 C 54.931 130.624,44.014 127.185,40.083 125.742 C 30.129 122.087,21.524 118.006,12.023 112.435 C 9.310 110.845,8.250 110.137,8.130 109.833 C 7.525 108.310,5.669 101.239,5.667 100.452 C 5.667 100.248,6.248 100.681,7.494 101.813 C 8.499 102.725,9.942 103.956,10.702 104.547 M12.119 115.603 C 23.733 124.979,42.117 131.975,55.212 132.003 L 56.583 132.006 58.000 133.607 C 60.212 136.108,60.046 135.761,59.817 137.396 L 59.620 138.809 58.768 138.177 C 54.848 135.267,51.086 135.544,50.004 138.822 C 49.881 139.195,49.743 139.500,49.699 139.500 C 49.446 139.500,45.292 138.187,43.119 137.421 C 35.820 134.846,30.185 132.437,23.000 128.818 C 15.149 124.863,15.520 125.103,14.338 123.205 C 13.354 121.626,9.805 114.653,9.575 113.847 L 9.460 113.444 9.952 113.847 C 10.222 114.069,11.197 114.859,12.119 115.603 M19.268 129.264 C 26.257 135.094,37.445 140.509,47.083 142.727 L 49.417 143.263 49.471 143.821 C 49.520 144.335,49.494 144.370,49.137 144.265 C 46.610 143.522,44.709 144.574,44.362 146.908 L 44.250 147.659 42.917 147.065 C 42.183 146.739,40.797 146.136,39.835 145.726 C 31.975 142.372,23.382 135.559,17.950 128.375 C 17.633 127.955,17.983 128.191,19.268 129.264 M76.346 128.712 C 77.641 129.585,79.321 132.284,80.752 135.791 L 81.381 137.333 80.947 139.291 C 80.203 142.650,79.505 147.761,79.502 149.875 C 79.500 150.846,79.286 151.139,79.072 150.465 C 78.444 148.484,75.005 141.644,73.278 138.936 L 72.440 137.623 72.648 135.955 C 73.048 132.746,74.001 129.791,74.957 128.792 C 75.489 128.236,75.627 128.228,76.346 128.712 M96.312 132.276 C 96.953 133.055,97.569 134.719,98.003 136.848 L 98.345 138.524 97.494 140.010 C 96.576 141.615,94.291 146.319,93.675 147.875 C 93.144 149.214,93.117 149.161,92.784 146.125 C 92.620 144.635,92.262 142.329,91.987 141.000 C 91.197 137.171,91.189 137.583,92.091 135.836 C 93.941 132.255,95.329 131.084,96.312 132.276 M107.769 134.895 C 110.328 139.467,106.865 159.404,102.308 166.333 C 100.579 168.963,98.328 172.700,97.530 174.264 C 96.655 175.979,96.849 175.910,94.765 175.246 C 93.766 174.927,92.800 174.667,92.619 174.667 C 92.330 174.667,92.303 174.588,92.396 174.006 C 92.938 170.618,93.500 163.438,93.500 159.903 C 93.500 158.022,94.117 155.921,96.284 150.417 C 100.347 140.097,106.230 132.146,107.769 134.895 M65.822 135.353 C 69.509 137.815,74.862 147.605,78.295 158.167 L 79.135 160.750 79.326 164.417 C 79.512 167.981,79.839 171.544,80.165 173.569 C 80.359 174.772,80.613 174.546,78.101 175.401 L 75.999 176.116 75.056 174.350 C 73.648 171.713,72.351 169.595,70.018 166.127 C 67.253 162.018,67.314 162.135,66.421 159.250 C 62.965 148.081,61.947 137.361,64.116 134.964 C 64.497 134.543,64.668 134.581,65.822 135.353 M87.383 136.668 C 90.019 143.445,90.943 161.044,89.253 172.310 C 88.969 174.207,89.383 173.966,86.300 174.029 L 83.686 174.083 83.516 173.083 C 81.542 161.445,82.612 142.285,85.595 135.865 L 86.190 134.583 86.558 135.040 C 86.761 135.292,87.132 136.024,87.383 136.668 M120.155 135.994 C 121.053 136.474,121.192 139.938,120.452 143.417 C 119.879 146.112,119.986 145.932,117.917 147.712 C 115.875 149.469,113.854 151.521,111.513 154.212 C 110.655 155.200,109.926 155.981,109.894 155.949 C 109.862 155.917,110.058 154.919,110.331 153.730 C 111.167 150.089,111.994 144.613,111.998 142.697 C 112.002 141.017,117.287 136.378,119.803 135.844 C 119.832 135.838,119.990 135.905,120.155 135.994 M192.782 139.001 C 196.146 140.682,198.747 144.103,201.071 149.903 C 202.190 152.697,202.219 152.339,200.713 154.325 C 200.682 154.366,200.325 154.020,199.919 153.556 C 196.121 149.215,191.199 148.408,188.140 151.625 C 184.665 155.277,183.495 161.202,184.591 169.583 C 184.723 170.592,184.831 171.444,184.832 171.477 C 184.833 171.509,184.017 170.754,183.019 169.798 C 178.535 165.501,174.058 162.877,170.149 162.256 L 169.549 162.161 169.034 160.372 C 167.425 154.787,167.356 150.723,168.816 147.583 C 170.735 143.457,176.130 145.017,183.333 151.783 C 183.654 152.084,183.958 152.331,184.009 152.332 C 184.060 152.333,184.300 151.136,184.542 149.672 C 185.938 141.212,189.076 137.149,192.782 139.001 M54.943 139.750 C 55.717 140.073,57.306 141.240,58.632 142.458 L 59.680 143.422 60.001 145.922 C 60.354 148.673,60.843 151.378,61.352 153.393 C 61.801 155.171,61.770 155.174,60.253 153.477 C 58.805 151.856,56.024 149.103,54.378 147.661 L 53.339 146.750 53.086 145.270 C 52.330 140.845,52.975 138.928,54.943 139.750 M227.448 140.848 C 229.682 141.930,231.247 146.202,231.683 152.411 C 231.780 153.788,231.886 154.942,231.920 154.975 C 231.953 155.009,232.754 154.482,233.699 153.806 C 240.626 148.845,245.547 147.826,247.175 151.016 C 248.694 153.994,248.312 158.705,246.105 164.204 C 244.591 167.975,244.700 167.839,242.984 168.086 L 242.218 168.197 242.197 166.223 C 242.059 153.451,228.303 155.009,219.151 168.834 C 218.902 169.211,218.880 169.061,218.787 166.326 C 218.581 160.307,217.535 156.090,215.445 152.860 L 214.688 151.689 215.839 149.680 C 218.148 145.650,219.082 144.483,221.408 142.725 C 224.114 140.679,225.931 140.114,227.448 140.848 M124.344 150.509 C 121.843 157.989,114.117 169.662,105.524 178.943 L 104.111 180.469 102.715 179.404 C 101.947 178.818,100.985 178.143,100.576 177.904 C 99.625 177.346,99.596 177.493,101.231 174.554 C 107.490 163.298,118.227 150.492,123.917 147.498 L 124.917 146.972 124.967 147.732 C 125.004 148.279,124.828 149.060,124.344 150.509 M49.296 148.125 C 55.508 151.920,66.193 164.994,72.237 176.196 L 73.017 177.643 72.045 178.303 C 71.510 178.666,70.550 179.393,69.911 179.918 L 68.750 180.873 66.862 178.895 C 58.189 169.810,48.414 154.203,47.718 148.329 C 47.593 147.273,47.848 147.240,49.296 148.125 M37.917 148.693 C 39.373 149.110,41.585 150.195,43.732 151.546 L 45.380 152.583 46.158 154.417 C 47.195 156.860,48.521 159.417,50.222 162.250 C 51.844 164.952,51.838 164.909,50.466 164.046 C 47.249 162.023,43.660 160.190,40.083 158.744 L 37.917 157.868 37.126 156.476 C 35.614 153.815,34.667 151.142,34.667 149.538 C 34.667 148.109,35.299 147.945,37.917 148.693 M134.253 150.065 C 134.946 150.571,134.493 152.931,133.146 155.835 L 132.488 157.254 131.203 157.818 C 129.470 158.579,125.593 160.614,123.750 161.730 C 121.938 162.827,121.975 162.850,122.936 161.231 C 123.965 159.497,126.146 155.218,126.749 153.750 C 127.353 152.280,127.351 152.282,128.406 151.687 C 130.934 150.261,133.534 149.539,134.253 150.065 M210.194 153.049 C 211.580 154.106,213.232 156.818,213.718 158.833 C 215.390 165.774,215.051 173.589,212.810 179.748 C 212.241 181.311,210.659 184.667,210.491 184.667 C 210.056 184.667,208.546 178.275,207.871 173.577 C 207.450 170.652,207.235 170.614,206.758 173.380 C 206.005 177.749,206.136 185.481,207.006 187.969 L 207.315 188.854 206.870 188.802 C 206.450 188.753,206.412 188.673,206.205 187.417 C 206.083 186.683,205.688 185.195,205.326 184.110 C 204.321 181.098,203.227 175.889,202.658 171.417 C 202.389 169.305,202.355 169.167,202.097 169.167 C 201.862 169.167,201.662 170.047,201.331 172.535 C 200.725 177.090,201.097 185.299,202.019 187.750 C 202.398 188.754,202.402 188.833,202.087 188.833 C 201.951 188.833,201.805 188.665,201.762 188.458 C 201.719 188.252,201.523 187.299,201.327 186.340 C 201.130 185.382,200.720 183.802,200.416 182.830 C 199.911 181.222,197.544 168.439,197.272 165.852 C 196.841 161.764,195.673 170.550,195.889 176.250 C 196.095 181.654,196.607 185.414,197.412 187.417 L 197.814 188.417 196.570 187.094 C 189.098 179.152,185.741 162.157,190.313 155.414 C 192.663 151.946,196.275 154.185,201.090 162.095 C 201.232 162.329,201.425 162.023,202.160 160.398 C 205.042 154.030,207.969 151.352,210.194 153.049 M142.144 158.888 C 142.744 159.374,141.879 161.712,140.156 164.266 C 136.044 170.360,124.778 180.101,119.750 181.910 C 117.010 182.896,114.195 184.077,111.375 185.422 L 109.166 186.476 108.639 185.696 C 108.349 185.268,107.741 184.439,107.287 183.855 L 106.463 182.794 107.790 181.439 C 110.059 179.120,113.107 175.497,115.975 171.708 C 117.093 170.230,117.574 169.835,121.417 167.236 C 128.072 162.734,134.659 159.553,138.976 158.756 C 140.302 158.511,141.753 158.571,142.144 158.888 M33.477 160.175 C 37.629 160.848,44.954 164.339,51.750 168.882 C 56.210 171.864,57.060 172.554,58.538 174.393 C 60.487 176.820,63.388 180.184,64.987 181.873 L 66.366 183.329 65.464 184.540 C 64.968 185.205,64.392 186.031,64.184 186.375 C 63.729 187.127,63.902 187.123,62.506 186.419 C 59.532 184.922,55.223 183.149,51.333 181.823 C 48.432 180.834,48.018 180.579,43.557 177.033 C 36.580 171.487,31.241 165.493,30.148 161.980 C 29.559 160.089,30.339 159.665,33.477 160.175 M236.732 161.849 C 238.272 163.060,238.572 166.895,237.512 171.833 C 237.247 173.071,237.059 174.113,237.095 174.150 C 237.131 174.187,238.082 173.874,239.208 173.455 C 244.542 171.471,248.549 171.293,249.555 172.996 C 251.912 176.988,244.802 187.559,236.155 192.916 C 233.437 194.600,228.042 196.930,227.685 196.574 C 227.371 196.260,231.040 190.383,233.798 186.783 C 235.330 184.783,235.244 184.477,233.490 185.682 C 229.355 188.522,222.667 195.489,222.667 196.956 C 222.667 197.243,222.334 197.159,222.120 196.820 C 222.008 196.642,222.221 196.205,222.902 195.217 C 223.416 194.470,224.201 193.081,224.645 192.129 C 225.639 190.001,230.166 183.234,232.271 180.730 C 234.396 178.202,230.400 180.746,226.645 184.310 C 223.373 187.417,220.019 191.497,219.390 193.134 C 219.152 193.754,219.082 193.820,218.878 193.616 C 218.673 193.411,218.811 193.132,219.884 191.565 C 220.568 190.567,221.503 189.000,221.962 188.083 C 222.798 186.415,229.383 176.808,231.360 174.372 C 232.417 173.069,232.388 172.591,231.298 173.350 C 225.848 177.142,218.107 185.474,216.577 189.195 C 215.985 190.634,215.919 189.726,216.358 186.167 C 217.287 178.632,221.922 170.306,228.284 164.744 C 231.236 162.163,235.342 160.756,236.732 161.849 M171.515 166.814 C 175.785 168.197,182.184 173.833,185.913 179.496 C 187.664 182.156,189.833 186.989,189.833 188.231 C 189.833 188.944,184.885 185.918,179.698 182.034 C 178.108 180.843,177.894 181.044,179.015 182.676 C 181.506 186.302,186.839 191.605,189.413 193.014 C 190.441 193.578,190.487 193.627,190.206 193.881 C 189.928 194.133,189.835 194.100,188.829 193.393 C 188.235 192.976,186.812 192.167,185.667 191.596 C 184.521 191.024,183.246 190.344,182.833 190.085 C 181.332 189.140,176.046 185.418,174.606 184.292 C 172.829 182.902,172.457 182.963,173.485 184.477 C 176.339 188.681,183.437 195.461,186.242 196.663 C 186.961 196.971,187.165 197.212,186.866 197.397 C 186.792 197.442,185.953 196.957,185.002 196.319 C 184.051 195.680,182.442 194.723,181.428 194.192 C 179.640 193.256,168.985 185.944,167.279 184.482 C 166.149 183.514,165.982 183.839,166.922 185.175 C 170.472 190.219,178.026 197.302,181.958 199.275 L 183.402 200.000 182.159 199.999 C 178.688 199.996,173.475 198.650,169.750 196.794 C 164.964 194.409,158.172 188.959,158.163 187.495 C 158.158 186.649,157.630 185.623,156.824 184.892 C 156.435 184.539,155.946 184.090,155.737 183.895 C 154.948 183.156,154.558 180.516,155.087 179.493 C 155.905 177.911,160.378 177.536,165.250 178.641 C 166.442 178.911,167.447 179.104,167.483 179.069 C 167.520 179.034,167.207 178.084,166.788 176.959 C 164.725 171.411,164.618 167.437,166.506 166.447 C 167.368 165.995,169.457 166.148,171.515 166.814 M150.800 167.756 C 152.921 168.386,151.677 170.983,147.430 174.791 L 146.083 175.998 145.083 176.001 C 142.826 176.006,138.590 176.630,134.185 177.607 C 132.774 177.919,131.595 178.150,131.565 178.120 C 131.534 178.090,132.086 177.582,132.791 176.991 C 134.662 175.422,138.335 171.822,139.869 170.052 L 141.202 168.515 142.476 168.231 C 145.842 167.482,149.228 167.289,150.800 167.756 M158.250 170.303 C 161.080 171.439,161.195 171.541,161.408 173.097 L 161.523 173.943 159.634 173.961 C 156.289 173.993,154.053 174.730,152.411 176.343 C 151.468 177.269,151.475 177.267,150.913 176.899 L 150.504 176.631 151.767 175.274 C 153.449 173.466,154.586 171.734,155.012 170.333 L 155.358 169.191 156.388 169.580 C 156.954 169.794,157.792 170.119,158.250 170.303 M30.082 170.021 C 31.333 170.207,31.351 170.217,32.287 171.229 C 33.757 172.820,36.604 175.580,38.206 176.966 C 39.939 178.467,39.941 178.459,37.970 178.019 C 35.519 177.471,32.772 177.024,30.338 176.778 L 28.094 176.551 26.581 174.962 C 24.352 172.622,23.483 170.790,24.375 170.310 C 25.289 169.819,27.851 169.689,30.082 170.021 M265.721 174.750 C 272.914 176.004,272.582 180.891,264.711 189.634 L 263.672 190.788 264.961 190.990 C 273.237 192.282,277.919 194.818,277.627 197.850 C 277.295 201.305,272.725 205.243,265.964 207.899 C 263.622 208.820,263.817 208.811,262.721 208.056 C 261.649 207.318,261.608 207.579,263.026 206.141 C 271.756 197.288,263.210 189.306,247.083 191.252 C 245.983 191.384,244.979 191.495,244.851 191.497 C 244.722 191.498,245.286 190.806,246.103 189.958 C 250.440 185.456,252.683 181.841,253.669 177.764 C 254.066 176.125,253.939 176.235,256.105 175.650 C 260.476 174.470,262.844 174.248,265.721 174.750 M148.625 179.591 C 149.185 179.762,149.088 180.039,148.169 180.899 C 143.281 185.471,127.048 191.846,114.360 194.177 C 112.548 194.510,112.335 194.495,112.331 194.032 C 112.329 193.795,112.088 193.057,110.902 189.656 C 110.645 188.919,122.487 184.220,129.524 182.266 C 137.943 179.929,146.026 178.797,148.625 179.591 M30.922 180.247 C 38.099 181.137,46.408 183.393,55.000 186.784 C 57.834 187.903,62.167 189.896,62.167 190.080 C 62.167 190.138,61.904 190.987,61.583 191.967 C 61.262 192.948,60.925 194.058,60.833 194.435 C 60.641 195.226,60.972 195.213,57.583 194.559 C 46.867 192.490,33.789 187.616,27.250 183.252 C 25.432 182.040,23.833 180.611,24.050 180.394 C 24.470 179.974,28.094 179.897,30.922 180.247 M306.833 180.679 C 314.059 181.396,322.675 183.929,331.944 188.062 C 334.278 189.103,341.285 192.620,341.402 192.809 C 341.529 193.015,341.694 192.988,334.083 193.994 C 318.001 196.119,298.323 197.085,284.466 196.430 L 281.682 196.299 281.414 195.493 C 280.770 193.552,279.247 191.873,276.826 190.433 C 276.097 189.999,275.500 189.614,275.500 189.578 C 275.500 189.414,280.455 186.246,282.247 185.265 C 289.590 181.244,297.556 179.758,306.833 180.679 M81.167 184.667 C 81.954 185.454,81.342 187.000,80.243 187.000 C 79.014 187.000,78.353 185.578,79.173 184.698 C 79.624 184.214,80.697 184.197,81.167 184.667 M150.795 185.851 C 152.503 186.221,154.262 186.922,154.644 187.386 C 155.335 188.227,153.371 190.191,150.196 191.835 L 149.141 192.380 146.696 191.945 C 144.038 191.471,141.060 191.073,138.840 190.893 L 137.430 190.780 138.007 190.524 C 140.203 189.550,144.848 187.229,146.167 186.446 C 148.011 185.351,148.306 185.313,150.795 185.851 M26.550 186.841 C 28.816 188.184,32.276 189.921,34.833 190.999 C 37.062 191.939,37.458 192.167,36.862 192.167 C 34.795 192.167,27.496 193.257,24.510 194.012 C 22.018 194.642,22.212 194.664,19.814 193.485 C 15.717 191.470,13.410 189.435,13.992 188.348 C 14.610 187.194,19.516 185.947,23.800 185.856 C 24.802 185.834,24.927 185.879,26.550 186.841 M70.769 189.714 C 71.947 190.793,71.600 192.579,70.103 193.149 C 69.231 193.481,68.254 193.154,67.714 192.350 C 66.362 190.338,68.982 188.077,70.769 189.714 M157.916 193.458 C 158.860 194.352,160.237 195.533,160.976 196.083 C 162.674 197.348,162.679 197.333,160.539 197.333 L 158.745 197.333 158.000 196.564 C 157.052 195.586,156.104 194.935,154.698 194.297 L 153.583 193.792 153.998 193.521 C 154.226 193.372,154.788 192.937,155.248 192.554 C 155.707 192.170,156.109 191.852,156.141 191.845 C 156.173 191.839,156.971 192.565,157.916 193.458 M134.807 194.004 C 145.377 194.517,154.171 196.650,155.769 199.089 C 157.640 201.945,143.600 205.477,130.229 205.514 L 126.583 205.524 123.917 204.783 C 120.933 203.954,117.445 203.154,114.863 202.706 L 113.142 202.408 113.101 200.122 L 113.060 197.837 113.655 197.738 C 117.494 197.097,122.710 195.812,127.750 194.265 C 129.287 193.793,129.958 193.769,134.807 194.004 M338.500 196.365 C 326.053 208.378,314.972 213.405,301.583 213.115 C 294.142 212.953,285.728 210.874,277.601 207.187 L 276.453 206.666 277.857 205.208 C 280.280 202.693,281.466 200.544,281.651 198.336 C 281.734 197.348,281.808 197.096,282.003 197.142 C 282.139 197.174,283.412 197.490,284.833 197.845 C 301.471 201.996,325.391 200.622,339.667 194.694 C 340.525 194.338,340.369 194.561,338.500 196.365 M209.000 195.321 C 221.291 198.854,225.401 213.698,216.642 222.920 C 209.820 230.101,198.007 229.562,191.743 221.783 C 185.585 214.136,187.636 202.247,195.971 197.268 C 199.807 194.977,205.068 194.190,209.000 195.321 M257.667 195.632 C 264.507 197.977,263.916 201.270,255.675 206.726 L 253.766 207.989 254.592 208.350 C 261.931 211.562,264.900 214.524,263.118 216.861 C 259.469 221.645,246.523 222.958,236.509 219.560 C 234.967 219.037,231.500 217.389,231.500 217.180 C 231.500 216.658,239.342 214.862,243.625 214.402 C 244.892 214.266,245.004 213.944,243.875 213.685 C 240.074 212.815,231.065 212.786,228.375 213.636 L 227.333 213.965 227.333 213.577 C 227.333 213.146,227.389 213.122,229.083 212.825 C 229.725 212.713,231.075 212.334,232.083 211.984 C 234.947 210.988,242.090 209.521,245.638 209.199 C 248.895 208.904,245.796 208.091,240.583 207.873 C 235.630 207.666,230.398 208.015,228.512 208.678 C 227.413 209.064,227.333 209.069,227.333 208.758 C 227.333 208.608,227.572 208.474,227.958 208.407 C 229.746 208.098,231.776 207.605,233.417 207.081 C 235.270 206.489,248.682 204.000,250.019 204.000 C 251.657 204.000,251.558 203.449,249.875 203.199 C 243.190 202.208,233.329 202.542,229.294 203.897 C 227.760 204.412,227.759 204.407,229.116 203.180 C 232.756 199.889,238.038 197.227,243.333 196.014 C 248.325 194.871,254.932 194.695,257.667 195.632 M49.050 195.994 C 51.913 196.812,55.843 197.725,58.250 198.132 L 60.083 198.441 60.167 200.652 C 60.265 203.264,60.487 203.004,57.750 203.488 C 54.836 204.004,50.349 205.124,47.000 206.171 L 44.250 207.031 40.546 206.930 C 29.224 206.620,18.965 204.330,17.508 201.787 C 16.239 199.572,25.201 196.543,35.583 195.678 C 36.775 195.579,38.012 195.473,38.333 195.442 C 38.654 195.412,40.679 195.376,42.833 195.362 L 46.750 195.337 49.050 195.994 M79.279 195.722 C 83.422 197.864,81.839 204.160,77.251 203.792 C 72.519 203.412,71.806 196.964,76.332 195.479 C 76.954 195.275,78.692 195.418,79.279 195.722 M164.857 201.507 C 169.525 201.978,178.442 204.817,177.918 205.665 C 177.602 206.175,171.127 207.690,166.792 208.267 C 163.891 208.654,163.985 208.920,167.195 209.413 C 171.105 210.013,178.780 209.873,181.053 209.161 C 181.620 208.983,182.102 208.837,182.125 208.835 C 182.235 208.830,182.150 209.491,182.031 209.564 C 181.957 209.610,181.151 209.801,180.240 209.988 C 179.329 210.176,177.983 210.556,177.250 210.834 C 174.927 211.714,167.301 213.278,163.769 213.598 C 162.609 213.703,162.150 213.873,162.388 214.110 C 163.702 215.424,178.528 215.153,181.875 213.753 C 182.092 213.662,182.167 213.711,182.167 213.943 C 182.167 214.209,181.878 214.311,180.208 214.631 C 179.131 214.838,177.313 215.303,176.167 215.665 C 174.101 216.318,162.205 218.553,159.430 218.810 C 158.241 218.920,157.825 219.211,158.584 219.402 C 163.789 220.708,177.899 220.187,181.020 218.573 C 181.878 218.129,181.529 218.606,180.125 219.795 C 173.865 225.097,166.354 227.701,157.250 227.726 C 153.064 227.737,152.171 227.573,151.645 226.698 C 151.441 226.360,150.913 225.616,150.471 225.045 C 149.506 223.800,149.519 223.930,150.344 223.683 C 151.253 223.411,152.251 222.476,152.595 221.576 C 152.859 220.884,152.857 220.566,152.579 219.457 C 152.481 219.067,152.524 219.035,153.279 218.927 C 163.768 217.433,164.760 211.261,155.360 205.980 L 153.971 205.199 155.360 204.484 C 156.389 203.955,157.053 203.456,157.917 202.567 L 159.083 201.364 161.107 201.349 C 162.221 201.340,163.908 201.412,164.857 201.507 M115.190 206.175 C 128.447 208.803,143.832 214.963,148.576 219.543 C 149.673 220.603,149.495 220.715,146.563 220.804 C 138.956 221.036,124.233 217.081,112.970 211.780 L 111.024 210.864 111.497 209.640 C 111.757 208.967,112.105 207.835,112.269 207.125 C 112.621 205.602,112.498 205.642,115.190 206.175 M61.513 208.627 C 61.932 209.886,62.329 211.035,62.395 211.180 C 62.675 211.798,53.252 215.688,46.070 217.918 C 37.497 220.581,26.806 222.223,24.513 221.230 L 24.109 221.055 24.846 220.255 C 29.108 215.631,47.357 208.547,60.667 206.351 C 60.712 206.343,61.093 207.368,61.513 208.627 M151.513 207.853 C 156.108 209.958,158.944 212.276,158.330 213.424 C 157.887 214.250,155.496 215.149,152.583 215.583 C 149.797 215.998,149.762 215.992,147.740 214.676 C 145.658 213.320,141.575 211.206,138.393 209.835 C 137.156 209.302,136.109 208.831,136.066 208.788 C 136.023 208.746,136.685 208.660,137.536 208.598 C 140.113 208.411,144.200 207.838,146.539 207.335 C 149.194 206.766,149.126 206.759,151.513 207.853 M26.500 208.904 C 28.534 209.297,31.485 209.700,34.333 209.974 L 35.750 210.110 34.500 210.673 C 32.361 211.636,28.148 213.779,26.683 214.649 C 25.706 215.229,25.151 215.461,24.849 215.415 C 17.855 214.333,16.879 212.937,21.167 210.147 C 23.931 208.347,23.790 208.380,26.500 208.904 M70.924 209.076 C 71.825 209.976,71.257 211.409,70.000 211.409 C 69.123 211.409,68.667 210.925,68.667 209.994 C 68.667 208.802,70.077 208.229,70.924 209.076 M328.928 209.811 C 328.792 210.074,328.402 210.655,328.060 211.102 C 327.344 212.041,326.333 214.023,325.922 215.293 C 325.537 216.486,323.442 219.503,323.077 219.391 C 322.989 219.364,321.642 219.114,320.083 218.835 C 309.544 216.952,308.362 216.667,311.087 216.667 C 312.839 216.667,322.008 213.658,323.243 212.678 C 323.339 212.603,324.408 212.038,325.619 211.424 C 326.830 210.809,328.105 210.093,328.452 209.831 C 328.799 209.570,329.104 209.351,329.129 209.345 C 329.155 209.338,329.064 209.548,328.928 209.811 M335.827 209.606 C 339.005 211.483,334.201 217.808,327.994 219.919 C 326.325 220.486,326.241 220.457,326.930 219.555 C 327.596 218.682,328.347 217.253,328.667 216.250 C 330.097 211.766,333.748 208.378,335.827 209.606 M86.983 210.552 C 89.356 212.123,88.273 215.885,85.442 215.906 C 83.888 215.918,82.880 215.148,82.485 213.649 C 81.817 211.112,84.763 209.083,86.983 210.552 M347.872 211.521 C 350.126 212.727,347.779 218.571,343.733 221.826 C 342.224 223.040,342.129 223.056,342.450 222.042 C 342.588 221.606,342.764 220.237,342.841 219.000 C 343.187 213.418,345.365 210.179,347.872 211.521 M272.167 212.255 C 296.880 214.403,311.431 224.491,319.165 244.838 C 320.156 247.446,323.000 256.715,323.000 257.338 C 323.000 257.406,322.531 257.433,321.958 257.398 C 321.385 257.362,319.604 257.256,318.000 257.161 C 298.656 256.019,283.567 250.852,274.581 242.293 L 272.956 240.746 274.526 239.967 C 283.256 235.633,280.424 225.653,268.596 219.067 C 267.163 218.269,267.037 218.130,267.329 217.668 C 267.515 217.374,268.513 217.834,272.661 220.125 C 288.035 228.617,301.853 239.040,316.250 253.003 C 317.625 254.336,318.933 255.575,319.156 255.755 L 319.562 256.083 319.168 255.417 C 308.253 236.946,287.571 221.356,268.108 216.927 C 267.670 216.827,267.638 216.769,267.710 216.201 C 267.827 215.282,267.534 213.700,267.081 212.797 L 266.680 212.000 267.965 212.001 C 268.672 212.001,270.563 212.116,272.167 212.255 M359.701 213.507 C 362.789 214.364,360.137 220.324,355.201 223.618 C 353.597 224.689,353.515 224.675,353.985 223.418 C 354.178 222.903,354.449 221.716,354.588 220.782 C 355.118 217.212,356.453 214.471,358.044 213.683 C 358.857 213.280,358.878 213.278,359.701 213.507 M117.417 217.383 C 118.700 217.893,120.865 218.690,122.227 219.154 C 129.048 221.477,143.333 235.426,143.333 239.763 C 143.333 243.018,132.243 239.099,121.804 232.156 C 117.097 229.025,116.111 228.244,114.893 226.684 C 112.790 223.989,110.584 221.421,108.719 219.494 L 106.854 217.568 107.442 216.826 C 107.765 216.417,108.361 215.585,108.766 214.975 L 109.503 213.867 112.293 215.161 C 113.828 215.873,116.133 216.872,117.417 217.383 M64.883 215.544 C 65.293 216.119,65.900 216.915,66.234 217.314 L 66.839 218.039 65.128 219.812 C 63.121 221.892,59.849 225.777,57.781 228.534 C 56.200 230.642,55.599 231.153,51.417 233.943 C 43.145 239.462,34.552 243.051,31.675 242.189 C 28.956 241.374,34.508 233.461,42.760 226.391 C 48.455 221.513,50.726 219.988,54.250 218.679 C 57.113 217.615,60.913 215.985,62.750 215.034 C 64.068 214.352,64.024 214.341,64.883 215.544 M374.873 216.108 C 377.484 217.436,374.187 222.696,369.250 225.080 C 366.861 226.233,366.887 226.238,367.652 224.803 C 368.010 224.132,368.460 222.999,368.652 222.286 C 369.475 219.234,371.379 216.526,373.142 215.900 C 373.773 215.676,374.101 215.715,374.873 216.108 M386.758 217.909 C 388.063 219.214,385.620 222.909,381.965 225.159 C 380.172 226.261,380.093 226.244,380.658 224.875 C 380.914 224.256,381.288 223.225,381.490 222.583 C 382.624 218.991,385.387 216.539,386.758 217.909 M106.885 222.458 C 115.612 232.013,123.743 244.847,125.346 251.596 C 125.818 253.583,125.762 253.656,124.349 252.914 C 119.895 250.573,111.905 241.741,105.580 232.167 C 102.498 227.502,100.077 223.169,100.478 223.035 C 100.784 222.933,103.873 220.612,104.145 220.279 C 104.499 219.847,104.503 219.850,106.885 222.458 M70.255 221.232 C 70.749 221.635,71.679 222.291,72.320 222.691 C 73.713 223.558,73.682 223.364,72.718 225.141 C 66.115 237.327,53.541 252.192,48.520 253.747 C 47.190 254.158,49.733 247.420,53.083 241.656 C 56.949 235.002,61.613 228.662,66.958 222.792 C 69.353 220.161,69.091 220.285,70.255 221.232 M267.250 222.972 C 271.213 225.308,273.589 227.649,275.034 230.641 C 277.081 234.884,272.852 237.760,263.714 238.341 C 262.279 238.432,261.084 238.527,261.060 238.551 C 261.036 238.575,261.513 239.268,262.121 240.089 C 267.370 247.184,268.391 252.418,264.831 253.978 C 261.488 255.443,256.870 254.879,250.603 252.243 C 248.137 251.206,248.312 251.387,248.071 249.625 L 247.962 248.833 249.823 248.833 C 258.014 248.833,260.840 243.813,257.040 236.012 C 255.713 233.287,251.573 228.891,247.756 226.154 L 246.960 225.583 249.689 225.468 C 256.383 225.186,260.652 224.077,263.736 221.819 L 264.389 221.341 265.319 221.862 C 265.831 222.148,266.700 222.648,267.250 222.972 M136.763 223.149 C 139.466 223.682,142.946 224.167,144.074 224.167 C 145.594 224.167,149.333 228.282,149.333 229.956 C 149.333 230.841,146.446 231.272,143.328 230.853 L 141.965 230.669 139.707 228.325 C 138.465 227.036,136.547 225.186,135.445 224.215 C 134.144 223.069,133.588 222.486,133.859 222.554 C 134.088 222.611,135.395 222.879,136.763 223.149 M41.500 223.020 C 38.692 225.325,34.077 229.877,32.268 232.125 C 31.733 232.790,31.248 233.333,31.189 233.333 C 31.131 233.333,30.145 233.528,29.000 233.765 C 25.011 234.591,21.016 234.465,20.498 233.496 C 19.640 231.894,26.134 224.834,28.465 224.833 C 30.689 224.833,38.513 223.586,40.917 222.849 C 41.763 222.589,41.956 222.646,41.500 223.020 M229.833 223.022 C 241.024 224.264,255.140 235.180,254.632 242.199 C 254.437 244.895,250.473 245.574,243.771 244.062 C 242.774 243.837,241.939 243.675,241.915 243.701 C 241.892 243.728,242.204 244.612,242.609 245.667 C 245.030 251.967,244.832 256.180,242.097 256.590 C 236.099 257.489,225.208 248.291,221.072 238.833 C 220.267 236.991,219.425 234.520,219.557 234.387 C 219.865 234.080,225.913 237.842,229.310 240.454 C 231.490 242.129,231.723 242.020,230.308 239.984 C 227.740 236.291,222.248 230.900,219.818 229.685 C 218.883 229.218,218.862 229.193,219.168 228.915 C 219.472 228.641,219.525 228.657,220.362 229.272 C 220.844 229.627,222.479 230.557,223.994 231.340 C 226.745 232.761,230.929 235.526,234.628 238.366 C 236.652 239.921,237.003 239.830,235.751 238.076 C 232.614 233.679,226.420 227.734,223.480 226.297 C 222.549 225.842,222.358 225.687,222.540 225.536 C 222.719 225.387,223.101 225.575,224.309 226.409 C 225.157 226.994,226.728 227.929,227.800 228.489 C 229.617 229.436,239.302 236.056,241.963 238.170 C 243.278 239.213,243.503 238.947,242.486 237.553 C 238.707 232.371,231.225 225.386,227.453 223.518 C 226.654 223.122,226.000 222.771,226.000 222.739 C 226.000 222.663,227.793 222.795,229.833 223.022 M98.369 226.792 C 99.953 229.676,102.084 233.101,104.105 236.011 C 105.683 238.284,105.957 238.785,106.455 240.317 C 110.784 253.614,111.668 267.607,108.072 265.900 C 104.497 264.203,98.905 254.401,95.228 243.382 L 94.139 240.119 93.989 236.954 C 93.831 233.599,93.442 229.272,93.145 227.540 C 92.944 226.372,93.018 226.002,93.453 225.996 C 93.616 225.994,94.462 225.737,95.333 225.425 C 96.204 225.113,97.001 224.852,97.105 224.845 C 97.209 224.839,97.777 225.715,98.369 226.792 M78.833 225.681 C 79.796 225.973,80.667 226.233,80.769 226.259 C 80.899 226.291,80.912 226.573,80.813 227.194 C 80.322 230.279,79.833 236.742,79.833 240.152 C 79.833 248.350,68.035 269.968,65.594 266.243 C 63.428 262.937,64.848 250.643,68.751 238.917 C 69.406 236.947,69.631 236.511,71.221 234.129 C 72.870 231.658,74.474 228.964,75.940 226.204 C 76.388 225.360,76.659 225.016,76.833 225.071 C 76.971 225.114,77.871 225.389,78.833 225.681 M325.735 226.768 C 331.164 232.186,332.720 240.083,328.357 240.083 C 325.589 240.083,323.742 235.687,324.348 230.538 C 324.540 228.909,324.432 227.094,324.061 225.708 C 323.888 225.059,324.254 225.291,325.735 226.768 M186.735 227.219 C 186.321 227.786,185.393 229.412,184.673 230.833 C 183.418 233.306,179.372 239.367,177.233 241.977 C 175.985 243.500,176.370 243.593,178.274 242.228 C 182.487 239.209,188.437 232.987,189.767 230.210 C 190.333 229.027,190.268 229.106,190.579 229.225 C 190.786 229.305,190.623 229.638,189.771 230.871 C 189.183 231.721,188.222 233.320,187.636 234.424 C 186.649 236.282,179.465 246.796,177.833 248.771 C 177.022 249.753,177.183 250.098,178.142 249.434 C 181.237 247.289,185.964 242.828,188.933 239.250 C 191.385 236.295,191.604 235.993,192.520 234.300 L 193.358 232.750 193.266 234.627 C 192.852 243.092,186.752 254.240,179.844 259.159 L 179.372 259.495 178.256 257.257 C 175.647 252.018,170.895 245.995,165.467 241.047 C 164.294 239.977,163.333 239.069,163.333 239.030 C 163.333 238.574,168.478 233.328,170.250 231.976 C 173.682 229.358,181.166 225.610,181.764 226.209 C 182.052 226.497,178.384 232.393,175.814 235.775 C 174.059 238.085,174.076 238.373,175.896 237.145 C 179.542 234.684,185.050 229.118,186.361 226.571 C 186.909 225.507,186.921 225.497,187.202 225.840 C 187.478 226.176,187.461 226.225,186.735 227.219 M89.728 227.375 C 90.859 233.610,91.023 246.644,90.071 254.667 C 89.215 261.887,87.498 267.211,86.535 265.634 C 83.622 260.864,82.297 242.503,83.927 229.500 C 84.305 226.488,83.909 226.833,86.985 226.833 L 89.630 226.833 89.728 227.375 M395.599 227.241 C 397.183 227.719,397.773 228.819,396.966 229.791 C 396.053 230.892,392.655 230.721,389.583 229.420 C 388.850 229.109,387.931 228.772,387.542 228.671 C 386.677 228.446,386.671 228.406,387.458 228.076 C 390.271 226.898,393.398 226.577,395.599 227.241 M342.927 231.396 C 346.552 235.927,347.141 241.167,344.024 241.167 C 341.575 241.167,340.604 238.264,340.886 231.792 C 340.903 231.402,340.859 230.647,340.789 230.114 L 340.661 229.146 341.258 229.601 C 341.586 229.851,342.337 230.659,342.927 231.396 M356.227 231.825 C 359.722 235.160,361.524 240.392,359.524 241.398 C 356.861 242.738,354.515 239.127,354.500 233.667 C 354.498 232.796,354.385 231.671,354.250 231.167 C 354.115 230.662,354.003 230.189,354.002 230.114 C 353.999 229.887,355.015 230.669,356.227 231.825 M367.550 231.274 C 372.036 233.579,375.896 239.453,374.102 241.246 C 371.925 243.423,368.774 240.103,367.908 234.719 C 367.766 233.837,367.466 232.680,367.241 232.146 C 366.685 230.825,366.684 230.829,367.550 231.274 M163.387 232.720 C 162.570 233.575,161.536 234.741,161.088 235.310 C 160.100 236.568,160.500 236.689,157.038 234.083 L 154.160 231.917 157.705 231.815 C 160.822 231.726,164.284 231.429,164.486 231.234 C 164.524 231.197,164.627 231.167,164.714 231.167 C 164.801 231.167,164.204 231.866,163.387 232.720 M381.857 233.313 C 385.947 236.409,387.947 241.204,385.312 241.598 C 383.739 241.834,381.852 238.979,381.227 235.418 C 380.995 234.096,380.813 233.353,380.584 232.792 C 380.389 232.316,380.720 232.452,381.857 233.313 M151.681 235.192 C 160.855 241.491,169.133 249.672,173.140 256.399 C 173.705 257.346,174.167 258.182,174.167 258.255 C 174.167 258.328,173.285 257.529,172.208 256.479 C 166.359 250.775,159.437 245.956,150.939 241.671 L 146.795 239.581 146.487 238.370 C 146.318 237.705,145.877 236.577,145.507 235.866 C 145.136 235.154,144.834 234.537,144.835 234.494 C 144.836 234.451,145.529 234.404,146.377 234.388 C 147.224 234.371,148.217 234.285,148.583 234.196 C 149.732 233.916,149.903 233.971,151.681 235.192 M203.087 234.625 C 203.341 236.176,203.710 237.602,204.227 239.034 C 205.068 241.362,206.484 248.480,206.931 252.625 C 207.144 254.600,207.475 254.015,208.039 250.667 C 208.725 246.597,208.158 236.855,207.086 234.292 C 206.995 234.074,207.044 234.000,207.277 234.000 C 207.545 234.000,207.645 234.286,207.965 235.958 C 208.171 237.035,208.632 238.817,208.989 239.917 C 209.616 241.847,211.783 253.545,212.100 256.708 C 212.239 258.101,212.567 258.215,212.818 256.958 C 214.099 250.554,213.561 239.410,211.745 234.750 C 211.361 233.764,214.125 237.008,215.672 239.358 C 220.392 246.529,222.619 259.146,220.223 265.136 C 217.919 270.895,214.703 270.216,209.795 262.935 C 208.213 260.588,208.099 260.459,207.940 260.842 C 205.127 267.612,201.889 271.248,199.700 270.097 C 193.895 267.045,192.863 250.498,197.835 240.196 C 198.380 239.067,198.897 238.186,198.983 238.240 C 199.501 238.560,200.897 244.608,201.506 249.167 C 201.776 251.188,201.814 251.333,202.069 251.333 C 203.363 251.333,203.492 237.547,202.229 234.256 C 202.157 234.067,202.242 234.000,202.558 234.000 C 202.922 234.000,203.000 234.092,203.087 234.625 M124.195 237.635 C 126.555 239.033,130.250 240.929,132.209 241.747 C 134.623 242.756,138.756 251.736,137.502 253.248 C 136.798 254.096,133.253 253.045,129.585 250.899 L 128.571 250.306 128.000 248.616 C 127.296 246.539,124.820 241.518,123.013 238.506 C 122.272 237.272,121.667 236.236,121.667 236.204 C 121.667 236.133,121.479 236.027,124.195 237.635 M50.172 239.977 C 49.037 241.890,47.084 245.750,46.493 247.250 C 45.961 248.600,45.878 248.680,44.118 249.547 C 40.077 251.537,38.523 251.502,38.721 249.425 C 38.895 247.608,40.567 243.600,41.235 243.402 C 42.015 243.171,47.378 240.439,49.167 239.360 C 50.221 238.725,51.104 238.223,51.130 238.246 C 51.155 238.268,50.724 239.048,50.172 239.977 M146.538 243.853 C 154.711 247.978,165.156 254.474,173.594 260.679 L 176.271 262.647 176.979 264.889 C 177.748 267.325,178.753 271.236,178.927 272.474 L 179.036 273.250 177.399 271.667 C 176.499 270.796,175.722 270.040,175.673 269.987 C 170.043 263.900,154.223 255.480,142.833 252.509 L 141.083 252.052 140.960 251.077 C 140.788 249.713,140.120 247.719,139.153 245.683 C 138.194 243.663,138.177 243.819,139.333 244.031 C 140.855 244.310,143.628 244.134,144.417 243.708 C 145.284 243.240,145.330 243.243,146.538 243.853 M63.433 245.125 C 62.665 247.631,61.333 255.711,61.333 257.866 C 61.333 259.893,53.998 266.445,52.324 265.914 C 51.125 265.533,51.063 261.739,52.178 256.990 L 52.530 255.492 54.223 254.130 C 56.154 252.577,60.352 248.381,62.083 246.273 C 63.234 244.872,63.608 244.554,63.433 245.125 M113.678 248.104 C 115.351 249.953,117.590 252.116,119.302 253.537 C 120.631 254.641,120.920 261.019,119.659 261.419 C 118.896 261.661,115.842 259.710,114.146 257.896 C 113.552 257.261,113.537 257.211,113.260 254.917 C 113.035 253.056,112.281 248.894,111.712 246.375 C 111.583 245.803,111.639 245.852,113.678 248.104 M94.321 250.625 C 95.152 252.967,98.032 258.795,99.513 261.131 C 100.676 262.965,99.137 271.355,97.318 273.098 C 96.175 274.193,93.262 270.656,91.586 266.136 L 91.296 265.355 91.898 263.136 C 92.665 260.306,93.245 256.894,93.616 253.042 C 93.927 249.808,93.974 249.647,94.321 250.625 M228.470 254.888 C 232.061 257.939,235.634 259.863,238.750 260.424 C 239.663 260.588,239.945 260.758,240.042 261.203 C 240.087 261.412,240.352 262.408,240.630 263.417 C 242.176 269.029,241.916 273.780,239.919 276.399 C 238.014 278.896,232.929 277.122,227.137 271.940 C 225.093 270.111,225.371 269.989,224.914 272.917 C 224.062 278.369,221.978 282.906,219.820 284.007 C 216.523 285.689,211.603 280.872,208.245 272.673 C 207.297 270.358,207.301 270.439,208.069 269.373 L 208.700 268.497 210.058 269.777 C 219.247 278.437,227.218 269.249,224.782 252.805 L 224.568 251.359 226.045 252.721 C 226.858 253.470,227.949 254.445,228.470 254.888 M80.423 254.353 C 80.738 257.211,81.082 259.296,81.611 261.550 L 82.033 263.351 81.262 264.884 C 78.538 270.299,76.823 270.379,75.519 265.152 C 74.830 262.392,74.804 262.563,76.321 259.833 C 77.466 257.775,79.195 254.127,79.829 252.435 C 80.096 251.722,80.154 251.908,80.423 254.353 M190.668 257.833 C 191.075 263.548,192.044 266.986,194.138 270.152 L 194.735 271.054 194.014 272.402 C 192.645 274.965,190.597 277.875,189.474 278.852 C 187.576 280.505,185.306 282.000,184.694 282.000 C 184.611 282.000,184.414 281.006,184.257 279.792 C 183.579 274.573,182.676 270.017,181.486 265.805 C 181.127 264.535,180.833 263.470,180.833 263.439 C 180.833 263.408,181.190 263.160,181.625 262.887 C 183.555 261.677,187.529 257.673,189.553 254.901 L 190.417 253.718 190.456 254.567 C 190.478 255.034,190.573 256.504,190.668 257.833 M130.385 255.154 C 131.136 255.513,132.028 255.921,132.369 256.059 C 132.948 256.295,133.098 256.531,134.738 259.781 C 135.701 261.689,136.877 263.977,137.351 264.865 L 138.213 266.481 137.240 268.184 C 130.902 279.281,129.456 295.940,133.743 308.486 C 133.976 309.167,134.136 309.753,134.099 309.790 C 133.944 309.945,127.578 305.750,125.144 303.889 L 123.538 302.660 123.432 301.622 C 122.088 288.436,123.173 274.604,126.579 261.500 C 127.629 257.465,128.636 254.500,128.957 254.500 C 128.992 254.500,129.634 254.794,130.385 255.154 M144.066 256.262 C 157.471 261.978,171.341 269.754,179.373 276.056 C 179.867 276.444,181.496 290.210,181.096 290.624 C 181.075 290.647,180.653 290.159,180.160 289.541 C 172.173 279.534,156.395 269.495,143.796 266.403 C 142.425 266.067,142.813 266.578,140.015 261.428 C 137.264 256.366,137.445 257.021,138.645 256.463 C 139.223 256.194,139.802 255.770,140.068 255.422 C 140.625 254.692,140.148 254.591,144.066 256.262 M124.517 256.716 L 124.951 256.917 124.403 258.083 L 123.856 259.250 123.842 258.250 C 123.835 257.700,123.784 257.081,123.728 256.875 C 123.613 256.446,123.837 256.401,124.517 256.716 M114.715 262.821 C 117.274 264.751,119.789 265.236,121.635 264.156 C 121.938 263.978,122.210 263.833,122.239 263.833 C 122.269 263.833,122.000 264.865,121.643 266.125 C 118.622 276.782,118.360 288.749,120.927 298.874 C 121.159 299.790,121.314 300.574,121.272 300.617 C 120.917 300.972,114.392 294.145,112.091 291.010 L 111.436 290.119 111.274 286.934 C 110.980 281.139,111.758 268.392,112.490 267.018 C 112.869 266.305,113.354 264.459,113.446 263.375 C 113.566 261.968,113.577 261.963,114.715 262.821 M105.583 268.338 C 106.042 268.653,106.774 269.032,107.212 269.181 L 108.007 269.451 108.075 273.434 C 108.165 278.659,108.672 282.460,109.840 286.658 C 110.446 288.836,110.449 288.836,109.183 286.806 C 105.121 280.299,102.166 271.492,102.788 267.751 L 103.051 266.167 103.901 266.966 C 104.368 267.406,105.125 268.023,105.583 268.338 M140.497 270.750 C 141.172 272.033,142.911 275.216,144.362 277.822 C 145.813 280.428,147.000 282.624,147.000 282.702 C 147.000 282.779,146.764 283.309,146.476 283.880 C 142.241 292.264,142.177 304.776,146.321 314.458 C 146.762 315.490,147.082 316.333,147.031 316.333 C 146.572 316.333,136.833 311.555,136.388 311.111 C 136.280 311.004,136.075 309.717,135.931 308.250 C 135.045 299.215,135.095 289.875,136.073 281.750 C 136.563 277.681,138.036 269.492,138.606 267.676 C 138.699 267.379,138.874 267.663,140.497 270.750 M147.202 269.938 C 149.062 271.004,150.771 272.004,151.000 272.159 C 151.229 272.315,152.054 272.804,152.833 273.247 C 159.918 277.271,172.287 286.037,179.692 292.281 L 181.134 293.497 181.254 295.423 C 181.320 296.483,181.309 298.663,181.229 300.267 L 181.083 303.185 179.808 301.467 C 174.574 294.422,165.926 287.785,157.611 284.433 C 156.007 283.786,152.135 282.500,151.792 282.500 C 151.670 282.500,151.278 281.956,150.922 281.292 C 150.565 280.627,149.173 278.096,147.829 275.667 C 144.588 269.811,143.619 268.000,143.729 268.000 C 143.779 268.000,145.342 268.872,147.202 269.938 M149.013 285.958 C 150.583 288.655,152.348 291.581,154.423 294.928 L 156.290 297.939 155.964 299.761 C 154.907 305.664,156.153 313.264,159.163 319.271 C 159.686 320.314,160.060 321.167,159.996 321.167 C 159.381 321.167,148.667 317.168,148.667 316.938 C 148.667 316.898,148.557 315.864,148.424 314.641 C 147.229 303.697,146.902 288.785,147.764 284.542 C 147.873 284.000,147.871 283.997,149.013 285.958 M164.646 292.790 C 169.424 296.235,174.717 300.331,179.254 304.095 L 181.092 305.620 180.897 309.018 C 180.693 312.593,180.342 316.875,180.244 316.976 C 180.213 317.009,179.740 316.146,179.194 315.059 C 175.540 307.784,168.482 300.861,161.114 297.325 C 159.504 296.553,159.467 296.521,158.807 295.395 C 157.707 293.515,153.000 285.023,153.000 284.917 C 153.000 284.783,161.645 290.627,164.646 292.790 M166.322 312.570 C 169.826 317.242,172.049 319.880,175.148 323.042 C 176.563 324.485,177.602 325.667,177.457 325.667 C 176.338 325.667,162.819 322.247,162.499 321.883 C 162.435 321.810,162.176 320.475,161.925 318.917 C 161.673 317.358,160.838 312.933,160.068 309.083 C 159.298 305.233,158.668 301.976,158.667 301.845 C 158.667 301.714,159.796 303.283,161.177 305.332 C 162.558 307.381,164.873 310.638,166.322 312.570 M163.921 303.015 C 167.511 306.667,175.683 314.345,178.417 316.635 C 179.242 317.326,179.976 317.942,180.050 318.004 C 180.173 318.108,179.749 321.998,179.311 324.792 C 179.003 326.753,178.739 326.593,175.737 322.623 C 172.904 318.876,169.616 313.818,165.255 306.500 C 164.081 304.529,162.974 302.673,162.796 302.375 C 162.286 301.521,162.663 301.735,163.921 303.015 " stroke="none" fill="#251d25" fill-rule="evenodd"></path>
  </g>
</svg>
