<?xml version="1.0" encoding="UTF-8"?>
<svg width="512" height="512" version="1.1" viewBox="0 0 940.58 940.58" xmlns="http://www.w3.org/2000/svg">
 <g transform="matrix(3 0 0 3 332.06 52.23)">
  <g transform="translate(-94.384 -1.7945)" fill="None" fill-opacity="0" stroke="#000">
   <path d="m104 3c-4.42-2.94-9.14 3.95-9 8 3.37-2.05 6.77-4.51 9-8z"/>
   <path d="m104 5c0.16-0.47 0.94 4.6 1 5 0.16-0.69 2.3-4.91 1-6-1-0.4-1.53 0.51-2 1z"/>
   <path d="m105 10c0.05 0.35 0.88 0.74 1 1 1.47-0.82 1.77-6.31 0-7 1.3 1.09-0.84 5.31-1 6z"/>
   <path d="m97 12c1.61-0.18 2.65 0.32 4 1 7.82 6.35 14.68 14.72 23 20-4.31-8.27-14.08-13.66-18-22-0.12-0.26-0.95-0.65-1-1-0.06-0.4-0.84-5.47-1-5-2.04 2.14-5.5 4.67-7 7z"/>
   <path d="m101 13c-1.35-0.68-2.39-1.18-4-1-1.03 0.13-1.59 1.17-2 2 1.29 1.16 9.01-0.1 6-1z"/>
   <path d="m119 56c0.31 3.25 0.75 8.69 5 5-0.96 1.57-2.32 3.25-4 4-9.18 11.74 12.74 15.7 13 24 0.25 0.23 0.01 2.62 0 3-0.06 2.25-0.8 6.16 2 7 0.34-0.23 1 0 1 0 0.52-5.78-3.18-12.3 2-13-1.3-2.97-5.77-4.22-5-8 4.14 1.28 3.35-3.41 5-5 0.52 2.83-0.12 6.95-4 6 1.18 2.88 8.45 6.43 4 9-0.43 3.77 1.65 10.44-2 13 0.38 1.82 0 4.14 0 6v1c1.5-0.63 2.67-2.16 4-3 1.91-1.2 3.44-2.68 6-2 0.48-2.66-3.53-3.32-3-6 2.42 1.3 4.04 3.57 5 6 4.32-0.53 8 1.19 12 2 2.06-3.86 4.88-9.33 9-11-1.29 4.61-7.02 7.22-8 12-7.58 0.07-20.91-5.93-23 5 10.48-4.38 34.28-4.49 30 13 1.6-0.53 0.72-2.75 1-4 0.04-0.35 0.93-0.76 1-1 0.94-3.3 1.39-6.56 2-10-0.03-0.14-0.85-1.51-1-2-1.22-4.05-1.34-8.24 1-12 1.19 2.59-0.77 7.39 0 11-0.11-0.42 1.19 2.24 1 2 0.5-0.05 1 0 1 0 0.29-0.49 2.83-4.19 3-2 0.21 2.72-6.82 6.64-4 11s-0.19 9.29 1 14c2.49 0.29 4.39-1.64 7-1 3.2-3.97-1.08-11.76-3-17s2.56-17.98-1.25-22.75c-3.81-4.78-9.07-6.34-13.75-9.25 2.85-10.55 3.93-22.57-8-26-7.86 0.36-4.78 9.22-8 13 1.25-0.3 1.71-1.83 3-2 3.91 0.3 8.13 3.61 12 1-2.27 5.91-10.52-2.47-14 2-1.19 3.05 2.6 3.49 2 7-7.56 2.64-10.11-4.81-15.75-7.25s-3.94-15.11-9.25-8.75c1.01-8.53-5.79-18.29 2-25-0.1-1.47 0.53-4.63-2-4 1.7 5.58-5.07 3.15-7 0 2.28 7.88 0.15 16.22 1 25m31 37c-3.01-0.7-6.37-3.96-7-7 2.62 1.89 5.24 4.35 7 7m13-5c-0.56 4.6-6.62 8.28-7 13 5.13-1.65 1.5 2.28-2 1 1.34-5.56 5.63-9.84 8-15 0.57-2.26 3.27 0.43 1 1m2 20c1.6-0.55-3.2-2.7-3-3h4c2.09 2.09 1.05 3.59-1 3z"/>
   <path d="m148 69c0.46-1.19 1.71-1.76 2-3-1.29 0.17-1.75 1.7-3 2 3.22-3.78 0.14-12.64 8-13-0.32-1.46-2.13-1.05-3-2-0.09 2.74-3.02 4.46-5 6-1.02-2.58-3.22-4.08-5-6-2.16-1.52-6.3-4.85-9-8-1.7-1.99-5.08-4.6-6-7-0.97-2.54 1.44-1.12 3 0-0.76-0.91-2.35-2.09-3-3-7.79 6.71-0.99 16.47-2 25 5.31-6.36 3.61 6.31 9.25 8.75s8.19 9.89 15.75 7.25c0.6-3.51-3.19-3.95-2-7m-21-18c1.21 6.27-2.9 3.91 0 0z"/>
   <path d="m127 38c1.23 1.63 7.48 7.43 10 10 1.15 0.92 3.1 1.95 4 3-2.51-5-7.24-8.47-11-13-1.56-1.12-3.97-2.54-3 0z"/>
   <path d="m127 38c0.92 2.4 4.3 5.01 6 7 1.15 1.1 2.8 2.04 4 3-2.52-2.57-8.77-8.37-10-10z"/>
   <path d="m142 53c-0.29-0.31-0.78-1.56-1-2-0.9-1.05-2.85-2.08-4-3-1.2-0.96-2.85-1.9-4-3 2.7 3.15 6.84 6.48 9 8z"/>
   <path d="m127 51c-2.9 3.91 1.21 6.27 0 0z"/>
   <path d="m117 62c0.12 0.54 1.81 1.83 1 3 0.76 0.5 2.2-3.93 2 0 1.68-0.75 3.04-2.43 4-4-4.25 3.69-4.69-1.75-5-5-0.31 1.34-2.87 1.98-2 6z"/>
   <path d="m118 65c0.81-1.17-0.88-2.46-1-3 0.11 1.35-0.17 2.24 1 3z"/>
   <path d="m148 69c3.48-4.47 11.73 3.91 14-2-3.87 2.61-8.09-0.7-12-1-0.29 1.24-1.54 1.81-2 3z"/>
   <path d="m136 99c1.8-1.74 1.4-8.72 2-11 4.45-2.57-2.82-6.12-4-9 3.88 0.95 4.52-3.17 4-6-1.65 1.59-0.86 6.28-5 5-0.77 3.78 3.7 5.03 5 8-5.18 0.7-1.48 7.22-2 13z"/>
   <path d="m150 93c-1.76-2.65-4.38-5.11-7-7 0.63 3.04 3.99 6.3 7 7z"/>
   <path d="m162 87c0.1-0.09 1.04 0.69 1 1 2.27-0.57-0.43-3.26-1-1z"/>
   <path d="m163 88c0.04-0.31-0.9-1.09-1-1-2.37 5.16-6.66 9.44-8 15 3.5 1.28 7.13-2.65 2-1 0.38-4.72 6.44-8.4 7-13z"/>
   <path d="m136 99s-0.66-0.23-1 0c-0.23 0.16 0 1.5 0 2 0.25-0.25 1 0 1 0 3.65-2.56 1.57-9.23 2-13-0.6 2.28-0.2 9.26-2 11z"/>
   <path d="m132 92c-0.1-0.09-0.1-2.91 0-3-0.98 1.1-1.83 3.87 0 3z"/>
   <path d="m132 92s0.73 0.25 1 0c0.01-0.38 0.25-2.77 0-3 0 0-0.73-0.25-1 0-0.1 0.09-0.1 2.91 0 3z"/>
   <path d="m140 105c-1.32 0.99-2.39 4.69-4 3v-1c-0.25-0.25-1 0-1 0v1c0.42 1.36 1.8 2.33 3 3-0.83 1.57-0.88 4.21-1 5 2.61-6.99 11.2-6.58 18-6 1.55 0.13 1.97 0.66 3 1 2.18 0.38 4.12 0.64 6 2 0.33 7.96-9.38 15.11-5 22-0.81-5.76 4.73-14.26 7-21 1.09 6.92 1.72 14.41 6 20 0.63-2.21 5.04-3.43 7-2-0.48 0.11 2.27-1.22 2-1 0 0-0.12-0.97 0-1-2.61-0.64-4.51 1.29-7 1-1.19-4.71 1.82-9.64-1-14s4.21-8.28 4-11c-1.18 0.5-1.81 1.56-3 2 0 0-0.5-0.05-1 0-0.35 0.03-0.94 0.65-1 1-0.61 3.44-1.06 6.7-2 10 4.63-0.52 3.48 9.13 2 11-3.52-2.42-0.56-7.5-3-10-0.28 1.25 0.6 3.47-1 4 4.28-17.49-19.52-17.38-30-13 2.09-10.93 15.42-4.93 23-5 0.98-4.78 6.71-7.39 8-12-4.12 1.67-6.94 7.14-9 11-4-0.81-7.68-2.53-12-2-0.96-2.43-2.58-4.7-5-6-0.53 2.68 3.48 3.34 3 6-2.56-0.68-4.09 0.8-6 2z"/>
   <path d="m171 107c0.21 0.1 0.95-0.65 1-1-0.77-3.61 1.19-8.41 0-11-2.34 3.76-2.22 7.95-1 12z"/>
   <path d="m135 102v5s0.75-0.25 1 0c0-1.86 0.38-4.18 0-6 0 0-0.75-0.25-1 0v1z"/>
   <path d="m135 108v-1-5c-1.25 1.6-1.65 4.4 0 6z"/>
   <path d="m136 108c1.61 1.69 2.68-2.01 4-3-1.33 0.84-2.5 2.37-4 3z"/>
   <path d="m165 108c1.32-0.45 0.83-1.9 1-3h-4c-0.2 0.3 4.6 2.45 3 3z"/>
   <path d="m165 108c2.05 0.59 3.09-0.91 1-3-0.17 1.1 0.32 2.55-1 3z"/>
   <path d="m174 108c1.19-0.44 1.82-1.5 3-2-0.17-2.19-2.71 1.51-3 2z"/>
   <path d="m171 107c0.15 0.49 0.97 1.86 1 2 0.06-0.35 0.65-0.97 1-1 0.19 0.24-1.11-2.42-1-2-0.05 0.35-0.79 1.1-1 1z"/>
   <path d="m137 116c-1.08 7.15 0.46 13.97-2 21-2.46 7.02 2.07 12.58 2 19-0.03 2.19-0.87 4.58-1 7 0.08-0.19 1.86 0.22 2 0 0.17-2.32-0.08-4.68 0-7 0.09-2.54 0.79-4.75 1-7 0.23-2.42-0.74-5.7 0-8 0.04-1.27 0.54-2.73 2-3-0.28 1.28 0.76 3.5-1 4 0.39 2.12 0.07 4.84 0 7-0.09 2.54-0.79 4.75-1 7-0.34 3.59 0 7.39 0 11v9c0 3.75-1.56 11.67 0 15 0.48-0.38 2.65 0.48 3 0-0.59-4.08-0.59-9.92 0-14 0.05-0.35 0.65-0.97 1-1 1.58-3.78 1.47-10.61 6.25-12.75s6.66 8.91 6.75 11.75c11.04-4.03 7.63-20.56 18-25-0.64-4.27 1.64-7.75 1-12-3.82 1.21-2.2-2.33-3-4-4.28-5.59-4.91-13.08-6-20-2.27 6.74-7.81 15.24-7 21-4.38-6.89 5.33-14.04 5-22-1.88-1.36-3.82-1.62-6-2-1.11-0.19-2.35-0.86-3-1-6.8-0.58-15.39-0.99-18 6m25 20c-0.25 5.63-8.42 6.41-8 0 2.61 4.4 4.73 3.42 8 0m-12 8c-0.09 4.36-5.74 6.34-5 11 2.84-0.65 1.81-5.28 5-5-1.58 5.5-8.15 7.21-6 14-2.93-6.62 0.45-15.55 6-20m12 6c-0.26 2.33-3.54 4.25-6 4 1.92-1.08 3.42-4.02 6-4z"/>
   <path d="m158 111c-1.03-0.34-1.45-0.87-3-1 0.65 0.14 1.89 0.81 3 1z"/>
   <path d="m169 120c2.44 2.5-0.52 7.58 3 10 1.48-1.87 2.63-11.52-2-11-0.07 0.24-0.96 0.65-1 1z"/>
   <path d="m179 132c0.27 0.19 0.96 0.78 1 1 0.13-0.21 1.24-1.76 1-2 0.27-0.22-2.48 1.11-2 1z"/>
   <path d="m180 133c-0.2 0.31-0.89 0.74-1 1-0.18 0.42-0.24 1.69 0 2 1.53 0.18 0.99 2.82 3 2-2.11 2.17-2.3 5.01-2 8 9.1 2.27 6.63-13.67 1-15 0.24 0.24-0.87 1.79-1 2z"/>
   <path d="m179 136c-0.24-0.31-0.18-1.58 0-2-1.28 0.11-0.9 0.11 0 2z"/>
   <path d="m162 136c-3.27 3.42-5.39 4.4-8 0-0.42 6.41 7.75 5.63 8 0z"/>
   <path d="m139 141c-0.02 0.05 0.93 0.65 1 1 1.76-0.5 0.72-2.72 1-4-1.46 0.27-1.96 1.73-2 3z"/>
   <path d="m139 149c0.2-0.24 1 0 1 0 0.07-2.16 0.39-4.88 0-7-0.07-0.35-1.02-0.95-1-1-0.74 2.3 0.23 5.58 0 8z"/>
   <path d="m150 144c-5.55 4.45-8.93 13.38-6 20-2.15-6.79 4.42-8.5 6-14-3.19-0.28-2.16 4.35-5 5-0.74-4.66 4.91-6.64 5-11z"/>
   <path d="m138 156c0.01-0.07 1 0 1 0 0.21-2.25 0.91-4.46 1-7 0 0-0.8-0.24-1 0-0.21 2.25-0.91 4.46-1 7z"/>
   <path d="m162 150c-2.58-0.02-4.08 2.92-6 4 2.46 0.25 5.74-1.67 6-4z"/>
   <path d="m143 176c0.5-0.05 1 0 1 0 2.29-3.82 2.47-8.76 6-12 5.3 6.7 7.48 16.31 11 24 0.14 0.23 1 0 1 0 0.63-3.83-2.29-8.17-4-11 9.29-6.24 6.66-21.13 17-25v3c0.26 1.51 0.07 3.46 0 5 0.74-4.15-0.42-6.53-1-10-10.37 4.44-6.96 20.97-18 25-0.09-2.84-1.97-13.89-6.75-11.75s-4.67 8.97-6.25 12.75z"/>
   <path d="m162 188c0.73 1.22 1.34 2.21 3 2 4.86-0.43-0.41-19.8 4-10 2.2-5.18 3.48-10.64 5-16 0.2-1.91 1.17-8.02 1-9v-3c-10.34 3.87-7.71 18.76-17 25 1.71 2.83 4.63 7.17 4 11z"/>
   <path d="m174 164c0.35-1.23 0.91-2.19 1-4 0.07-1.54 0.26-3.49 0-5 0.17 0.98-0.8 7.09-1 9z"/>
   <path d="m135 171c0 0.04 1 0 1 0 0-2.65-0.14-5.35 0-8 0.13-2.42 0.97-4.81 1-7-0.53 4.11-2.67 9.42-2 15z"/>
   <path d="m138 163c-0.22 2.93-0.89 6.65-2 9v1c0.16 0.23 1.68-0.24 2 0-0.19-2.29 0.83-4.47 1-6 0-3.61-0.34-7.41 0-11 0 0-0.99-0.07-1 0-0.08 2.32 0.17 4.68 0 7z"/>
   <path d="m136 171v1c1.11-2.35 1.78-6.07 2-9-0.14 0.22-1.92-0.19-2 0-0.14 2.65 0 5.35 0 8z"/>
   <path d="m144 176c0.48 2.59-0.83 5.21-1 7 0.07 2.66 0 5.34 0 8 0.24-0.26 2.61 0 3 0 6.89 0 10.83 3.84 16 4 0.18-2.62-0.38-4.61-1-7-3.52-7.69-5.7-17.3-11-24-3.53 3.24-3.71 8.18-6 12z"/>
   <path d="m138 173c0.1 1.26 0.84 2.26 1 3v-9c-0.17 1.53-1.19 3.71-1 6z"/>
   <path d="m136 173v-1-1s-1 0.04-1 0c0.06 0.47 0.13 4.19 1 2z"/>
   <path d="m138 176c-2.64 1.76 0.97 4.12 0 0z"/>
   <path d="m142 177c0.41 1.74 0.93 3.68 1 6 0.17-1.79 1.48-4.41 1-7 0 0-0.5-0.05-1 0-0.35 0.03-0.95 0.65-1 1z"/>
   <path d="m142 191c0.05 0.35 0.98 1.03 1 1v-1c0-2.66 0.07-5.34 0-8-0.07-2.32-0.59-4.26-1-6-0.59 4.08-0.59 9.92 0 14z"/>
   <path d="m162 195c-0.03 0.5 0 1 0 1-0.22 3.32 0.57 4.58 2 7 1.36-2.23-0.23-9.4 1-13-1.66 0.21-2.27-0.78-3-2 0 0-0.86 0.23-1 0 0.62 2.39 1.18 4.38 1 7z"/>
   <path d="m143 192c-0.02 0.03-0.95-0.65-1-1-0.35 0.48-2.52-0.38-3 0 0.91 1.95 4.71 3.02 4 1z"/>
   <path d="m149 192c2.07 0.86 3.88 9.56 1 11-0.73 2.29-2.57-0.17-1-1-0.73 0.8-2.28 1.28-3 2-0.68 0.9-1.29 2.06-2 3 5.68-3.59 12.95 1.18 19-2 0 0-0.19-0.59 0-1-3.02-0.81-2.58-5.86-1-8 0 0-0.03-0.5 0-1-5.17-0.16-9.11-4-16-4 0.11 0.02 2.64 0.85 3 1m9 8c3.58-9.45 3.23 11.02-6 5v-13c4.24-0.59 6.49 4.43 6 8z"/>
   <path d="m149 201v1c0.12 0.26 1 1 1 1 2.88-1.44 1.07-10.14-1-11v9z"/>
   <path d="m158 200c0.49-3.57-1.76-8.59-6-8v13c9.23 6.02 9.58-14.45 6-5z"/>
   <path d="m163 204c0.12-0.26 0.81-0.68 1-1-1.43-2.42-2.22-3.68-2-7-1.58 2.14-2.02 7.19 1 8z"/>
   <path d="m146 204c0.72-0.72 2.27-1.2 3-2v-1c-1.45 0.2-2.23 1.99-3 3z"/>
   <path d="m150 203s-0.88-0.74-1-1c-1.57 0.83 0.27 3.29 1 1z"/>
   <path d="m144 207c-7.23 8.02-9.16 16.11-4.75 26.75 4.4 10.65 16.47 1.9 22.75 8.25 16.72-5.82 15.52-29.25 1-37-6.05 3.18-13.32-1.59-19 2z"/>
   <path d="m150 261c-1.8 1.8-4.98 0.5-7 2 8.22 0 16.82-0.74 25 0-0.64-4.34-5.54-0.28-8-2-4.57-3.2 1.93-15.82-1-20-1.7-2.19-5.48-0.44-8-1-2.11 3.85 3.25 18.9-1 21z"/>
   <path d="m160 261c-0.36-5.64 0.48-11.37 0-17-0.13-1.52 0.01-2-1-3 2.93 4.18-3.57 16.8 1 20z"/>
   <path d="m160 261c2.46 1.72 7.36-2.34 8 2 0.07 0.49 0 1 0 1 3.89-4.62-3.93-4.35-7-4 0.21-5.38 0.16-11.31-1-16 0.48 5.63-0.36 11.36 0 17z"/>
   <path d="m142 264c-0.25-0.3 0-1 0-1 0.51-2.34 3.2-2 5-2-1.07-2.06-4.12-0.53-6-1-0.13 1.66-0.08 2.94 1 4z"/>
   <path d="m142 263c0.25-0.25 1 0 1 0 2.02-1.5 5.2-0.2 7-2-0.6 0.3-2.32 0-3 0-1.8 0-4.49-0.34-5 2z"/>
   <path d="m142 264c1.76 0.5 0.72 2.72 1 4h-18c0.4 1.14-0.52 2.92 0 4 0.17 0.35 1.64 0.93 2 1 0.48 0.09 1 0 1 0 5.49 1.06 17.51-3.59 15 6 2.31-4.01 0.35-10.17 1-15h22v10c5.68-0.81 17.42-3.97 19 3-0.29-2.96 1.2-5.07 1-8-0.24-0.25-1 0-1 0-0.25 0.25 0 1 0 1v1c-2.03 2.09-16.03 2.03-18 0-0.25-0.26 0-1 0-1v-1-1c-0.21-1.62-0.04-2.98 1-4 0 0 0.07-0.51 0-1-8.18-0.74-16.78 0-25 0 0 0-0.75-0.25-1 0 0 0-0.25 0.7 0 1m1 5c-1.1 6.25-11.9 1.53-17 3 1.1-6.25 11.9-1.53 17-3z"/>
   <path d="m167 269c5.89-0.54 12.08 0 18 0 0 0 0.76-0.25 1 0-2.55-2.66-15.04-1.36-19-1v1z"/>
   <path d="m143 269c-5.1 1.47-15.9-3.25-17 3 5.1-1.47 15.9 3.25 17-3z"/>
   <path d="m167 270c5.95-0.54 12.05 0.54 18 0 0 0-0.25-0.75 0-1-5.92 0-12.11-0.54-18 0v1z"/>
   <path d="m167 271c5.68 0.51 12.32 0.51 18 0v-1c-5.95 0.54-12.05-0.54-18 0 0 0-0.25 0.74 0 1z"/>
   <path d="m185 271c-5.68 0.51-12.32 0.51-18 0 1.97 2.03 15.97 2.09 18 0z"/>
   <path d="m126 280h1c0.23-2.3-0.31-4.71 0-7-0.36-0.07-1.83-0.65-2-1-0.45 0.51 2.42 6.69 1 8z"/>
   <path d="m127 280h1c-0.23-2.3 0.31-4.71 0-7 0 0-0.52 0.09-1 0-0.31 2.29 0.23 4.7 0 7z"/>
  </g>
 </g>
</svg>
