<?xml version="1.0" standalone="no"?>
<svg xmlns="http://www.w3.org/2000/svg" height="1406pt" preserveAspectRatio="xMidYMid meet" viewBox="0 0 1130 1406" width="1130pt">
  <path d="m2800 14054c-25-3-100-14-168-24-154-25-245-25-397 0-66 11-151 20-188 20-128 0-572-109-812-199-235-89-296-152-330-346-9-49-23-113-32-142-13-45-20-54-54-67-61-24-109-33-314-56-301-33-403-60-461-121-28-29-29-34-28-122 0-123 21-186 97-299 79-116 80-139 14-283-59-130-71-195-64-348 6-143 35-255 100-386l42-84 62-19c37-11 97-42 145-75 210-143 238-160 299-177 35-10 70-21 77-24 7-4 27-40 45-81 39-89 66-113 133-114 72-1 117 28 223 142 94 103 137 134 202 146l36 7 7-65c9-89 29-153 91-287 105-228 116-313 66-506-40-154-45-201-31-339 6-66 9-143 5-173-6-47-14-61-65-118-89-98-104-145-105-324 0-202 29-294 141-449 30-40 54-78 54-83 0-25-168-496-217-608-171-389-187-448-188-680 0-137 4-182 23-268 31-137 87-310 187-577 196-522 264-773 376-1384 62-343 100-526 145-705 46-182 176-595 271-861 71-198 76-217 83-325 8-105 16-138 95-390 85-272 139-467 150-545 3-22 10-103 15-180 8-126 13-152 49-253 47-130 50-172 21-282-11-41-24-119-30-172-5-54-16-113-24-132-34-81-189-185-331-221-35-9-105-15-175-15-136 0-206-21-333-97-261-158-395-506-254-660 27-31 94-50 214-62 55-6 161-25 235-42 171-40 415-50 598-25 225 31 643 116 703 143 135 61 188 183 252 589 43 279 59 345 135 583 104 325 127 452 116 636-7 139-28 235-121 565-100 358-120 443-155 672-16 108-47 270-69 360s-44 195-50 235c-13 86-14 193-2 212 14 21 47 4 104-53 103-104 299-241 493-344 60-32 117-69 128-85 23-31 23-50 15-487l-4-185 83-335c109-439 128-540 147-752 8-98 27-233 41-300 31-148 41-305 25-368-10-38-29-61-116-145-63-60-110-115-120-137-16-41-20-151-6-210l9-36-111-94c-118-99-187-181-253-300-78-140-116-260-100-321 3-13 27-53 54-90 31-41 55-88 66-125 20-71 46-108 84-117 15-3 70-9 122-14 69-6 116-16 173-39 92-37 130-39 238-12 77 20 83 20 192 4 256-38 515 9 622 113 31 30 33 37 39 120 35 472 51 629 74 690 17 46 19 48 67 56 59 9 483-10 538-24 60-16 43-61-41-103-70-36-128-122-157-233-27-103-20-300 16-455 15-67 48-78 200-71 113 6 115 5 180-26l66-32 179 3c160 3 189 0 279-21 171-41 396-34 612 20l82 20 40-21c104-53 293-65 577-36 82 8 227 20 321 26 108 7 202 19 250 32 71 18 121 21 533 27 250 3 461 10 467 14 7 5 133 12 280 17 148 6 315 16 373 25 58 8 164 15 237 15 353 1 759 163 848 341 57 112 54 205-13 334-46 88-232 279-377 386-167 124-384 243-605 334-115 47-197 90-236 126-17 16-20 28-17 67 3 26-5 104-16 175-25 152-26 215-6 429 18 181 19 166-44 529-81 471-146 703-297 1066-172 412-367 793-689 1344-453 772-600 968-1250 1659-542 576-667 735-950 1205-235 390-332 512-721 900-258 258-271 275-375 515-113 260-198 389-357 541-114 110-216 180-402 275-168 86-240 150-264 234-8 30-20 129-26 220-10 174-21 229-72 375-23 66-32 108-32 160-1 106 23 145 267 429 252 294 330 455 344 707 7 121-2 150-100 312-41 67-93 160-117 207-71 137-140 198-335 298-127 65-180 98-253 160-104 89-150 108-337 137-55 9-100 17-101 18s-9 18-19 37c-27 53-122 148-197 197-159 103-353 152-633 157-99 2-200 2-225 0zm2651-11453c57-57 77-89 149-231 93-184 124-237 216-361 71-95 130-212 140-276l7-43h-40c-50 0-124 22-242 72-97 41-199 68-262 68h-37l-11 64c-35 201-75 736-58 779 11 28 66-1 138-72z" transform="matrix(.1 0 0 -.1 0 1406)" vector-effect="non-scaling-stroke" fill="#000000" stroke="none" stroke-width="2"/>
</svg>
